<svg xmlns="http://www.w3.org/2000/svg" width="45.57" height="38.09" viewBox="0 0 45.57 38.09"><defs><style>.cls-1{fill:#fff;}</style></defs><title>raven</title><g id="Layer_2" data-name="Layer 2"><g id="Layer_7" data-name="Layer 7"><path class="cls-1" d="M45.71.37s-.12-.06-.12,0l.13.1Z" transform="translate(-0.19 -0.33)"/><path class="cls-1" d="M45.29.5a.54.54,0,0,0,.27.27c-.1-.14,0-.11-.17-.26s.09,0,.14,0,.06,0,0-.11-.17,0-.13.17S45.32.52,45.29.5Z" transform="translate(-0.19 -0.33)"/><path class="cls-1" d="M42.19,3.44h0Z" transform="translate(-0.19 -0.33)"/><path class="cls-1" d="M41.07,5.9a.05.05,0,0,0,0,0S41.06,5.9,41.07,5.9Z" transform="translate(-0.19 -0.33)"/><path class="cls-1" d="M40.77,6.28l0,0S40.76,6.27,40.77,6.28Z" transform="translate(-0.19 -0.33)"/><path class="cls-1" d="M42.19,3.44l-.09,0S42.16,3.47,42.19,3.44Z" transform="translate(-0.19 -0.33)"/><path class="cls-1" d="M45.24,1.23a.07.07,0,0,0,0-.06v0Z" transform="translate(-0.19 -0.33)"/><path class="cls-1" d="M42.87,2.45h0l0-.06Z" transform="translate(-0.19 -0.33)"/><path class="cls-1" d="M43.51,1.8s.07.12.1.17,0-.08,0-.1Z" transform="translate(-0.19 -0.33)"/><path class="cls-1" d="M44.68,1V1Z" transform="translate(-0.19 -0.33)"/><path class="cls-1" d="M42.4,2.92s0,0,0,0Z" transform="translate(-0.19 -0.33)"/><path class="cls-1" d="M28.94,23.43v0A0,0,0,0,0,28.94,23.43Z" transform="translate(-0.19 -0.33)"/><polygon class="cls-1" points="27.51 22.94 27.52 22.93 27.49 22.86 27.51 22.94"/><path class="cls-1" d="M40.36,7h0S40.35,7,40.36,7Z" transform="translate(-0.19 -0.33)"/><path class="cls-1" d="M37.44,13.79c.15,0,.07.2.25.16C37.64,13.93,37.56,13.74,37.44,13.79Z" transform="translate(-0.19 -0.33)"/><path class="cls-1" d="M45.21,1.24l0,0S45.21,1.25,45.21,1.24Z" transform="translate(-0.19 -0.33)"/><polygon class="cls-1" points="37.5 13.62 37.5 13.62 37.52 13.62 37.5 13.62"/><path class="cls-1" d="M39.83,8.79h0Z" transform="translate(-0.19 -0.33)"/><path class="cls-1" d="M40.48,7.54l0,0Z" transform="translate(-0.19 -0.33)"/><path class="cls-1" d="M39.75,9.53s0,0,0,0h0S39.72,9.54,39.75,9.53Z" transform="translate(-0.19 -0.33)"/><polygon class="cls-1" points="39.27 9.9 39.3 9.9 39.31 9.87 39.27 9.9"/><path class="cls-1" d="M31,22.18a.28.28,0,0,1-.1-.09C30.94,22.17,30.86,22.27,31,22.18Z" transform="translate(-0.19 -0.33)"/><path class="cls-1" d="M45.18,1.18a.09.09,0,0,1,0,.06v0A.05.05,0,0,0,45.18,1.18Z" transform="translate(-0.19 -0.33)"/><path class="cls-1" d="M40.76,10l-.06.11A.39.39,0,0,0,40.76,10Z" transform="translate(-0.19 -0.33)"/><path class="cls-1" d="M35.25,18.57v0S35.26,18.59,35.25,18.57Z" transform="translate(-0.19 -0.33)"/><path class="cls-1" d="M40.58,10.43a.16.16,0,0,0-.11,0l0,0Z" transform="translate(-0.19 -0.33)"/><path class="cls-1" d="M30.87,22.09Z" transform="translate(-0.19 -0.33)"/><path class="cls-1" d="M30.34,22.8c.11-.06,0-.18-.07-.29s.12.09.21.14,0-.26.08-.29a.13.13,0,0,1,.05.07c0-.18.24-.15.22-.37l0,0a.87.87,0,0,1-.15-.2s0-.15.1-.06,0,.05,0,.09l0-.07c.13.12,0,.09,0,.2.06-.11.08-.3.18-.31.1.14-.13.16,0,.23H31c.23.17-.07,0,.16.22.17-.05.11-.18.27-.23,0-.1-.08-.11-.11-.21.1-.28.4.24.42,0,0-.12-.14-.31,0-.29l.08.18c.14-.07-.09-.27.13-.27,0,.08-.07.13,0,.13.18.06,0-.13.07-.18l.12.13c.13-.12.2-.34.33-.49,0,.05,0,.11.1.13a1.1,1.1,0,0,1,.67-.38l0-.17s.08,0,.08.06-.06-.07-.06-.14.11,0,.11.07c.05-.19.17-.5.4-.5v.06c.13,0-.09-.33.09-.31v0c.25-.15.39-.46.71-.44-.11-.18.27-.14.07-.36.22,0,.22.05.45,0,.06,0-.06-.2,0-.28l.11.11-.05-.19.18.09,0-.08a.1.1,0,0,1-.12,0c0-.12.26-.12.32-.07l.09-.28a.21.21,0,0,1,0,.15c0-.21.14.09.12-.1,0,0-.06-.07-.08-.09s.21-.1.25-.21l.06.08a5.85,5.85,0,0,0,.38-.52c-.09,0-.22-.1-.19-.16l.14.09c0-.1-.09,0-.13-.14s.18.08.19.15l0-.11s0,.06.09.1.24,0,.14-.18l0,0a2.24,2.24,0,0,0,.26-.43c-.11-.09,0-.13-.1-.24.11-.08.29-.13.38-.26s-.08-.1-.12-.19c.11.07.19-.07.22.06a1.08,1.08,0,0,0,.18-.47c-.05,0-.09,0-.12,0s.1-.06.15,0v0c0-.33.66-.31.55-.64v-.24c.08-.08.05.1.16.08-.05-.32.24-.3.21-.55.4.06.25-.48.56-.54l-.08,0c0-.09.08,0,.12-.06s-.1,0-.13,0a4.58,4.58,0,0,1,.85-1.14c.1-.14-.37-.29-.08-.39l.12.13c0-.39.31-.63.3-1,0,0,.07.06.06.09s.11-.24,0-.28.09,0,.15,0-.07-.23,0-.21,0,0,0,.05.11-.19,0-.21c.11-.09,0-.24.16-.3-.12-.12.14-.17,0-.28.21.1.25-.13.18-.25,0,.05.09,0,.17,0a.15.15,0,0,0-.09-.21c.31-.05-.08-.39.28-.35a5.21,5.21,0,0,1,0-.8c.21.09-.07.26.16.33,0-.25-.15-.44,0-.63s.08.06.11.09c0-.24.17-.41.12-.64,0,0,0,0,0,.06s.07-.08,0-.1v0c-.16,0-.24-.25-.32-.28.26.16.13-.16.45,0a.13.13,0,0,0-.11-.09s.07,0,.13,0c0-.15-.13-.14-.09-.26s.06,0,.11.08-.14-.19-.07-.28.07,0,.06,0c0-.18-.15-.38,0-.55.18.12.08,0,.27,0l0-.12h-.1c0-.09-.08-.21,0-.27l.06.09V6l-.09.08c-.07-.13-.23-.06-.15-.17s0-.09.15-.11h0c0-.06-.09-.13,0-.18s.19.07.24.07c-.14-.09,0-.24-.13-.34a.32.32,0,0,0,.15.06l-.12-.07c.05,0,.07,0,.15,0s-.24,0-.1-.15,0,0,0,0c.09-.15,0-.32.1-.45s0,.14.18.13a1,1,0,0,0,0-.17s0-.07,0-.12a.47.47,0,0,1,.09-.28l0,0c-.21-.16.19-.06.14-.21,0,0,.1.11.08.09s.09-.27.15-.48l0,.06c.09,0,.15-.15.23-.19s0-.1-.1-.14c.47.05.18-.53.59-.48,0,0,0,.09,0,.07l.09-.19c-.09-.07-.07,0-.16-.06s0-.15,0-.18c0,.12.13.13.2.14s0-.05-.07-.08c.22.07-.15-.17,0-.18l0,.05c0-.06,0-.15,0-.18s0,.08.07.16,0-.29.09-.25,0,.09,0,.14c.17,0,.15,0,.21,0h0L44,2.42h-.05c-.17-.33.11-.2.05-.46,0,.25.07.11.17.22s.13,0,.14,0c0-.14.15,0,.1-.2,0,0,.06,0,.13.05,0-.09-.08-.05-.11-.1,0-.21.37-.07.35-.38s0-.32,0-.49c.09,0,.1.15.1.15s.14-.07.15-.17a.2.2,0,0,0,.12.07c0-.06-.1-.15,0-.17a1,1,0,0,1,.1.18c0-.09,0-.21,0-.3s.07.12.09.17.09-.24,0-.34l-.07,0s.11.05.11.09-.1.06-.15,0V.78c-.26-.12-.1.21-.19.29L44.91.9l.06.2c-.06,0-.16-.09-.14-.15s0,.1-.13.08,0,0,0,0v.1S44.56,1,44.61,1c-.18,0,0,.26-.19.19v0c-.09.19.1.12.12.35l-.34-.2.1.13a.07.07,0,0,1-.09,0c0,.12,0,0,.09.14-.17,0-.15.23-.33.06.05.11.13,0,.11.14-.2-.18-.06.11-.21.08s0-.12-.11-.15c.12.21-.16.08-.18.17s-.07.16-.11.29c0-.05-.24.1-.37.13l0,0c.11.15,0,.2,0,.3a.28.28,0,0,1-.09-.2l-.06.07a.16.16,0,0,1,0,.15l-.09-.11c-.07.08,0,.27-.2.31.09.1.34.16.31.33-.06,0-.15-.12-.15-.17s0,.08,0,.07l0-.12c-.08,0,0,.09,0,.12s-.08,0-.14-.07.07,0,0-.05a.27.27,0,0,1-.22,0c.05,0,.1.08.08.12s-.11,0-.19,0-.07.07.05.17c0,0-.08,0-.12,0s-.16.23,0,.27h0v0h0c0,.24-.3.26-.35.47l0,0c0,.12-.11.23-.05.35s-.12,0-.16,0,0,.12-.11.22c0-.13-.09,0,0-.13-.11.09-.2.17-.1.31-.11-.07-.18,0-.15.1l.11,0a.38.38,0,0,1,0,.15l-.15-.07c-.26.16.23.47-.14.55.09.09.11-.1.22,0,0,.09-.3.13-.31.16s.2.19.1.32c.06,0,.22,0,.25.14S41,6,41,5.89s0,0,0,0,0-.08-.1-.06l0,0c-.07,0-.1.17-.19.11s.09.06.13,0c-.12.1-.06.19-.15.31s.11,0,.1,0,.08.11.07.25-.2-.09-.17.06-.15,0-.19-.08c.07.15-.14.2-.18.26l0-.08a.14.14,0,0,1,0,.11h.13s-.05.06-.09,0,.19,0,.27.14c-.07,0,0,.17-.14.13.1-.13-.15,0-.14-.16a.09.09,0,0,1,0,.09l0,0c-.18.1.15.12.1.27-.08,0-.17,0-.16,0s.15,0,.19.09,0,.12,0,.17l.05,0c.08,0,0,.1.06.17s0-.07-.07-.06c.13.12-.21.11-.14.25-.08,0-.16,0-.22,0s-.15.08-.11.23.1,0,.18.12V8l.12.19c0-.06,0-.16,0-.19s0,.08.15.09c-.2,0,0,.19-.11.25l-.28-.1c-.17.09.06.3-.08.46l.07,0c.1.06,0,.12,0,.19s-.14,0-.21,0,0,.13.12.22l-.15,0c-.11.13.19.27.11.4-.09-.08-.18,0-.21-.16,0,0,0,.08,0,.1s.07.18,0,.19.12.08.09.13h0s0,.1.15.1c-.35,0-.14.42-.44.44a1.69,1.69,0,0,1-.08.34s0,0,0,0,.23.19.07.29-.05-.11-.12-.09c-.31-.11,0,.2-.26.21v0c-.14,0,0,.23,0,.35l0,0a.63.63,0,0,1,.07.47c-.1-.09,0-.08-.16-.11s.19.07.17.19a.6.6,0,0,1-.3,0l0-.1c-.19,0-.06.13-.12.16l-.06,0c-.06.16.12.25,0,.4h.06c.12.18-.14,0,0,.18l-.19-.07a1.68,1.68,0,0,1,0,.41,1.15,1.15,0,0,1-.14-.39c0,.05-.08.19,0,.27s0-.08,0-.09a.35.35,0,0,1,.06.38c-.32-.2-.25.24-.55.17,0,.26-.28.35-.39.59.31.07,0,.07.24.21,0,.06,0,.08-.05.07l-.24.07c-.1,0,0-.09-.09-.12s-.14,0-.26,0c.11,0,.11.12,0,.16h.18c0,.24-.3,0-.27.23l0-.1c0,.11-.19.29,0,.51,0,0-.12,0-.11-.08-.16.16-.06.57-.29.63l0-.06s.07.14,0,.14,0-.06-.07-.05,0,.17,0,.19l0-.09c-.21.12,0,.39-.1.58a.34.34,0,0,0-.42,0l0,0c-.18.18-.12.46-.21.69-.28,0-.4.32-.66.42.06,0,.13.11.12.16s0,.22-.13.08h0c-.17-.1-.21,0-.27.08l.19.19c-.45-.09-.33.54-.67.4,0,.08,0,.13,0,.22l-.1-.1a.84.84,0,0,0-.31.29l0-.1c-.08.07.19.39.12.46l-.17-.13c-.14.13-.41.13-.42.39,0,0,0-.07,0-.1s-.35.13-.13.32c-.13-.14-.16.12-.18.25l-.08-.11c.05.19.08.23,0,.35s-.09-.07,0-.07c-.13,0,0,.15-.12.17l0-.1c-.09.06,0,.09,0,.2s-.17.09-.26,0c0,.07.06.19,0,.19a.1.1,0,0,1,0-.08c-.19,0-.1.28-.27.24s0-.05-.07-.05a1.15,1.15,0,0,1,.19-.13C32.09,20,32,20,32,19.83c0,.13,0,.38-.11.4l0,0h0s0,0,0,0l-.09,0c-.08-.07-.13,0-.18.06s0,.14.14.19,0,0,0-.05v0h0l.1-.09c0,.08,0,.16-.08.13l.07.23c-.17-.11-.35-.12-.44-.2-.08.15-.28.25-.21.53,0,.05-.09,0-.13-.06s0,0,0-.09c0,.11-.21.18-.12.34-.15,0,0-.18-.16-.06v-.06c-.42-.07-.17.69-.67.55a.07.07,0,0,1,.06,0c-.42.06-.62.56-1.09.53-.13,0-.08.11-.1.22l-.09-.12,0,.2c-.09.19-.43-.19-.51.12l.07.07c-.07,0-.18.17-.22.06s0,.1,0,.07l0-.07L28,23c-.15,0-.12-.29-.31-.21s-.1.31-.05.34.09,0,.13.08l-.05.07c.09.22.14.46.37.53l.05-.19.08.08-.09.06c.1.07.1,0,.11-.11a.2.2,0,0,0,.1.09v-.26c.05.07,0,.19.13.19s-.14-.15-.09-.26c.1.07.12.16.15,0a.13.13,0,0,1,0,.13c0-.09.14-.1.11-.23.12.09.17-.12.27.07a.32.32,0,0,1,.07-.23c0,.28.2-.09.3.17,0-.24.21-.21.26-.4,0,0,0,.06,0,0s.13,0,.2,0c-.09-.17,0-.27,0-.41.18.12.06.23.18.37-.08-.13.06-.22,0-.32a.41.41,0,0,1,.2.14c-.12-.22,0-.07,0-.23.15.05.14.18.2.06C30.39,22.67,30.34,22.8,30.34,22.8Zm2.05-1.9h0l0,0Zm.18-.15-.08.06s-.06-.08,0-.09S32.52,20.74,32.57,20.75Zm-1-.47s0,0,.06,0,0,0,0,.06h0A.09.09,0,0,1,31.61,20.28Z" transform="translate(-0.19 -0.33)"/><path class="cls-1" d="M31.67,20.46s0,0,0,0h0l0,0Z" transform="translate(-0.19 -0.33)"/><path class="cls-1" d="M42.23,3.43h0Z" transform="translate(-0.19 -0.33)"/><polygon class="cls-1" points="34.93 18.47 34.91 18.45 34.91 18.48 34.93 18.47"/><path class="cls-1" d="M43.41,2.81l0,0Z" transform="translate(-0.19 -0.33)"/><path class="cls-1" d="M43.82,2.47l.09,0A.17.17,0,0,0,43.82,2.47Z" transform="translate(-0.19 -0.33)"/><path class="cls-1" d="M44.16,2.23l0,0h0Z" transform="translate(-0.19 -0.33)"/><path class="cls-1" d="M41.38,7.81v0S41.4,7.85,41.38,7.81Z" transform="translate(-0.19 -0.33)"/><path class="cls-1" d="M41.65,5.82a.35.35,0,0,1,.05.08S41.72,5.84,41.65,5.82Z" transform="translate(-0.19 -0.33)"/><polygon class="cls-1" points="40.58 9.63 40.58 9.63 40.57 9.64 40.58 9.63"/><path class="cls-1" d="M41.67,6a.07.07,0,0,0,0-.09A.09.09,0,0,0,41.67,6Z" transform="translate(-0.19 -0.33)"/><path class="cls-1" d="M45.5.92l0,0h0Z" transform="translate(-0.19 -0.33)"/><path class="cls-1" d="M45.5.89v0S45.49.88,45.5.89Z" transform="translate(-0.19 -0.33)"/><path class="cls-1" d="M45.5.79V.86S45.53.83,45.5.79Z" transform="translate(-0.19 -0.33)"/><path class="cls-1" d="M45.07,1.34l0,0Z" transform="translate(-0.19 -0.33)"/><path class="cls-1" d="M45,1.47s.15,0,.16-.06l0,0C45.14,1.45,44.93,1.39,45,1.47Z" transform="translate(-0.19 -0.33)"/><path class="cls-1" d="M44,1.52l.13-.07s-.13-.05-.09-.1C43.82,1.35,44.17,1.41,44,1.52Z" transform="translate(-0.19 -0.33)"/><path class="cls-1" d="M43.65,1.76c0-.07,0-.06-.07-.08S43.58,1.76,43.65,1.76Z" transform="translate(-0.19 -0.33)"/><path class="cls-1" d="M41.58,4.22l-.11-.06C41.46,4.22,41.51,4.18,41.58,4.22Z" transform="translate(-0.19 -0.33)"/><polygon class="cls-1" points="41.8 4.69 41.89 4.66 41.79 4.6 41.8 4.69"/><polygon class="cls-1" points="40.83 4.8 40.82 4.77 40.84 4.88 40.83 4.8"/><path class="cls-1" d="M39.4,10.06l.15,0S39.38,10,39.4,10.06Z" transform="translate(-0.19 -0.33)"/><path class="cls-1" d="M38.6,12.15c-.09,0-.16,0-.11.09S38.6,12.19,38.6,12.15Z" transform="translate(-0.19 -0.33)"/><polygon class="cls-1" points="34.43 17.18 34.42 17.11 34.4 17.2 34.43 17.18"/><path class="cls-1" d="M.34,1.37s-.09.11,0,.13l.12-.12Z" transform="translate(-0.19 -0.33)"/><path class="cls-1" d="M.39,1.81a.49.49,0,0,0,.3-.23c-.14.09-.11,0-.28.13s0-.09,0-.13,0-.07-.11,0,0,.19.14.16S.41,1.79.39,1.81Z" transform="translate(-0.19 -0.33)"/><path class="cls-1" d="M2.24,5.54v0Z" transform="translate(-0.19 -0.33)"/><path class="cls-1" d="M2.93,8.08s0,0,0,0S2.92,8.09,2.93,8.08Z" transform="translate(-0.19 -0.33)"/><path class="cls-1" d="M2.9,8.57v0S2.88,8.57,2.9,8.57Z" transform="translate(-0.19 -0.33)"/><path class="cls-1" d="M2.24,5.54l0,.08S2.24,5.58,2.24,5.54Z" transform="translate(-0.19 -0.33)"/><path class="cls-1" d="M1.11,2s0,0-.06,0l0,0Z" transform="translate(-0.19 -0.33)"/><path class="cls-1" d="M1.72,4.52v0h0Z" transform="translate(-0.19 -0.33)"/><path class="cls-1" d="M1.35,3.75s.13,0,.18-.06a.16.16,0,0,1-.1,0Z" transform="translate(-0.19 -0.33)"/><path class="cls-1" d="M.81,2.48h0Z" transform="translate(-0.19 -0.33)"/><path class="cls-1" d="M1.92,5.11l0,0Z" transform="translate(-0.19 -0.33)"/><path class="cls-1" d="M17.86,22.93v0S17.87,22.93,17.86,22.93Z" transform="translate(-0.19 -0.33)"/><polygon class="cls-1" points="18.18 23.75 18.16 23.75 18.11 23.81 18.18 23.75"/><path class="cls-1" d="M3,9.43H3S3,9.42,3,9.43Z" transform="translate(-0.19 -0.33)"/><path class="cls-1" d="M7.48,15.41c.09-.13.2.08.28-.1C7.72,15.34,7.52,15.28,7.48,15.41Z" transform="translate(-0.19 -0.33)"/><path class="cls-1" d="M1.11,2l0,0Z" transform="translate(-0.19 -0.33)"/><polygon class="cls-1" points="7.57 14.98 7.57 14.98 7.58 14.96 7.57 14.98"/><path class="cls-1" d="M3.87,11.21l0,0Z" transform="translate(-0.19 -0.33)"/><path class="cls-1" d="M3.44,9.79v0Z" transform="translate(-0.19 -0.33)"/><path class="cls-1" d="M4.47,11.81s0,0,0,.06v0S4.48,11.85,4.47,11.81Z" transform="translate(-0.19 -0.33)"/><polygon class="cls-1" points="4.85 12.05 4.86 12.02 4.83 12.01 4.85 12.05"/><path class="cls-1" d="M15.78,21.83l0,.13C15.78,21.87,15.9,21.89,15.78,21.83Z" transform="translate(-0.19 -0.33)"/><path class="cls-1" d="M1.05,2s0,0,.06,0h0S1.05,2,1.05,2Z" transform="translate(-0.19 -0.33)"/><path class="cls-1" d="M5.33,11.11s0,0,0,.07S5.33,11.1,5.33,11.11Z" transform="translate(-0.19 -0.33)"/><path class="cls-1" d="M11.29,19h0Z" transform="translate(-0.19 -0.33)"/><path class="cls-1" d="M5.64,11.42a.3.3,0,0,0,0,.12l0,0Z" transform="translate(-0.19 -0.33)"/><path class="cls-1" d="M15.75,22Z" transform="translate(-0.19 -0.33)"/><path class="cls-1" d="M16.61,22.05c-.1-.06-.13.13-.2.22s0-.15,0-.26-.24.12-.29.08,0,0,0-.07c-.15.09-.24-.12-.42,0a.09.09,0,0,1,0-.05,1.08,1.08,0,0,1-.11.24c-.05,0-.14.05-.1-.06s.05,0,.08-.05l-.07,0c0-.18.09,0,.15-.13-.11,0-.29.06-.34,0s.19,0,.17-.14l.08.11c0-.28.06.06.12-.24-.13-.12-.21,0-.33-.13-.07.07-.05.13-.13.19-.29,0,0-.46-.22-.34-.09.08-.21.26-.26.1l.13-.15c-.13-.09-.21.2-.3,0,.07-.06.14,0,.13,0,0-.19-.12.06-.19,0l.07-.16c-.16-.06-.39,0-.56-.11,0,0,.09-.06.08-.13a1,1,0,0,1-.56-.47l-.15.08s0-.08,0-.09-.06.08-.12.1,0-.1,0-.12c-.2,0-.52,0-.57-.23l.05,0c-.07-.12-.28.17-.3,0h0c-.18-.21-.51-.28-.54-.58-.16.15-.15-.24-.35,0,0-.21,0-.22-.07-.43,0-.05-.18.08-.26.06l.1-.12-.18.06L11.4,19l-.08,0a.11.11,0,0,1,0,.12c-.13,0-.12-.25-.07-.31L11,18.7s.09,0,.14,0c-.21,0,.09-.13-.09-.11,0,0-.07.06-.1.08s-.08-.2-.17-.25l.09-.06c-.1-.15-.29-.25-.42-.4,0,.09-.14.2-.2.16l.11-.12c-.1,0,0,.09-.15.11s.11-.16.18-.16l-.11,0s.07,0,.12-.08c-.11,0,0-.22-.14-.15l0,0c-.12-.16-.22-.2-.32-.32-.12.08-.13,0-.25,0a1.56,1.56,0,0,0-.11-.41c-.11-.05-.12,0-.21,0,.1-.08,0-.19.13-.18a1,1,0,0,0-.34-.31s0,.08-.09.09,0-.11.06-.13h0c-.3-.13.07-.69-.26-.75h0l-.22-.13c0-.1.12,0,.16-.09-.3-.11-.11-.34-.31-.45.15-.14.1-.25,0-.37a.67.67,0,0,1-.1-.19,1,1,0,0,1-.07-.36l-.06.07c-.13,0,0-.11-.07-.18s0,.13-.07.12a1.76,1.76,0,0,1-.3-.27,1.79,1.79,0,0,1-.2-.28c-.13-.21-.23-.43-.37-.62s-.39.26-.39,0l.16-.07c-.37-.1-.48-.49-.83-.61,0,0,.08,0,.1,0s-.18-.19-.25-.12.06-.07.07-.13-.23,0-.18-.12,0,0,.06,0-.14-.16-.2,0c0-.14-.21-.13-.23-.25-.15.06-.09-.21-.26-.07.17-.14,0-.29-.14-.25,0,0,0-.06.11-.11a.18.18,0,0,0-.16,0c.15-.27-.35-.15-.09-.4a2.27,2.27,0,0,1-.56-.5c.21-.09.14.21.34.1-.17-.15-.41-.18-.44-.4,0-.06.1,0,.14,0-.16-.16-.14-.39-.32-.53l.07,0s0-.09-.1-.05l0,0c-.12.11-.34,0-.42,0,.3,0,0-.21.39-.24a.16.16,0,0,0-.15,0s0-.07.13-.06C4.1,9,4,9.05,4,8.94s.07,0,.13,0c-.11,0-.22-.06-.22-.17s.07,0,.07,0c-.07-.17-.34-.21-.31-.44.22,0,0-.08.22-.15l-.09-.09-.07.07c0-.09-.18-.13-.15-.23l.09,0-.08-.16,0,.12c-.12-.07-.22.08-.21-.06,0,0,0-.09.06-.17h0c-.07,0-.14-.06-.12-.14s.2,0,.24-.07c-.16,0-.11-.2-.28-.21a.33.33,0,0,0,.15,0H3.23c0-.06,0-.07.12-.09s-.22.11-.17-.07l.06,0c0-.17-.17-.27-.15-.43s.08.11.22,0C3.22,6.5,3,6.34,3,6.13v0c-.26,0,.08-.18-.07-.25,0,0,.15,0,.12,0s-.15-.25-.3-.43h.08c0-.09,0-.22,0-.31s-.08-.06-.17,0c.28-.4-.37-.43-.16-.78,0,0,.08,0,.07,0l-.13-.18c-.1.06-.06,0-.12.13a.18.18,0,0,1-.17-.08c.11,0,.17-.07.22-.14l-.11,0C2.31,4,2,4.27,2,4.08h.06S1.92,4,1.91,4s.09,0,.19,0c-.05-.08-.3,0-.22-.17s.08.06.12.08c.11-.15.07-.14.07-.21h0V3.49l0,0c-.35.06-.15-.17-.42-.19.25,0,.12,0,.26-.1s0-.13.07-.13C1.81,3.12,2,3,1.77,3c0,0,0-.07.08-.12-.08-.06-.06.06-.12.09s0-.39-.31-.43-.32,0-.49-.08c0-.09.17-.08.17-.08a.18.18,0,0,0-.16-.18A.16.16,0,0,0,1,2.06C1,2,.86,2.15.86,2A.84.84,0,0,1,1.05,2c-.09,0-.21,0-.29-.05s.12-.06.18-.08S.7,1.71.6,1.79v.08s.06-.1.1-.1.05.11,0,.14H.67c-.15.24.18.13.25.23l-.18.11.2,0s-.1.14-.16.12.11,0,.06.13l0,0,.1,0s-.1.1-.11,0c0,.17.25.09.16.22h0c.17.11.14-.08.37-.06L1.05,3l.14-.07s0,.06,0,.08c.13,0,.05,0,.16-.06-.06.15.19.19,0,.33.12,0,0-.12.15-.07-.21.15.1.08,0,.21s-.11-.06-.17.07c.22-.06,0,.17.11.21s.13.11.24.2c-.06,0,0,.25,0,.37h0c.18,0,.19.07.25.14a.27.27,0,0,1-.21,0l0,.07a.15.15,0,0,1,.14,0l-.13,0c0,.09.23.14.19.3.13,0,.29-.23.43-.12-.06,0-.17.07-.21,0s.07,0,.05.05H2.05c0,.08.1,0,.11.05S2.11,5,2,5s0-.06,0-.06a.26.26,0,0,1-.09.19c.05,0,.12-.05.15,0s-.1.07-.13.15,0,.09.17,0,0,.06-.09.09.11.23.23.12h0c.2.13,0,.39.15.55h0c.08.09.1.22.23.27s-.07.1-.13.1.12.06.07.2c-.1,0-.06,0-.08-.06,0,.11-.08.16.08.23A.09.09,0,0,0,2.48,7l.06-.09a.21.21,0,0,1,0,.15L2.42,7c-.13.27.44.29.17.55.13,0,0-.14.19-.13s-.19.28-.18.31.27,0,.25.21c0,0,.2-.1.28,0s-.2.2-.26.15a0,0,0,0,1,0,0s-.07-.06-.12,0h.07c0,.06,0,.2-.1.2.08.05.1,0,.11-.07,0,.16.06.2,0,.35,0,0,.08-.07.09,0,0,.21.14,0,.2.17s-.21,0-.09.15c0,.1-.15.07-.2,0,.14.08,0,.25,0,.32l-.06,0a.19.19,0,0,1,.05.1L3,9.15s0,.08,0,.09.18-.09.3-.05.12.12,0,.19c0-.17-.14.07-.22-.05a.11.11,0,0,1,0,.1H3c-.08.19.19,0,.25.16-.09,0-.15.09-.12.11s.13-.08.21,0,.09.09.1.14V9.72c.09,0,.09,0,.15.1s-.07,0-.09,0c.18,0-.08.23.07.29,0,.08-.16.07-.18.13.16.07,0,.18.09.27.09-.09.06-.08.21,0l-.17-.17.22.06c0-.06-.13-.1-.12-.15s.08,0,.16,0c-.13.16.16.13.09.27l-.26.12c-.05.2.26.19.28.41l0-.09c.12,0,.07.11.14.15-.09,0-.1.09-.14.15s.07.14.25.05l-.06.15c0,.17.34,0,.39.17-.12,0-.14.12-.26.07s0,.09.1.06.19.08.18.18.14-.06.17,0l0,0s.11,0,.15-.09c-.11.33.33.29.24.58l.3.19s0,0,0,0c0,.16.27-.14.31,0s-.12,0-.13.08c-.22.25.17.11.11.32h0c0,.14.23.06.3.17l0,0a.67.67,0,0,1,.47.1c-.12.06-.09,0-.17.11s.14-.16.24-.1a.5.5,0,0,1-.09.28l-.08-.07c-.09.16.1.09.12.16l-.06.05c.13.1.27,0,.39.1l0-.06c.21-.07,0,.14.15.1L6.71,14a1.8,1.8,0,0,1,.41.09,1.2,1.2,0,0,1-.42,0c0,.05.16.15.25.1s-.08,0-.08,0a.32.32,0,0,1,.38.06c-.29.25.18.31,0,.57.08,0,.1,0,.07.07a1.36,1.36,0,0,0,.08.39c.24-.2,0,.07.32-.06,0,0,0,.08,0,.09l-.11.25c-.06.07-.08,0-.14,0s-.1.1-.14.22c.09-.06.16,0,.15.08l.09-.16c.22.11-.17.26.06.37l-.11,0c.1.07.17.35.43.33,0,0-.09.09-.13.06.08.24.47.36.44.59l-.07,0s.16,0,.13.08-.08,0-.07,0,.18,0,.17.11h-.1c0,.26.37.2.51.34a.33.33,0,0,0-.1.41l0,0c.15.24.44.27.65.42-.08.27.29.46.36.75,0-.06.13-.12.18-.1s.22,0,.07.15l0,0c-.11.17,0,.22.09.29l.2-.18c-.08.45.56.35.44.69.09,0,.15,0,.24,0l-.1.1a1.07,1.07,0,0,0,.35.31l-.1.05c.09.08.37-.23.46-.17l-.11.19c.17.11.23.38.5.34,0,0-.06.07-.09.06s.22.33.36.07c-.11.16.16.13.3.11l-.09.11c.17-.1.2-.14.33-.11s0,.11,0,.06c0,.11.14-.07.2.05l-.09.06c.08.06.1,0,.2,0s.15.13.1.24c0-.06.15-.12.19-.06a.15.15,0,0,1-.07.07c.1.17.3,0,.33.17a.15.15,0,0,0,0,.08c-.12-.07-.21-.13-.2-.14s0,.19-.14.3c.12,0,.36-.15.42,0a.11.11,0,0,1,0,.05h0a0,0,0,0,0,.06,0,.24.24,0,0,0,.06.08c0,.09.08.11.13.14.06-.13.12-.07.11-.21,0,0,0,0-.05,0h0l-.12,0c.07-.05.14-.08.16,0l.17-.16c0,.21.05.37,0,.48.18,0,.37.15.58,0,.06,0,0,.09,0,.13s-.06,0-.09,0,.25.11.36,0c.07.13-.14.12,0,.17l0,0c.15.41.68-.17.82.33a.11.11,0,0,1,0-.08c.28.34.8.26,1,.68.07.11.14,0,.24,0l-.06.14.19-.09c.21,0,.06.47.36.37l0-.1c.06.05.24.08.16.17s.08-.08.08,0l0,.07H18c.09.12-.19.25,0,.37s.31-.07.32-.13,0-.08,0-.15h.08c.14-.19.33-.35.27-.59l-.19.05,0-.11.09.05c0-.12-.07-.07-.14,0a.22.22,0,0,0,0-.13l-.23.12c0-.09.15-.12.11-.21s-.07.2-.18.21.06-.19-.05-.15a.14.14,0,0,1,.1-.09c-.09,0-.16-.07-.25,0,0-.14-.2-.08-.08-.26a.42.42,0,0,1-.24.07c.23-.17-.18-.13,0-.36-.19.17-.3-.05-.48,0,0,0,.05,0,.05,0s0-.13-.06-.2c-.11.17-.23.15-.35.23,0-.22.16-.18.23-.35-.08.14-.23.06-.26.19,0-.14,0-.08,0-.24-.13.21-.08,0-.21.11,0-.16.09-.22-.05-.21S16.61,22.05,16.61,22.05Zm-2.56-.91h0l0,0Zm-.2-.12.08.06s0,.08-.06.07S13.86,21.08,13.85,21Zm-.07,1.09s0,0,0-.06l.06,0h0A.12.12,0,0,1,13.78,22.11Z" transform="translate(-0.19 -0.33)"/><path class="cls-1" d="M13.93,22h0v0l0,0Z" transform="translate(-0.19 -0.33)"/><path class="cls-1" d="M2.25,5.5h0l0,0Z" transform="translate(-0.19 -0.33)"/><polygon class="cls-1" points="11.32 18.74 11.3 18.77 11.34 18.76 11.32 18.74"/><path class="cls-1" d="M2.27,4.16s0,0,0,0Z" transform="translate(-0.19 -0.33)"/><path class="cls-1" d="M2.07,3.64V3.55A.34.34,0,0,0,2.07,3.64Z" transform="translate(-0.19 -0.33)"/><path class="cls-1" d="M1.93,3.23l-.05,0h0Z" transform="translate(-0.19 -0.33)"/><path class="cls-1" d="M4.31,9.42h0Z" transform="translate(-0.19 -0.33)"/><path class="cls-1" d="M3.37,7.7l.09,0S3.45,7.67,3.37,7.7Z" transform="translate(-0.19 -0.33)"/><polygon class="cls-1" points="5.14 10.77 5.14 10.78 5.14 10.78 5.14 10.77"/><path class="cls-1" d="M3.48,7.83a.07.07,0,0,0,0-.09S3.45,7.8,3.48,7.83Z" transform="translate(-0.19 -0.33)"/><path class="cls-1" d="M.83,1.65v0s0,0,0,0Z" transform="translate(-0.19 -0.33)"/><path class="cls-1" d="M.8,1.65h0S.79,1.66.8,1.65Z" transform="translate(-0.19 -0.33)"/><path class="cls-1" d="M.71,1.64H.77S.75,1.61.71,1.64Z" transform="translate(-0.19 -0.33)"/><path class="cls-1" d="M1.2,2.13l0,0Z" transform="translate(-0.19 -0.33)"/><path class="cls-1" d="M1.33,2.26s0-.15-.06-.18l0,0C1.32,2.08,1.23,2.28,1.33,2.26Z" transform="translate(-0.19 -0.33)"/><path class="cls-1" d="M1.21,3.2a.57.57,0,0,0,0-.14s-.08.11-.12.07C1,3.36,1.14,3,1.21,3.2Z" transform="translate(-0.19 -0.33)"/><path class="cls-1" d="M1.34,3.6c-.05-.05-.06,0-.09,0S1.33,3.67,1.34,3.6Z" transform="translate(-0.19 -0.33)"/><path class="cls-1" d="M2.44,6.46l-.12,0S2.37,6.48,2.44,6.46Z" transform="translate(-0.19 -0.33)"/><polygon class="cls-1" points="3.06 6.51 3.12 6.44 3 6.45 3.06 6.51"/><polygon class="cls-1" points="2.29 7.12 2.26 7.1 2.34 7.18 2.29 7.12"/><path class="cls-1" d="M4.85,12.37l.1-.12S4.77,12.36,4.85,12.37Z" transform="translate(-0.19 -0.33)"/><path class="cls-1" d="M6.57,13.86c0,.08,0,.16.06.13S6.61,13.87,6.57,13.86Z" transform="translate(-0.19 -0.33)"/><polygon class="cls-1" points="10.03 19.27 9.96 19.27 10.06 19.3 10.03 19.27"/><path class="cls-1" d="M.22,1.17s0,.13,0,.13l.09-.15Z" transform="translate(-0.19 -0.33)"/><path class="cls-1" d="M.42,1.58a.5.5,0,0,0,.2-.32c-.1.12-.09.06-.21.21s-.06-.08,0-.13-.06-.06-.12,0,.09.18.2.11A.36.36,0,0,1,.42,1.58Z" transform="translate(-0.19 -0.33)"/><path class="cls-1" d="M4.57,3.6l0,0Z" transform="translate(-0.19 -0.33)"/><path class="cls-1" d="M7.14,4.84l0,0S7.14,4.86,7.14,4.84Z" transform="translate(-0.19 -0.33)"/><path class="cls-1" d="M7.52,5.21l0,0S7.5,5.22,7.52,5.21Z" transform="translate(-0.19 -0.33)"/><path class="cls-1" d="M4.57,3.6l0,.07S4.6,3.62,4.57,3.6Z" transform="translate(-0.19 -0.33)"/><path class="cls-1" d="M1.15,1.44a.09.09,0,0,0-.06,0h0Z" transform="translate(-0.19 -0.33)"/><path class="cls-1" d="M3.37,3.2h0l-.05,0Z" transform="translate(-0.19 -0.33)"/><path class="cls-1" d="M2.47,2.86s.08-.11.11-.16a.16.16,0,0,1-.08.07A.46.46,0,0,0,2.47,2.86Z" transform="translate(-0.19 -0.33)"/><path class="cls-1" d="M1.15,2.06h0Z" transform="translate(-0.19 -0.33)"/><path class="cls-1" d="M4,3.51a.17.17,0,0,0,0,.05S4,3.53,4,3.51Z" transform="translate(-0.19 -0.33)"/><path class="cls-1" d="M23.12,20.58h0Z" transform="translate(-0.19 -0.33)"/><polygon class="cls-1" points="22.95 21.28 22.93 21.28 22.9 21.35 22.95 21.28"/><path class="cls-1" d="M8.26,5.74h0S8.24,5.74,8.26,5.74Z" transform="translate(-0.19 -0.33)"/><path class="cls-1" d="M14.89,10.28c0-.16.22,0,.18-.24C15.05,10.09,14.84,10.15,14.89,10.28Z" transform="translate(-0.19 -0.33)"/><path class="cls-1" d="M1.16,1.47h0Z" transform="translate(-0.19 -0.33)"/><polygon class="cls-1" points="14.88 9.7 14.88 9.7 14.87 9.68 14.88 9.7"/><path class="cls-1" d="M10.08,6.54a.35.35,0,0,1,0-.06S10.08,6.51,10.08,6.54Z" transform="translate(-0.19 -0.33)"/><path class="cls-1" d="M8.85,5.69l0,0Z" transform="translate(-0.19 -0.33)"/><path class="cls-1" d="M10.8,6.78s0,0,0,0h0S10.81,6.82,10.8,6.78Z" transform="translate(-0.19 -0.33)"/><polygon class="cls-1" points="11.22 6.96 11.23 6.93 11.21 6.92 11.22 6.96"/><path class="cls-1" d="M23,18.17l-.12.06C23,18.2,23,18.33,23,18.17Z" transform="translate(-0.19 -0.33)"/><path class="cls-1" d="M1.12,1.52s0-.05,0-.05h0S1.12,1.5,1.12,1.52Z" transform="translate(-0.19 -0.33)"/><path class="cls-1" d="M11.5,5.92l.1.1Z" transform="translate(-0.19 -0.33)"/><path class="cls-1" d="M20.11,12.67h0Z" transform="translate(-0.19 -0.33)"/><path class="cls-1" d="M11.94,6.27a.2.2,0,0,0,0,.13l0,0Z" transform="translate(-0.19 -0.33)"/><path class="cls-1" d="M22.87,18.23Z" transform="translate(-0.19 -0.33)"/><path class="cls-1" d="M23.22,19.16c0-.14-.18-.07-.28-.1s.13-.07.23-.13c-.05-.1-.22-.18-.21-.25a.11.11,0,0,1,.08,0c-.15-.1,0-.31-.22-.42l.05,0-.26,0c0-.06-.12-.1,0-.13s.05,0,.09,0l-.06-.05c.17-.07.06.08.19.06-.06-.11-.22-.23-.19-.33s.09.21.22.07l-.05.15c.26-.14,0,.09.27,0,0-.21-.11-.21-.09-.41-.1,0-.14,0-.24,0-.21-.23.38-.29.12-.45s-.33,0-.25-.16h.19c0-.18-.29,0-.21-.25.08,0,.09.12.11.09s-.13-.06-.16-.15l.16-.07c-.08-.18-.27-.35-.37-.54.05,0,.11,0,.14-.06a1.83,1.83,0,0,1-.25-.84l-.17,0s0-.07.07-.06-.08,0-.16,0,0-.11.09-.1c-.19-.1-.49-.31-.46-.55h0c0-.16-.34,0-.3-.16h0c-.13-.3-.45-.49-.45-.81-.19.1-.13-.31-.37-.12,0-.23.06-.23,0-.49,0,0-.2.06-.28,0l.11-.11-.2,0,.09-.18-.09,0a.13.13,0,0,1,0,.13c-.14,0-.15-.28-.1-.34l-.3-.1c.05,0,.1,0,.15,0-.22,0,.09-.14-.12-.13,0,0-.06.06-.09.08s-.11-.22-.23-.27l.09-.06a4.27,4.27,0,0,0-.58-.41c0,.1-.09.23-.15.2l.07-.15c-.09.06,0,.1-.13.14s.07-.19.14-.2l-.12,0a.53.53,0,0,1,.11-.09c-.1.05-.06-.25-.21-.14l0,0c-.19-.14-.31-.16-.48-.27-.08.12-.13,0-.24.1-.09-.11-.16-.3-.3-.38s-.1.08-.19.12c.06-.11-.09-.2,0-.23a1.6,1.6,0,0,0-.5-.18c0,.06,0,.1,0,.12s-.06-.1,0-.15h0c-.34,0-.35-.68-.68-.58h0l-.27,0c-.08-.07.11,0,.08-.15-.33,0-.32-.25-.57-.25C15.6,9,15,9.07,15,8.75l0,.08c-.09,0,0-.08,0-.12s0,.1-.05.12c-.45-.19-.72-.67-1-1-.12-.12-.37.3-.4,0l.15-.08c-.4-.08-.53-.47-.91-.59.05,0,.08,0,.1,0,0-.14-.19-.19-.26-.12s.05-.08.06-.14-.25,0-.2-.13.05,0,.06,0-.16-.17-.22,0c-.06-.14-.24-.13-.27-.26-.15.07-.13-.22-.29-.06.15-.17-.08-.3-.22-.27.07,0,0-.11.06-.16-.08-.06-.19-.08-.24,0,0-.34-.44,0-.34-.38a7.54,7.54,0,0,1-.87-.2c.11-.2.27.12.37-.09-.27,0-.49.06-.69-.1,0,0,.08-.07.12-.09-.27,0-.43-.23-.69-.21,0,0,0,0,.07,0s-.08-.07-.11,0h.05c0,.16-.29.21-.33.28.19-.24-.16-.16.09-.45a.2.2,0,0,0-.11.1s0-.07,0-.13c-.16,0-.16.11-.28.05s0-.05.09-.1c-.11.06-.21.12-.3,0s0-.07.05,0c-.19-.07-.42.09-.58-.08.15-.17,0-.1,0-.27H7.72v.1c-.1,0-.24,0-.29,0l.1,0-.19,0,.07.11c-.14,0-.09.22-.19.12s-.1,0-.1-.17h0c-.07,0-.15.07-.2,0S7,4.06,7,4c-.11.12-.24-.06-.36.07A.7.7,0,0,0,6.75,4l-.1.1a.14.14,0,0,1,0-.15c-.13-.08-.06.24-.17.07,0,0,0,0,0,0-.14-.12-.34-.07-.46-.19,0-.19.15,0,.16-.15-.22-.06-.52,0-.71-.12l0,0c-.14.23-.1-.18-.25-.11,0,0,.09-.12.07-.1s-.31-.07-.55-.08l0-.06c-.06-.09-.2-.12-.28-.19s-.1,0-.11.12c-.11-.48-.6,0-.71-.45,0,0,.09,0,.07,0l-.23,0c0,.11,0,.07,0,.17a.16.16,0,0,1-.18.05c.12,0,.07-.17.06-.24a.93.93,0,0,0,0,.1c0-.24-.11.2-.21,0l0-.05c-.06,0-.15.06-.2,0s.08,0,.13-.13-.27.16-.29,0,.1,0,.15,0c0-.18,0-.15-.1-.19H3L2.86,2.2l0,0c-.24.28-.24,0-.47.12.22-.14.07-.1.14-.24S2.49,2,2.52,2s-.08-.14-.24,0c0-.05-.07,0,0-.14-.1,0,0,.09,0,.14-.2.1-.25-.32-.53-.19s-.29.16-.47.18.1-.15.1-.15a.19.19,0,0,0-.23-.1s0-.07,0-.13S1,1.73,1,1.62a.87.87,0,0,1,.13-.15C1,1.48.9,1.53.8,1.54s.09-.1.14-.14-.26,0-.33.09l0,.07s0-.11.06-.13.09.09.08.14H.72c0,.29.24,0,.35.11L1,1.86l.17-.11c0,.06,0,.17-.08.18s.1,0,.13.1,0,0,0,0l.1,0s0,.15-.07.1c.09.17.28-.06.27.11h0c.22,0,.07-.14.28-.24l0,.39.08-.14a.07.07,0,0,1,0,.1c.11-.07,0-.07.09-.14,0,.17.29,0,.23.28.07-.09-.06-.12.07-.15-.07.25.14,0,.18.15s-.14,0-.09.16c.14-.19.15.12.24.11.07-.17.19,0,.34,0,0,.05.19.19.28.29v0c.09-.16.2-.08.3-.08-.05.1-.08.14-.15.16l.09,0a.13.13,0,0,1,.14-.06l-.08.11c.11,0,.28,0,.39.1C3.86,3.24,3.83,3,4,3,4,3,4,3.14,3.9,3.15s.07,0,.08,0l-.11.08c0,.08.08-.07.12,0s0,.08,0,.15,0-.06-.06,0a.29.29,0,0,1,.09.2s0-.12.1-.11,0,.12,0,.2.09,0,.15-.09,0,.08,0,.12.27.1.27-.07v0h0c.24,0,.35.25.56.27l0,0c.14,0,.26.07.38,0a.15.15,0,0,1,0,.17c.1,0,.13,0,.22.08-.12,0,0,.08-.11,0,.09.09.08.17.25.1a.1.1,0,0,0,.08.17l0-.12A.28.28,0,0,1,6,4.37l-.09.14c.14.28.54-.14.57.24.1-.08-.09-.12,0-.23.09.07.1.34.13.35s.23-.16.35,0c0-.06,0-.22.18-.22s0,.28-.06.3a0,0,0,0,1,0,0S7,4.87,7,5l0,0c0,.08.17.13.09.21.1,0,.08-.08,0-.13.1.14.2.09.31.21,0,0,0-.12,0-.11.16.16.13-.06.27,0s-.11.18,0,.17,0,.15-.1.18c.17,0,.2.17.26.22l-.08,0a.18.18,0,0,1,.11,0V5.54s.06.06,0,.1.05-.19.18-.26c0,.08.18,0,.13.16-.14-.11-.05.16-.19.12,0,0,.06,0,.09,0l0,0c.09.19.14-.13.3-.06-.06.07,0,.17,0,.16s0-.15.11-.18.13,0,.18,0l0-.06c.06-.07.11,0,.19,0s-.09,0-.07.06c.14-.11.1.22.25.18s-.07.15,0,.21.07.17.24.14c0-.12,0-.1.13-.16L9.26,6l.21-.09c-.06,0-.16,0-.19,0s.08,0,.1-.14c0,.2.21,0,.26.15l-.14.26c.08.19.32,0,.47.16l0-.08c.08-.09.12,0,.2,0a.43.43,0,0,0,0,.21c0-.07.12.08.24-.08v.16c.11.13.31-.14.43,0-.11.06-.09.15-.22.16,0,0,.07.07.11,0s.2,0,.18.09.11-.1.16-.06l0,0s.11,0,.14-.11c-.06.34.38.28.31.58a2.59,2.59,0,0,1,.33.19s0,0,0,0c0,.17.26-.15.31,0s-.12,0-.12.08c-.21.25.18.11.14.33h0c0,.15.25.06.34.18a.07.07,0,0,0,0,0,.74.74,0,0,1,.5.09c-.11.07-.09,0-.15.13s.12-.17.24-.12,0,.18-.06.3l-.1-.07c-.07.17.13.09.15.16l-.05.05c.16.1.28-.05.43.08l0-.06c.21-.08,0,.14.18.1l-.1.17a1.8,1.8,0,0,1,.44,0,1.1,1.1,0,0,1-.43.05s.2.14.29.08-.1,0-.1,0a.38.38,0,0,1,.41,0c-.25.3.24.3.15.6.29,0,.37.33.63.47.08-.31.07,0,.23-.22.06,0,.08,0,.08,0l.07.27c0,.1-.1,0-.13.08s0,.14,0,.26c0-.1.13-.1.17,0l0-.18c.26,0,0,.31.27.29l-.11,0c.12,0,.33.22.55.07,0,0,0,.12-.08.12.19.16.61.08.69.32l-.06.05s.15-.07.15,0-.05.05,0,.07.18,0,.2,0l-.09,0c.15.22.43,0,.62.11a.36.36,0,0,0,0,.43l0,0c.21.18.49.13.75.21,0,.29.37.41.48.68,0-.06.11-.13.16-.11s.23,0,.09.13h0c-.09.18,0,.21.1.28l.19-.18c-.07.44.58.34.44.69.09,0,.14,0,.23,0l-.11.1a1.28,1.28,0,0,0,.29.34l-.1,0c.07.09.4-.16.48-.09l-.14.16c.13.16.11.43.37.47,0,0-.08,0-.1,0s.09.37.31.18c-.16.11.1.17.22.23l-.12.05c.19,0,.24,0,.35,0s-.09.08-.08,0c0,.12.16,0,.15.15h-.1c0,.09.08.06.2.07s.06.19-.05.26c.08,0,.2,0,.19.06a.08.08,0,0,1-.09,0c0,.2.25.17.17.34s-.06,0-.06.05a1.15,1.15,0,0,1-.08-.23c-.11.06-.09.16-.29.16.12,0,.38.09.36.21l0,0h0s0,0,0,.05a.18.18,0,0,0,0,.1c-.09.05,0,.13,0,.19s.13,0,.22-.07,0,0,0,0l0,0h0l-.06-.13c.08,0,.16,0,.1.13h.24c-.16.14-.22.31-.33.36.12.14.14.36.42.41,0,0-.06.07-.1.1s0-.06-.07-.06.07.27.26.26c-.06.14-.18,0-.12.12h-.06c-.25.34.53.49.16.89a.09.09,0,0,1,.07-.05c-.16.41.11.88-.14,1.34-.05.14.07.15.17.22l-.15,0,.19.12c.15.16-.32.42,0,.62l.08-.07c0,.1.18.25.08.29s.1,0,.08,0l-.07,0a1,1,0,0,0,.26.11c.11.17-.26.21,0,.43.14.05.41-.06.38-.12a.14.14,0,0,1,0-.16h.09a1.39,1.39,0,0,0,.19-.61.6.6,0,0,1-.13.09l.05-.1.05,0c0-.11,0,0-.09,0l.07-.1-.2.1c.07-.06.15-.09.17-.15S23.09,21,23,21s.15-.13,0-.12a.19.19,0,0,1,.12-.05c-.08,0-.07-.07-.19,0,.11-.08-.09-.15.13-.2-.05,0-.19,0-.21-.1.28.05,0-.18.28-.2-.25,0-.13-.24-.26-.37s.06,0,.05,0,.09-.1.13-.15c-.19,0-.24-.13-.35-.2.19-.09.22.06.41,0-.16,0-.16-.17-.29-.15.12-.07.06-.06.22-.09-.24,0,0-.07-.18-.14.12-.11.23,0,.16-.16C23.14,19,23.22,19.16,23.22,19.16Zm-.93-3h0l0,.05Zm-.1-.24a1,1,0,0,1,0,.1s-.09,0-.1,0S22.17,15.94,22.19,15.89Zm-.72.82s0,0,0-.06,0,0,0,.06h-.05Z" transform="translate(-0.19 -0.33)"/><path class="cls-1" d="M21.66,16.72s0,0,0,0l0,0h0Z" transform="translate(-0.19 -0.33)"/><path class="cls-1" d="M4.55,3.56h0v0Z" transform="translate(-0.19 -0.33)"/><polygon class="cls-1" points="20.17 12.48 20.14 12.51 20.18 12.51 20.17 12.48"/><path class="cls-1" d="M3.51,2.57v0S3.5,2.55,3.51,2.57Z" transform="translate(-0.19 -0.33)"/><path class="cls-1" d="M3,2.32l-.05-.08Z" transform="translate(-0.19 -0.33)"/><path class="cls-1" d="M2.58,2.08l0,0h0Z" transform="translate(-0.19 -0.33)"/><path class="cls-1" d="M9.21,4.82h0S9.25,4.81,9.21,4.82Z" transform="translate(-0.19 -0.33)"/><path class="cls-1" d="M7.13,4.25l.09,0S7.16,4.18,7.13,4.25Z" transform="translate(-0.19 -0.33)"/><polygon class="cls-1" points="11.29 5.58 11.29 5.58 11.3 5.59 11.29 5.58"/><path class="cls-1" d="M7.31,4.26s-.06,0-.09,0A.1.1,0,0,0,7.31,4.26Z" transform="translate(-0.19 -0.33)"/><path class="cls-1" d="M.77,1.28v0a0,0,0,0,0,0,0Z" transform="translate(-0.19 -0.33)"/><path class="cls-1" d="M.75,1.28h0S.74,1.3.75,1.28Z" transform="translate(-0.19 -0.33)"/><path class="cls-1" d="M.66,1.3H.72S.68,1.27.66,1.3Z" transform="translate(-0.19 -0.33)"/><path class="cls-1" d="M1.31,1.56l0,0S1.32,1.54,1.31,1.56Z" transform="translate(-0.19 -0.33)"/><path class="cls-1" d="M1.49,1.62s-.07-.14-.14-.14l0,0C1.39,1.46,1.42,1.68,1.49,1.62Z" transform="translate(-0.19 -0.33)"/><path class="cls-1" d="M2,2.49,1.83,2.4c0,.06,0,.14-.05.13C1.89,2.75,1.78,2.4,2,2.49Z" transform="translate(-0.19 -0.33)"/><path class="cls-1" d="M2.36,2.74c-.08,0,0,.08,0,.1S2.4,2.81,2.36,2.74Z" transform="translate(-0.19 -0.33)"/><path class="cls-1" d="M5.47,4.1l-.06.11C5.48,4.22,5.43,4.16,5.47,4.1Z" transform="translate(-0.19 -0.33)"/><polygon class="cls-1" points="6.14 3.43 6.12 3.33 6.05 3.42 6.14 3.43"/><polygon class="cls-1" points="6.12 4.41 6.09 4.42 6.21 4.42 6.12 4.41"/><path class="cls-1" d="M11.23,7.29l.09-.13C11.27,7.15,11.14,7.28,11.23,7.29Z" transform="translate(-0.19 -0.33)"/><path class="cls-1" d="M13.2,8.81c0,.08,0,.16.08.13S13.23,8.81,13.2,8.81Z" transform="translate(-0.19 -0.33)"/><polygon class="cls-1" points="18.82 12.95 18.75 12.96 18.85 12.99 18.82 12.95"/><path class="cls-1" d="M45.76.56s0-.13-.06-.1V.63Z" transform="translate(-0.19 -0.33)"/><path class="cls-1" d="M45.39.35a.47.47,0,0,0,0,.38c0-.16,0-.1,0-.3,0,0,.1,0,.1.09s.08,0,.08-.09-.17-.09-.21,0A.15.15,0,0,1,45.39.35Z" transform="translate(-0.19 -0.33)"/><path class="cls-1" d="M41.28,2.24h0Z" transform="translate(-0.19 -0.33)"/><path class="cls-1" d="M39,3.88a0,0,0,0,0,0,0A0,0,0,0,0,39,3.88Z" transform="translate(-0.19 -0.33)"/><path class="cls-1" d="M38.51,4h0S38.51,4,38.51,4Z" transform="translate(-0.19 -0.33)"/><path class="cls-1" d="M41.28,2.24h-.09S41.24,2.25,41.28,2.24Z" transform="translate(-0.19 -0.33)"/><path class="cls-1" d="M44.94.92a.08.08,0,0,0,0-.05l0,0Z" transform="translate(-0.19 -0.33)"/><path class="cls-1" d="M42.24,1.43v0l0-.06Z" transform="translate(-0.19 -0.33)"/><path class="cls-1" d="M43.05.91s0,.13.07.19,0-.09,0-.11A.33.33,0,0,0,43.05.91Z" transform="translate(-0.19 -0.33)"/><path class="cls-1" d="M44.54.47l0,0Z" transform="translate(-0.19 -0.33)"/><path class="cls-1" d="M41.64,1.78l0,0Z" transform="translate(-0.19 -0.33)"/><path class="cls-1" d="M24.9,21l0,0S24.89,21,24.9,21Z" transform="translate(-0.19 -0.33)"/><polygon class="cls-1" points="23.28 20.9 23.29 20.89 23.29 20.81 23.28 20.9"/><path class="cls-1" d="M37.72,4.43h0S37.72,4.41,37.72,4.43Z" transform="translate(-0.19 -0.33)"/><path class="cls-1" d="M31.5,9.51c.15,0,0,.21.18.24C31.64,9.71,31.64,9.5,31.5,9.51Z" transform="translate(-0.19 -0.33)"/><path class="cls-1" d="M44.91.92h0Z" transform="translate(-0.19 -0.33)"/><polygon class="cls-1" points="31.49 9.41 31.49 9.41 31.51 9.42 31.49 9.41"/><path class="cls-1" d="M36.19,5.74l.05,0Z" transform="translate(-0.19 -0.33)"/><path class="cls-1" d="M37.49,5h0Z" transform="translate(-0.19 -0.33)"/><path class="cls-1" d="M35.7,6.37s0,0-.05,0h0S35.67,6.37,35.7,6.37Z" transform="translate(-0.19 -0.33)"/><polygon class="cls-1" points="34.87 6.54 34.9 6.56 34.91 6.54 34.87 6.54"/><path class="cls-1" d="M25.54,18.4l-.13,0C25.51,18.42,25.52,18.54,25.54,18.4Z" transform="translate(-0.19 -0.33)"/><path class="cls-1" d="M44.91.85s0,.05,0,.07l0,0A.08.08,0,0,0,44.91.85Z" transform="translate(-0.19 -0.33)"/><path class="cls-1" d="M36.36,7.27l-.12.06A.67.67,0,0,0,36.36,7.27Z" transform="translate(-0.19 -0.33)"/><path class="cls-1" d="M28,13.85l0,0S28,13.86,28,13.85Z" transform="translate(-0.19 -0.33)"/><path class="cls-1" d="M36,7.58l-.12,0a.08.08,0,0,0,0,0Z" transform="translate(-0.19 -0.33)"/><path class="cls-1" d="M25.4,18.42h0Z" transform="translate(-0.19 -0.33)"/><path class="cls-1" d="M25.58,19.31c0-.12-.16-.09-.26-.13s.14-.05.24-.08-.18-.2-.16-.26,0,0,.07,0,.05-.29-.11-.43c0,0,0,0,0,0a1.71,1.71,0,0,1-.25,0c0-.06-.1-.12,0-.12s0,0,.07.06l0-.06c.18,0,0,.09.17.11,0-.12-.15-.28-.09-.35s0,.21.19.12l-.09.12c.28-.05,0,.08.27,0,.08-.16-.05-.2,0-.37-.09-.05-.14,0-.23-.07-.12-.27.45-.11.26-.33s-.31-.12-.17-.23l.18.08c.05-.17-.26-.15-.1-.3.07,0,0,.14.07.12s-.09-.1-.08-.18h.17c0-.18-.08-.39-.06-.57,0,0,.09.06.15,0a.66.66,0,0,1,.33-.57l-.1-.13a.09.09,0,0,1,.09,0c.09,0-.08,0-.11-.1s.1,0,.13,0c0-.17,0-.49.22-.52l0,.06c.12-.06-.14-.31,0-.31v0c.23-.16.37-.48.68-.46-.11-.19.28-.13.1-.35.23,0,.23.07.48,0,.06,0-.05-.2,0-.27l.1.11,0-.19L28,14l0-.07a.14.14,0,0,1-.12-.05c.05-.13.29-.1.35,0l.12-.27c0,.05,0,.09,0,.15,0-.21.12.1.13-.09,0,0-.05-.08-.07-.1s.23-.07.29-.17l.05.09c.18-.11.3-.31.48-.45-.1,0-.2-.14-.16-.19l.12.1c0-.1-.09,0-.1-.15s.16.11.16.18l0-.11s0,.07.07.12c0-.11.25,0,.18-.16l0,0c.18-.14.22-.25.36-.37-.09-.11,0-.14,0-.26a1.26,1.26,0,0,0,.44-.17c0-.13-.05-.12-.06-.21.08.09.2,0,.2.1a1.34,1.34,0,0,0,.3-.42s-.09,0-.11-.06.12,0,.15,0h0c.09-.32.74-.12.74-.47v0l.09-.25c.09-.05,0,.11.12.13.06-.33.32-.23.39-.47.36.19.42-.38.73-.33L32.86,10c0-.1.08,0,.13,0s-.1,0-.1-.08c.29-.39.82-.52,1.25-.76.15-.09-.21-.42.1-.39l0,.17c.16-.38.58-.45.75-.79,0,0,0,.08,0,.1.13,0,.21-.17.15-.24s.07.06.13.08.05-.24.15-.17,0,0,0,.06.19-.13.07-.21c.14,0,.16-.2.29-.2,0-.16.22-.08.1-.27.14.19.3,0,.3-.13,0,.07.1,0,.13.11.07-.06.11-.15,0-.23.3.1.14-.39.43-.18a4.86,4.86,0,0,1,.46-.69c.14.18-.2.19,0,.37.13-.22.12-.46.34-.56s0,.1,0,.14c.13-.22.38-.27.47-.5a.11.11,0,0,1,0,.08s.1,0,0-.11v0c-.15-.07-.06-.34-.11-.41.13.27.22-.07.36.29a.17.17,0,0,0,0-.14s.07,0,.09.1c.08-.14,0-.19.08-.27s0,.07,0,.12c0-.12,0-.24.1-.27s0,0,0,.07c.15-.14.11-.41.34-.47.08.2.1,0,.22.15l.06-.12-.09,0c.08-.06.07-.23.17-.23v.11l.13-.15h-.13c0-.14-.15-.18,0-.22,0,0,.08-.06.19,0h0c0-.08,0-.16.09-.17a2.08,2.08,0,0,1,.15.2c-.06-.16.16-.18.11-.35A.32.32,0,0,0,40,4l0-.13A.14.14,0,0,1,40,3.9c.12-.07-.18-.15,0-.18,0,0,0,0,0,.06.16-.06.2-.26.36-.31.16.12-.07.12.06.21.16-.16.23-.46.43-.55h0c-.14-.23.2,0,.22-.15,0,0,.06.13,0,.11.15-.06.21-.24.34-.44l0,.08c.1,0,.2-.11.3-.14s0-.09,0-.15c.45.15.33-.49.73-.36,0,0,0,.09,0,.08L42.61,2c-.08-.08-.06,0-.15-.09a.18.18,0,0,1,.06-.18c-.05.12.1.15.17.19a.53.53,0,0,1-.06-.1c.21.12-.11-.2.1-.17l0,.06c0-.06,0-.16.11-.18s0,.09,0,.19c.07-.06,0-.31.16-.24,0,.05-.06.08-.08.13.16.09.15.06.21,0h0l.16,0-.05,0c-.08-.35.16-.16.18-.43,0,.26,0,.12.1.26s.13,0,.13.08c0-.14.15,0,.15-.17,0,0,.07,0,.11.09.06-.08-.06-.07-.08-.13s.38,0,.47-.25.08-.32.2-.45c.08.05,0,.18,0,.18A.17.17,0,0,0,44.8.69c0,.05,0,.08.07.12s0-.19.09-.15a1.47,1.47,0,0,1,0,.21c.06-.07.1-.18.16-.25s0,.14,0,.2.19-.15.18-.28l-.07,0s.05.11,0,.14-.12,0-.15-.06l0,0C45,.29,45,.66,44.84.69l0-.21-.05.2s-.1-.14-.06-.19c-.11-.07,0,.09-.15,0a0,0,0,0,1,0,0l0,.09c0-.05-.07-.13,0-.12-.19-.06-.17.23-.28.11v0c-.17.15,0,.15,0,.38l-.25-.3,0,.15a.07.07,0,0,1-.08-.05c0,.13,0,.05,0,.16-.15-.08-.22.19-.35,0,0,.12.12,0,.06.16-.15-.22-.09.1-.23,0s.08-.11-.06-.17c0,.23-.19,0-.24.12s-.11.15-.2.27c0-.06-.27,0-.41.05v0c.07.17-.06.2-.11.28-.06-.09-.07-.14-.05-.2l-.08,0a.16.16,0,0,1,0,.15l-.06-.12c-.09.07-.11.26-.29.27.07.11.3.23.22.39C42.05,2,42,2,42,1.9S42,2,42,2V1.84c-.08,0,0,.1,0,.12s-.08,0-.11-.11.06,0,0,0a.26.26,0,0,1-.22,0c0,.05.08.11,0,.15s-.1-.08-.19-.08-.08.06,0,.18-.07,0-.11-.06-.22.18-.07.27h0c-.07.23-.38.17-.5.34l0,0c-.06.12-.19.19-.2.32s-.11,0-.14-.08,0,.14-.17.15c0-.12-.07,0,0-.11-.12,0-.19,0-.2.18a.1.1,0,0,0-.19,0l.12,0a.33.33,0,0,1-.14.1L39.85,3c-.32,0-.13.54-.48.38,0,.13.15,0,.19.13s-.33-.07-.36,0c-.18,0,0,.28-.12.33a.23.23,0,0,1,.11.26c-.1.05-.26-.11-.24-.19s0,0,0,0,0-.09,0-.11l0,0c-.08,0-.19.09-.23,0,0,.09,0,.1.1.08-.16,0-.17.14-.32.18,0,0,.1.05.08.07-.21.07,0,.14-.1.25s-.11-.19-.18,0-.11-.11-.11-.17c0,.17-.24.09-.31.12l0-.08a.16.16,0,0,1-.06.09l.1.07s-.07,0-.1,0,.15.14.15.27-.09.15-.21,0c.17-.06-.11-.11,0-.22a.1.1,0,0,1-.08.06,0,0,0,0,1,0,0c-.22,0,.05.18-.09.28,0-.08-.13-.1-.14-.07s.11.09.11.19-.06.11-.11.14l.07,0c0,.09,0,.11-.06.18s0-.08,0-.09c0,.18-.25,0-.28.15-.07,0-.1-.13-.17-.13,0,.17-.18,0-.23.15s.09,0,.09.19L37,5.19v.23s.06-.15.11-.16,0,.1.08.15c-.19-.08-.08.2-.24.17l-.18-.23c-.21,0-.13.29-.35.36h.09c0,.11-.09.1-.12.18,0-.09-.11-.09-.17-.12s-.12.09,0,.26l-.15,0c-.17.07,0,.35-.13.42,0-.11-.13-.12-.09-.25,0,0-.09,0-.05.1s0,.2-.13.16.06.13,0,.16a.08.08,0,0,1,0,0s0,.12.07.17c-.32-.14-.35.31-.63.19a1.68,1.68,0,0,1-.24.28s0,0,0,0c-.18,0,.1.28-.1.3s0-.12-.06-.13c-.22-.24-.13.16-.34.08v0c-.14,0-.09.22-.22.29l0,0a.65.65,0,0,1-.16.46c0-.12,0-.09-.09-.17s.14.15.07.25-.19,0-.28-.12L33.73,8c-.16-.1-.12.1-.18.11l0-.06c-.12.13,0,.28-.16.39l0,0c0,.22-.13,0-.12.15l-.15-.13a1.66,1.66,0,0,1-.14.41,1.25,1.25,0,0,1,0-.44c-.05,0-.17.16-.13.26s0-.09,0-.09a.37.37,0,0,1-.11.39c-.22-.31-.33.15-.6,0-.09.27-.4.26-.61.45.27.17-.05.06.15.29,0,.06-.06.07-.07.06l-.27,0c-.1,0,0-.09-.05-.14s-.12-.06-.25-.07c.09.08.06.16,0,.18l.18,0c-.05.26-.3-.09-.35.17V9.78c0,.11-.3.24-.22.5,0,0-.11-.07-.09-.11-.21.13-.25.55-.5.55l0-.07s0,.16-.07.14,0-.07-.05-.06,0,.18-.09.19v-.1c-.25.08-.15.39-.28.56a.35.35,0,0,0-.43-.07l0,0c-.23.16-.25.44-.39.67-.28-.07-.49.28-.78.34.06,0,.11.13.09.18s0,.22-.16.06h0c-.16-.12-.22,0-.3.06l.16.21c-.45-.13-.42.53-.76.36,0,.09-.06.14-.07.22l-.09-.1a.93.93,0,0,0-.37.28l0-.1c-.09.07.16.4.09.48l-.17-.13c-.15.15-.45.17-.46.47,0,0-.06-.07-.05-.1s-.39.22-.14.37c-.14-.12-.17.18-.17.33l-.1-.1c.08.19.12.22.08.37s-.11,0-.05-.06c-.12.06.06.14-.07.23l-.05-.09c-.07.1,0,.11,0,.22s-.13.18-.25.15c.06.05.13.14.07.19a.11.11,0,0,1-.07-.06c-.16.16.06.33-.11.41h-.09a2.1,2.1,0,0,1,.1-.25c-.12,0-.18.08-.32-.08.06.14.21.36.13.46h-.05v0a.08.08,0,0,0,0,.08.35.35,0,0,0-.06.09c-.11,0-.08.13-.1.19.14,0,.1.09.23,0s0,0,0,0a0,0,0,0,1,0,0h0l0-.15c.06.06.11.12,0,.17l.21.12c-.21,0-.34.18-.47.18.05.19,0,.41.22.57,0,.05-.08,0-.13.05s0-.06,0-.09,0,.3.15.35c-.1.11-.16-.09-.16.08l-.05,0c-.35.28.37.62-.07.92,0,0,0,0,.07,0-.24.39,0,.92-.36,1.22-.08.08,0,.13.09.22l-.15,0,.11.17c.05.22-.44.07-.34.34l.1,0c-.06.05-.11.21-.18.11s.06.1,0,.07l-.05-.06a.73.73,0,0,1,0,.2c-.13,0-.13-.27-.24-.25a.79.79,0,0,0-.08.3s.07,0,.09.12l-.07,0c0,.23-.08.49.24.6.06-.06.11-.13.16-.19l.1.08-.17.07c.13.07.17,0,.2-.13a.17.17,0,0,0,.14.07,1.47,1.47,0,0,0,.05-.29c.07.06,0,.2.17.16s-.19-.11-.12-.25c.13,0,.17.1.19,0a.1.1,0,0,1,0,.12c0-.11.15-.2.08-.31.16,0,.13-.25.31-.13a.52.52,0,0,1-.06-.28c.18.24.13-.23.37-.09-.18-.18,0-.37-.05-.56,0,0,0,0,0,.05s.12-.09.17-.14c-.18-.06-.19-.2-.3-.3.21-.06.22.11.4.12-.16,0-.12-.22-.26-.21.13-.06.07-.06.24-.07-.24-.05,0-.07-.17-.16.14-.09.24,0,.18-.12S25.58,19.31,25.58,19.31Zm.1-2.87h0v0Zm.06-.21,0,.09c-.05,0-.1,0-.09-.05S25.69,16.25,25.74,16.23Zm-1.07.26s0,0,0,0v.07h0Z" transform="translate(-0.19 -0.33)"/><path class="cls-1" d="M24.84,16.6v0l0,0,0,0Z" transform="translate(-0.19 -0.33)"/><path class="cls-1" d="M41.32,2.24h0Z" transform="translate(-0.19 -0.33)"/><polygon class="cls-1" points="27.68 13.74 27.66 13.71 27.66 13.75 27.68 13.74"/><path class="cls-1" d="M42.69,1.9s0,0,0,0Z" transform="translate(-0.19 -0.33)"/><path class="cls-1" d="M43.18,1.64h.1A.16.16,0,0,0,43.18,1.64Z" transform="translate(-0.19 -0.33)"/><path class="cls-1" d="M43.59,1.49l0-.06h0Z" transform="translate(-0.19 -0.33)"/><path class="cls-1" d="M38.09,5.69h0S38.08,5.72,38.09,5.69Z" transform="translate(-0.19 -0.33)"/><path class="cls-1" d="M39.53,4.14s0,.07,0,.1S39.58,4.21,39.53,4.14Z" transform="translate(-0.19 -0.33)"/><path class="cls-1" d="M36.37,7.26Z" transform="translate(-0.19 -0.33)"/><path class="cls-1" d="M39.44,4.29a.09.09,0,0,0,.08,0S39.45,4.26,39.44,4.29Z" transform="translate(-0.19 -0.33)"/><polygon class="cls-1" points="45.11 0.48 45.13 0.48 45.12 0.46 45.11 0.48"/><path class="cls-1" d="M45.31.79l0,0S45.31.77,45.31.79Z" transform="translate(-0.19 -0.33)"/><path class="cls-1" d="M45.36.72l0,.05S45.37.76,45.36.72Z" transform="translate(-0.19 -0.33)"/><path class="cls-1" d="M44.75.94V1A.13.13,0,0,0,44.75.94Z" transform="translate(-0.19 -0.33)"/><path class="cls-1" d="M44.6,1s.13.06.17,0V1C44.77,1.07,44.6.92,44.6,1Z" transform="translate(-0.19 -0.33)"/><path class="cls-1" d="M43.67.75l.15,0s-.11-.09,0-.13C43.53.53,43.86.68,43.67.75Z" transform="translate(-0.19 -0.33)"/><path class="cls-1" d="M43.22.9c.06-.06,0-.07,0-.1S43.14.89,43.22.9Z" transform="translate(-0.19 -0.33)"/><path class="cls-1" d="M40.41,2.77l-.07-.1C40.31,2.72,40.37,2.71,40.41,2.77Z" transform="translate(-0.19 -0.33)"/><polygon class="cls-1" points="40.13 3.35 40.22 3.38 40.17 3.27 40.13 3.35"/><polygon class="cls-1" points="39.27 2.87 39.28 2.84 39.23 2.94 39.27 2.87"/><path class="cls-1" d="M35.1,6.69l.11.11S35.12,6.61,35.1,6.69Z" transform="translate(-0.19 -0.33)"/><path class="cls-1" d="M33.3,8.31c-.07-.05-.15-.05-.13,0S33.29,8.34,33.3,8.31Z" transform="translate(-0.19 -0.33)"/><polygon class="cls-1" points="27.34 12.38 27.34 12.31 27.3 12.4 27.34 12.38"/><path class="cls-1" d="M25,20.47s-.11-.09-.1-.07l.13.1Z" transform="translate(-0.19 -0.33)"/><path class="cls-1" d="M24.74,20.3a2.74,2.74,0,0,0,.28.24l-.21-.18s.05,0,.1.06,0,0-.05-.05-.11-.07,0,0Z" transform="translate(-0.19 -0.33)"/><path class="cls-1" d="M24.24,20.51h0Z" transform="translate(-0.19 -0.33)"/><path class="cls-1" d="M24,20.69l0,0Z" transform="translate(-0.19 -0.33)"/><path class="cls-1" d="M23.81,20.61h0Z" transform="translate(-0.19 -0.33)"/><path class="cls-1" d="M24.24,20.51l0,0S24.22,20.51,24.24,20.51Z" transform="translate(-0.19 -0.33)"/><path class="cls-1" d="M25,20.6l0,0v0Z" transform="translate(-0.19 -0.33)"/><path class="cls-1" d="M24.21,20.33h0l-.06,0Z" transform="translate(-0.19 -0.33)"/><path class="cls-1" d="M24.26,20.23l.15.13-.07-.06Z" transform="translate(-0.19 -0.33)"/><path class="cls-1" d="M24.55,20.26h0Z" transform="translate(-0.19 -0.33)"/><path class="cls-1" d="M24.15,20.37l0,0Z" transform="translate(-0.19 -0.33)"/><path class="cls-1" d="M22.21,21h0Z" transform="translate(-0.19 -0.33)"/><polygon class="cls-1" points="22.63 20.27 22.63 20.26 22.7 20.23 22.63 20.27"/><path class="cls-1" d="M23.66,20.5h0S23.66,20.49,23.66,20.5Z" transform="translate(-0.19 -0.33)"/><path class="cls-1" d="M23.58,20.76v0Z" transform="translate(-0.19 -0.33)"/><path class="cls-1" d="M25,20.59h0S25,20.6,25,20.59Z" transform="translate(-0.19 -0.33)"/><polygon class="cls-1" points="23.39 20.89 23.39 20.89 23.4 20.91 23.39 20.89"/><path class="cls-1" d="M23.69,20.61l0,.05Z" transform="translate(-0.19 -0.33)"/><path class="cls-1" d="M23.85,20.73h0Z" transform="translate(-0.19 -0.33)"/><path class="cls-1" d="M23.77,20.83h0Z" transform="translate(-0.19 -0.33)"/><polygon class="cls-1" points="23.55 20.53 23.56 20.56 23.56 20.55 23.55 20.53"/><path class="cls-1" d="M22.37,21.4l.11-.1C22.39,21.37,22.36,21.38,22.37,21.4Z" transform="translate(-0.19 -0.33)"/><path class="cls-1" d="M25,20.55l0,0h0Z" transform="translate(-0.19 -0.33)"/><path class="cls-1" d="M24.28,22h0Z" transform="translate(-0.19 -0.33)"/><path class="cls-1" d="M22.84,22.1h0S22.84,22.12,22.84,22.1Z" transform="translate(-0.19 -0.33)"/><path class="cls-1" d="M24.22,22l0-.09v0Z" transform="translate(-0.19 -0.33)"/><path class="cls-1" d="M22.48,21.3Z" transform="translate(-0.19 -0.33)"/><path class="cls-1" d="M22.15,21.36s.16-.09.26-.15-.12.09-.2.16.2-.11.2-.09l-.07,0c.13-.08,0,.05.18-.07l0,0,.22-.18s.11-.07,0,0,0,0-.07.05l.05,0c-.15.13-.06,0-.17.12,0,0,.18-.11.14-.06s0,0-.18.14l.05-.07c-.23.21,0,0-.23.2,0,.07.08,0,.05,0l.2-.18c.15-.1-.34.36-.15.21s.27-.25.19-.14l-.16.15s.23-.21.13-.08-.05,0-.07.05.09-.07.09-.06l-.13.14s.14-.07.17-.07a1.5,1.5,0,0,0-.11.13c.08,0,0,.09,0,.21l.11-.12-.06.09c0,.06.06-.09.1-.13l-.08.12c.09-.09.2-.19.12,0l0,0c0,.07.19-.26.12-.12l0,0c0,.09.09,0,0,.23.11-.19,0,.12.12-.16a2.22,2.22,0,0,0-.1.32s.1-.17.12-.19l-.07.15.08-.15-.07.19,0,0,.05-.11c0-.06,0,.13-.05.2l.09-.1-.06.11c.08-.14-.06.16,0,0l.05-.11c0,.09,0,.1,0,.07l0,.1c0,.05.08,0,.11,0a1,1,0,0,1,.07-.24l0,.16A.76.76,0,0,1,23.1,22a1.83,1.83,0,0,1-.07.23l0-.05,0,.13c0-.09,0,.17,0,0l0,0s.07,0,.1,0a1,1,0,0,1,.07-.22c0,.05,0,.17,0,.16a1.17,1.17,0,0,0,.05-.2c0,.13,0,.12,0,.21s0,0,.09-.12a.41.41,0,0,1,0-.12s0,.05,0,.11v0c.05-.2.06.37.11.09v0l0-.15a1.53,1.53,0,0,1,0,.18c0-.23.06,0,.09-.13,0,.39.07-.06.1.19v-.09c0-.1,0,.05,0,.07a.93.93,0,0,1,0-.14c.05-.14.13.09.22.15s-.08-.53,0-.31l0,.2c0-.26.1-.06.09-.29l0,.11c.05.12,0,0,0-.14a1.51,1.51,0,0,1,.06.15c0,.07,0-.19,0-.06l0,.05c0-.06,0,0,0-.15.05.05,0-.1.06,0-.06-.18,0,0,0-.19.1.24.11.16.07,0,0,.07,0,.06.08.16s0-.07-.05-.18c.15.24-.07-.26.11.06,0-.16,0-.27-.05-.35.13.2,0,.06.12.27,0-.12-.12-.3-.07-.29a.41.41,0,0,1,.08.13c0-.11.07-.05,0-.18s0,0,0,.05,0,0,0-.06v0c-.1-.1-.19-.26-.24-.31.19.23.07,0,.31.32a.53.53,0,0,0-.09-.11.43.43,0,0,1,.1.1c0-.06-.11-.13-.09-.15l.08.1c-.06-.08-.12-.16-.08-.14l.05.05s-.16-.21-.07-.18.06,0,.21.16a.1.1,0,0,0,0-.05l-.07-.05s-.09-.1,0-.07l.06.05,0,0-.06,0c-.07-.07-.18-.15-.14-.13l.1.06h0s-.09-.08,0-.06l.19.15c-.12-.1,0,0-.15-.15l.13.1-.1-.08.11.08s-.19-.15-.1-.1l0,0c.05,0,0-.08,0-.05s0,0,.15.13-.14-.18-.09-.17h0c-.21-.17.11.07,0,0l.09.08s0-.07-.08-.14l.05.05c.05,0,0,0,.07,0l-.12-.1c.33.22-.12-.18.15,0l0,0,0-.05-.13-.1a.34.34,0,0,1-.09-.09,2.33,2.33,0,0,0,.2.16l-.08-.07c.16.12-.18-.15-.07-.08l.05,0s-.08-.08-.06-.07l.13.11s-.19-.17-.08-.09l.05.05c.13.1.1.07.12.08h0l.07,0,0,0c-.26-.23,0-.06-.2-.22a2.08,2.08,0,0,0,.21.18l.11.07c-.09-.08.08.05-.05-.07l.1.08s-.07,0-.11-.09.18.1,0-.06l-.24-.25.14.12c.06,0,0,0,0,0l.1.08s-.13-.11-.07-.08l.15.13-.13-.13a.94.94,0,0,1,.14.12.47.47,0,0,0-.15-.15l0,0,.11.09c.08.07,0,0-.08,0l0,0c-.23-.18,0,0,0,0l-.16-.13.13.12a1.26,1.26,0,0,1-.16-.13c-.09-.06.05.05,0,0l0,0,0,0-.09-.08c-.1-.06.11.12,0,0h0a2.42,2.42,0,0,0,.25.22l-.3-.23.12.1s0,0-.07,0l.13.1c-.12-.08,0,.07-.16-.08.09.07.08,0,.13.1-.2-.16,0,0-.07,0l-.14-.11c.17.15-.05,0,0,0s0,.06.08.11a.71.71,0,0,0-.15-.08l0,0c.15.12.11.11.13.14l-.15-.13h0a.43.43,0,0,1,.07.07l-.1-.08s.11.12,0,.07c.1.08.28.22.34.28a1.41,1.41,0,0,1-.17-.14s.05,0,0,0l-.09-.08.07.06-.12-.09h0l-.12-.08.11.09s-.1-.07-.14-.1,0,0,.1.1l-.09-.06c.05,0,0,0,.13.13h0c.1.1-.09,0-.06,0l0,0c0,.05,0,0,.08.12l-.12-.09s.07.07,0,0-.06-.05,0-.05-.1-.07,0,0c-.09-.08-.13-.09-.1-.07l.08,0s0,0,0,0l-.13-.11c-.17-.11.24.25,0,.05.08.08.07,0,.17.13a2.11,2.11,0,0,1-.22-.14c-.08,0,.18.17.12.14a.91.91,0,0,1,.21.18l-.23-.18h0l-.08-.07.05,0a.38.38,0,0,1-.13-.08.35.35,0,0,0,.1.08c-.08-.05,0,0-.07,0l.08.07c-.06,0,.08.07.1.1s-.16-.15-.11-.09l-.16-.14c.09.08-.06,0-.07-.06l0,0s0,0,0,0l.09.08-.05,0,.21.22s0,.06-.07-.06-.11-.11-.12-.14,0,0,0,0l0,0c-.09-.1.13.13.12.14l-.1-.11.14.16c-.05-.05,0,0,0,0l0,0c.06.07.05.07.06.09l-.05-.06c.1.13-.11-.12,0,0l-.13-.17c.06.1-.08-.1,0,0l.13.18,0-.08.1.15s0-.07,0,0a1.21,1.21,0,0,0,.1.14c-.12-.15,0,.1,0,0l-.17-.25c-.08-.11.08.14,0,.08l0,.05c.07.1,0,0,0,.06l-.11-.18.1.19-.07-.12c0-.05.13.28.11.26l-.12-.26s0,0,0,.06.06.14,0,0a.87.87,0,0,1,.06.15l0-.05.07.18c-.14-.31,0,.06-.13-.22a.58.58,0,0,1,0,.1s0-.06,0,0,.1.33.06.23a1,1,0,0,1,0-.18c-.12-.37,0,.07-.06-.15v0c0-.13,0,.16,0,.14v-.06a1.81,1.81,0,0,1,.05.35L23.7,21s.06.26.06.32L23.69,21h0c-.05-.23,0,0,0,0l0-.1s0,.3,0,.29v.08c0,.27,0-.14,0,.06l0-.27c0,.07,0,.28,0,.34l-.05-.44s0,0,0,.16c0,0,0-.09,0-.05a1,1,0,0,1,0,.33c-.05-.54,0-.12-.06-.54,0,.21,0-.08,0,0v.48h0v-.81c0,.17,0,.25,0,.18v.22c0,.26,0-.4,0-.14v-.16l0,.39,0-.22c0-.06-.06.42,0,.18l0-.12s0,.23,0,.11l0-.13a1.29,1.29,0,0,1,0,.14l0-.14c0-.16-.06.33-.09.41l.1-.52v-.05s-.08.28-.13.41c.1-.37,0-.17.09-.37l-.1.29c0-.07-.09.22,0-.08h0c.11-.3.08-.22.08-.23l-.15.38c.22-.55-.11.18.1-.31l-.09.18.1-.19c0-.06,0-.08,0,0l.07-.13-.29.53.15-.27s.13-.24,0,0l.08-.12s.1-.17-.12.17c.15-.22,0,0-.05.06l.11-.16-.22.3a.49.49,0,0,1,.06-.09c.05-.08-.1.14,0,.05l.07-.09-.11.14c0,.06,0,0,.12-.18l-.11.14.07-.09c.07-.11-.13.14,0,0l.06-.08a0,0,0,0,1,0,0l.26-.33-.2.24,0,0h0l0,0,0,0c.09-.1.05-.06.05-.07l-.19.22s0,0,0,0h0c-.06.06-.11.11-.05,0L23,21l.34-.39-.26.23.09-.09.05-.05-.18.15.12-.11.05-.05c.12-.11,0,0-.07,0s-.18.12,0,0l-.05,0c.14-.12-.16,0,.07-.14.05,0-.06,0-.14.05l.14-.06-.16.06c-.13,0,.33-.16.1-.09l-.09,0s-.07,0,0,0H23l.07,0-.13,0s.29-.12.28-.16a1.3,1.3,0,0,0-.27.1.34.34,0,0,1-.1.06h-.05l-.56.29.13-.05-.1.05h0l0,0-.11.05.2-.08-.21.09.25-.11c-.09.05-.17.08-.09.05l-.12,0,.15,0c-.12.06,0,0-.16.1l.17,0c-.24.09,0,0-.27.16.23-.08.11,0,.24,0h0a.63.63,0,0,1-.12.1,2.09,2.09,0,0,1,.34-.15c-.17.12-.22.11-.38.21.14-.08.15-.05.27-.13l-.2.14c.23-.13,0,0,.18-.08-.11.09-.21.14-.13.12A.74.74,0,0,1,22.15,21.36Zm.5.15Zm0,0h0c0-.05.07-.09.07-.08Zm.75-.93,0,0h0l0,0Z" transform="translate(-0.19 -0.33)"/><path class="cls-1" d="M23.26,20.77h0l0,0,0,0Z" transform="translate(-0.19 -0.33)"/><path class="cls-1" d="M24.26,20.53h0l0,0Z" transform="translate(-0.19 -0.33)"/><polygon class="cls-1" points="22.59 21.81 22.61 21.78 22.59 21.81 22.59 21.81"/><path class="cls-1" d="M24.72,20.72l0,0Z" transform="translate(-0.19 -0.33)"/><path class="cls-1" d="M24.78,20.69l0,0Z" transform="translate(-0.19 -0.33)"/><path class="cls-1" d="M24.87,20.7l-.05,0h0Z" transform="translate(-0.19 -0.33)"/><path class="cls-1" d="M24.46,21.46h0S24.48,21.49,24.46,21.46Z" transform="translate(-0.19 -0.33)"/><path class="cls-1" d="M24.41,21l.05.05S24.48,21.05,24.41,21Z" transform="translate(-0.19 -0.33)"/><polygon class="cls-1" points="24.09 21.63 24.09 21.62 24.09 21.63 24.09 21.63"/><path class="cls-1" d="M24.45,21.06s0,0,0,0S24.44,21,24.45,21.06Z" transform="translate(-0.19 -0.33)"/><polygon class="cls-1" points="24.85 20.25 24.86 20.25 24.84 20.23 24.85 20.25"/><path class="cls-1" d="M25,20.57v0Z" transform="translate(-0.19 -0.33)"/><path class="cls-1" d="M25,20.53l0,0S25,20.55,25,20.53Z" transform="translate(-0.19 -0.33)"/><path class="cls-1" d="M25,20.59l0,0Z" transform="translate(-0.19 -0.33)"/><path class="cls-1" d="M25,20.61s.1.06.08,0l0,0C25.05,20.67,24.89,20.55,25,20.61Z" transform="translate(-0.19 -0.33)"/><path class="cls-1" d="M24.41,20.28h.05c-.05,0-.11-.07-.11-.09S24.44,20.27,24.41,20.28Z" transform="translate(-0.19 -0.33)"/><path class="cls-1" d="M24.32,20.27s-.06-.05-.08-.07Z" transform="translate(-0.19 -0.33)"/><path class="cls-1" d="M24.1,20.54l-.1-.08S24,20.49,24.1,20.54Z" transform="translate(-0.19 -0.33)"/><polygon class="cls-1" points="24.38 20.68 24.45 20.72 24.36 20.65 24.38 20.68"/><polygon class="cls-1" points="23.65 20.14 23.63 20.12 23.66 20.16 23.65 20.14"/><path class="cls-1" d="M23.7,20.72l.06.17Z" transform="translate(-0.19 -0.33)"/><path class="cls-1" d="M23.67,21c0-.1,0-.17,0-.06S23.68,21,23.67,21Z" transform="translate(-0.19 -0.33)"/><polygon class="cls-1" points="23.28 20.35 23.31 20.28 23.28 20.34 23.28 20.35"/><path class="cls-1" d="M17.22,23.27c0,.05,0,.14.07.12l.05-.17Z" transform="translate(-0.19 -0.33)"/><path class="cls-1" d="M17.63,23.62c.09-.05.25-.13.27-.29-.15.11-.15,0-.29.19-.06,0-.1-.08-.08-.14s-.11-.05-.15.05a.2.2,0,0,0,.3.09A.19.19,0,0,1,17.63,23.62Z" transform="translate(-0.19 -0.33)"/><path class="cls-1" d="M19.5,28.54v0Z" transform="translate(-0.19 -0.33)"/><path class="cls-1" d="M18.09,31.16a0,0,0,0,0,0-.05S18.07,31.16,18.09,31.16Z" transform="translate(-0.19 -0.33)"/><path class="cls-1" d="M17.62,31.55l0,0S17.61,31.53,17.62,31.55Z" transform="translate(-0.19 -0.33)"/><path class="cls-1" d="M19.5,28.54l0,.1C19.53,28.63,19.5,28.59,19.5,28.54Z" transform="translate(-0.19 -0.33)"/><path class="cls-1" d="M18.52,23.89l-.07,0,.05,0Z" transform="translate(-0.19 -0.33)"/><path class="cls-1" d="M18.92,27.2v0h-.07Z" transform="translate(-0.19 -0.33)"/><path class="cls-1" d="M18.54,26.14s.14,0,.2,0-.1,0-.11,0Z" transform="translate(-0.19 -0.33)"/><path class="cls-1" d="M18.17,24.41h0Z" transform="translate(-0.19 -0.33)"/><path class="cls-1" d="M19.14,28l0,0Z" transform="translate(-0.19 -0.33)"/><path class="cls-1" d="M26.77,24.73h0S26.78,24.72,26.77,24.73Z" transform="translate(-0.19 -0.33)"/><polygon class="cls-1" points="27.54 23.34 27.54 23.36 27.62 23.37 27.54 23.34"/><path class="cls-1" d="M16.92,32.39h0S16.92,32.37,16.92,32.39Z" transform="translate(-0.19 -0.33)"/><path class="cls-1" d="M24.74,38c-.16,0,.05-.23-.16-.25C24.62,37.75,24.58,38,24.74,38Z" transform="translate(-0.19 -0.33)"/><path class="cls-1" d="M18.53,23.93l0,.05A.11.11,0,0,0,18.53,23.93Z" transform="translate(-0.19 -0.33)"/><polygon class="cls-1" points="24.38 37.38 24.38 37.38 24.36 37.38 24.38 37.38"/><path class="cls-1" d="M18.1,34.94a.25.25,0,0,0,0-.07A.1.1,0,0,0,18.1,34.94Z" transform="translate(-0.19 -0.33)"/><path class="cls-1" d="M16.85,33.26l0,.06Z" transform="translate(-0.19 -0.33)"/><path class="cls-1" d="M19,35.29s0,0,.05,0v0S19,35.32,19,35.29Z" transform="translate(-0.19 -0.33)"/><polygon class="cls-1" points="19.59 35.49 19.59 35.46 19.56 35.45 19.59 35.49"/><path class="cls-1" d="M25.81,27.52h.13C25.84,27.5,25.85,27.34,25.81,27.52Z" transform="translate(-0.19 -0.33)"/><path class="cls-1" d="M18.46,23.94a.06.06,0,0,1,.07,0l0,0S18.46,23.92,18.46,23.94Z" transform="translate(-0.19 -0.33)"/><path class="cls-1" d="M19.63,34.39l.12.1A.63.63,0,0,0,19.63,34.39Z" transform="translate(-0.19 -0.33)"/><path class="cls-1" d="M28.68,33.1h0Z" transform="translate(-0.19 -0.33)"/><path class="cls-1" d="M20.14,34.73a.28.28,0,0,0,0,.13l0,0Z" transform="translate(-0.19 -0.33)"/><path class="cls-1" d="M25.94,27.51Z" transform="translate(-0.19 -0.33)"/><path class="cls-1" d="M26,26.39c-.06.14.14.14.23.2s-.16,0-.27.06.13.26.1.34S26,27,26,27c.1.16-.11.34,0,.54h0a.79.79,0,0,1,.25,0c0,.07.08.15,0,.14s0-.05-.06-.08l0,.08c-.19,0,0-.11-.16-.14,0,.15.12.34.05.44s0-.26-.18-.15l.1-.16c-.29.07,0-.09-.26-.05-.1.22,0,.27-.07.5.09.07.14,0,.23.07.12.34-.47.21-.25.49.11.07.32.09.21.27l-.2-.06c0,.24.28.12.17.37-.08,0-.07-.18-.09-.14s.11.1.12.22l-.16.05a3.58,3.58,0,0,0,.37.73c-.05,0-.12,0-.14.06a5.91,5.91,0,0,1,.44,1h.19s0,.08-.06.07c0,.14.08,0,.16,0a.07.07,0,0,1-.06.12c.24.1.62.27.7.53h-.06c.1.16.34-.11.39.1h0c.27.28.72.38.84.7.16-.16.2.23.36,0a.52.52,0,0,1-.14.28s.2,0,.25,0l-.17,0,.18,0a.74.74,0,0,1-.21,0l0,0a.54.54,0,0,1,.13,0c.06.08-.17.08-.23,0s.07.06,0,.18c-.05,0,0-.11,0-.14,0,.2-.13-.11-.13.1,0,0,.05.07.07.1s-.25.11-.32.23l-.05-.09c-.19.14-.33.38-.53.56.11,0,.22.12.17.19l-.13-.1c0,.1.1,0,.1.15s-.17-.09-.16-.17l-.06.12s0-.07-.07-.12c0,.11-.26,0-.2.2l0,0a5.24,5.24,0,0,0-.41.45c.08.1,0,.14,0,.27a1.68,1.68,0,0,0-.49.23c-.06.14,0,.12.05.22-.09-.09-.23,0-.21-.09a1.75,1.75,0,0,0-.38.47c.06,0,.1,0,.11.06s-.12,0-.16,0v0c-.14.36-.83.18-.88.55v0l-.14.27c-.11.06,0-.12-.11-.13-.11.35-.39.25-.51.5a.3.3,0,0,0-.26,0,.25.25,0,0,0-.1.08s-.05.09-.05,0v.11c0,.09,0-.07,0-.09s0,.09,0,.14,0,0-.14-.07-.22-.19-.33-.29-.41-.44-.63-.63-.35.32-.45,0l.15-.09c-.46-.08-.71-.49-1.15-.58,0,0,.07-.06.1,0,0-.15-.27-.18-.32-.1s0-.09,0-.15-.27,0-.24-.12,0,0,.06,0-.21-.16-.25,0c-.09-.14-.28-.12-.34-.25-.15.08-.18-.21-.32,0,.14-.18-.12-.3-.26-.27.06,0,0-.1.05-.16-.1-.06-.21-.08-.25,0,0-.34-.47,0-.38-.4a5.51,5.51,0,0,1-.92-.31c.13-.18.29.16.41,0-.27-.07-.6,0-.63-.14s.1,0,.13-.08c-.16,0-.11-.12-.19-.2l.06,0s0,0-.06,0l0,0c-.19,0-.28-.16-.34-.21.26.15.16-.14.45.1a.22.22,0,0,0-.1-.1s.09,0,.13,0c0-.18-.09-.18,0-.31,0,0,0,.06.09.1-.05-.12-.09-.23,0-.33s.06,0,0,.06c.1-.2,0-.47.19-.64.15.18.11,0,.27.06l0-.15h-.11c.07-.1,0-.26.12-.31l0,.11.09-.2-.13.06c0-.15-.2-.12-.07-.22s.07-.1.2-.09h0c0-.08,0-.17.06-.21s.15.13.19.14c-.09-.14.13-.25,0-.41a.24.24,0,0,0,.12.11L19,30.73c.06,0,.08,0,.14,0,.12-.12-.22-.1,0-.2,0,0,0,0,0,.06.16-.13.17-.35.34-.46.18.08-.07.16.1.21.13-.23.19-.58.35-.84l0,0c-.23-.13.22-.16.12-.37,0,0,.14.08.11.06a.86.86,0,0,0-.19-.74l.08,0a1.47,1.47,0,0,0-.06-.42c-.07,0-.08-.07-.16,0,.25-.45-.41-.56-.2-.95,0,0,.08.06.07,0L19.55,27c-.1.06-.06.06-.12.14a.2.2,0,0,1-.17-.13c.11.09.17-.06.22-.12a.45.45,0,0,0-.11,0c.15-.2-.23.05-.16-.17h.06c-.05-.06-.14-.1-.15-.17s.08.05.19,0-.31-.12-.21-.25c0,0,.07.09.12.12.11-.15.07-.15.07-.23h0V26l0,.06c-.37,0-.14-.24-.42-.33.26.09.13,0,.28,0s.05-.14.09-.13c-.14,0,.05-.17-.16-.22.05,0,0-.09.1-.11-.07-.09-.07.05-.13.06-.22-.11.07-.43-.24-.61-.16-.18-.33-.15-.49-.29,0-.09.18,0,.18,0a.24.24,0,0,0-.14-.26s.06-.05.09-.1-.18.05-.19-.09a.49.49,0,0,1,.21,0,1.51,1.51,0,0,0-.35-.14c0-.09.14-.05.21-.05-.11-.08-.32-.2-.43-.1l0,.09s0-.11.09-.11.09.15.06.18l-.07,0c-.14.26.24.18.32.34l-.21.06.23,0c0,.06-.12.13-.18.09,0,.14.11,0,0,.17s0,0,0,0l.1.06c-.05,0-.13.08-.12,0,0,.2.25.19.13.31h0c.15.19.15,0,.38.08l-.31.24.15,0s0,.08-.05.09c.13.05.05,0,.16,0-.09.16.17.3-.05.4.13,0,.05-.14.17,0-.24.12.09.13,0,.27s-.11-.11-.18,0c.23,0,0,.23.09.3s.13.17.24.3c-.06,0,0,.31,0,.47h0c.19,0,.2.12.27.21a.19.19,0,0,1-.21,0l0,.1a.15.15,0,0,1,.14.08l-.13,0c0,.13.24.21.21.41.12,0,.29-.25.43-.1-.06,0-.17.07-.22,0s.08,0,.06.07l-.14,0c0,.09.11,0,.12.07s-.05.07-.13.09,0-.07,0-.08a.31.31,0,0,1-.09.23c.06,0,.13-.05.16,0s-.1.08-.12.18,0,.11.18.07-.05.06-.09.09.12.3.24.18v0h0c.21.18,0,.45.07.62h-.05c0,.12,0,.24,0,.37s-.12,0-.16,0c0,.1,0,.14-.13.21,0-.13-.08,0,0-.12-.11.08-.19.05-.17.24-.07-.11-.19,0-.2.06l.13,0a.51.51,0,0,1-.13.16l-.11-.13c-.34.1,0,.62-.44.59.05.13.16-.08.22.06s-.37.06-.39.1c-.18.09.1.28-.06.4.06,0,.21.08.18.23s-.3,0-.29-.1,0,0,0,0,0-.11-.07-.1l0,0c-.09,0-.18.18-.24.09,0,.12.06.09.13.05-.17.09-.15.22-.29.34,0,0,.11,0,.1,0-.2.18,0,.15,0,.31s-.16-.14-.19.05-.14-.06-.16-.12c0,.19-.22.22-.28.29V32a.22.22,0,0,1,0,.13l.13,0s-.06.07-.11,0,.19.07.24.21,0,.2-.19.15c.15-.16-.15-.06-.09-.23a.14.14,0,0,1-.06.11,0,0,0,0,1,0,0c-.22.11.12.14,0,.4-.07-.07-.19,0-.2.06.06-.11.17,0,.19.11-.15.17,0,.21,0,.3l.06-.11c.08.05,0,.12.06.24s0-.11-.07-.06c.13.1-.16.35.06.49,0,.11-.15.08-.13.18.25.12.09.28.4.39,0-.14,0-.12.2-.11a2.81,2.81,0,0,1-.39-.19,2,2,0,0,0,.33,0c-.09-.06-.25-.1-.28-.16.16,0,.13,0,.17-.07,0,.22.31.1.34.27l-.17.24c.09.22.37.06.54.27l0-.09c.09-.08.14.07.23.08s0,.13,0,.2.15.11.27,0l0,.17c.14.16.35-.11.5,0-.11.06-.08.16-.23.15.05,0,.09.09.13,0s.22,0,.22.1.11-.1.17-.05l0,0s.13,0,.14-.12c0,.37.48.29.48.61a2.46,2.46,0,0,1,.4.19s0,0,0,0c.1.18.25-.17.36,0s-.14,0-.12.09c-.16.29.23.1.23.34h0c0,.15.28,0,.4.16l0,0a.85.85,0,0,1,.57,0c-.12.08-.1,0-.15.14s.1-.18.24-.13.06.19,0,.31l-.12-.07c0,.19.15.1.2.16l-.06.06c.19.1.31-.06.49.08v-.07c.21-.09,0,.15.21.1l-.08.19a1.84,1.84,0,0,1,.49,0,1.33,1.33,0,0,1-.48.05c.07,0,.24.14.33.09s-.1,0-.11,0a.41.41,0,0,1,.45,0c-.11.15,0,.23.06.31a.83.83,0,0,1,.33.4,1.44,1.44,0,0,0,.46,0c.14,0,.31-.06.47-.13a2.39,2.39,0,0,0,.34-.21c-.28-.17.08-.06-.12-.3.05-.06.08-.07.09-.06h.3c.1,0,0,.1,0,.15s.13.06.27.06c-.08-.08,0-.16.06-.19l-.19,0c.1-.27.32.09.42-.19v.12c.07-.12.38-.27.32-.54,0,0,.12.06.08.11.27-.15.37-.61.64-.64l0,.08c0-.06,0-.17.09-.16s0,.07.05.06,0-.2.12-.21v.11c.29-.11.21-.45.36-.64.15.17.37.07.48,0v0c.28-.2.32-.51.49-.79.3,0,.55-.37.87-.49-.06,0-.11-.13-.09-.18s0-.25.17-.1l0,0c.18.1.25,0,.34-.12l-.17-.2c.11,0,.23,0,.35-.16a1,1,0,0,0,.21-.4c.08-.29,0-.52.14-.69-.09-.1-.15-.24-.28-.31l.14,0a1.36,1.36,0,0,0-.27-.37,1.7,1.7,0,0,0-.39-.27l.11-.05c-.15-.1-.39.24-.51.19l.06-.21c-.2-.1-.29-.38-.58-.34,0,0,.06-.07.1-.06s-.23-.35-.38-.1C28,31,27.76,31,27.61,31l.11-.09c-.2.06-.23.09-.37,0s.06-.09.07,0c0-.13-.16,0-.2-.13l.1,0c-.06-.09-.09,0-.21,0s-.11-.2,0-.28c-.07,0-.19,0-.19-.05a.08.08,0,0,1,.09,0c0-.21-.29-.17-.22-.35s.06,0,.07-.06c.05.14.11.24.09.24S27,30,27.21,30c-.13,0-.39-.08-.37-.21l0,0h0a.06.06,0,0,0,0-.06.18.18,0,0,0,0-.1c.1,0,0-.13,0-.19s-.13,0-.23,0,0,0,0,0a0,0,0,0,0,0,0h0l0,.14c-.08,0-.16-.05-.09-.14l-.24,0c.17-.13.25-.3.37-.33-.1-.16-.07-.4-.32-.54,0-.06.08-.06.12-.07s0,.07.06.09,0-.32-.17-.38c.1-.12.15.11.16-.08l.05,0c.36-.28-.31-.72.19-1,0,0,0,0-.07,0,.32-.4.23-1,.66-1.39.11-.12,0-.17-.05-.29l.15,0-.11-.21c0-.24.48-.23.33-.57h-.1c0-.09,0-.32.13-.27s-.09-.06,0-.08h.08l-.08-.27c.09-.17.31.1.37-.19,0-.12-.19-.33-.25-.3a.14.14,0,0,1-.14.1l0-.1c-.23,0-.46-.12-.65,0l.13.16-.12,0v-.12c-.12.05,0,.1,0,.16A.2.2,0,0,0,27,24l.19.18c-.09,0-.16-.1-.23,0,.08.08.21,0,.25.1-.12.05-.19,0-.13.1a.12.12,0,0,1-.11-.06c.05.08,0,.19.09.26-.15,0,0,.24-.25.17a.41.41,0,0,1,.11.24c-.21-.2-.1.24-.36.11.19.17,0,.35,0,.55,0,0-.05,0,0-.05s-.13.08-.19.12c.17.08.16.24.24.36-.22,0-.19-.16-.37-.19.15.05.07.25.21.26-.14,0-.08.05-.25,0,.22.1,0,.09.12.22-.17.08-.23-.06-.21.11S26,26.39,26,26.39Zm.07,3.74h0l0-.07Zm.13.29a.49.49,0,0,0-.06-.13s.09,0,.1,0S26.19,30.36,26.18,30.42Zm.7-.88s0,0,0,.06a.21.21,0,0,0,0-.06h.06Z" transform="translate(-0.19 -0.33)"/><path class="cls-1" d="M26.69,29.51s0,0,0,0l0,0h0Z" transform="translate(-0.19 -0.33)"/><path class="cls-1" d="M19.51,28.5h0s0,0,0,0Z" transform="translate(-0.19 -0.33)"/><polygon class="cls-1" points="28.42 32.69 28.46 32.69 28.42 32.69 28.42 32.69"/><path class="cls-1" d="M19.48,26.86a.05.05,0,0,0,0,0Z" transform="translate(-0.19 -0.33)"/><path class="cls-1" d="M19.29,26.2l0-.11A.26.26,0,0,0,19.29,26.2Z" transform="translate(-0.19 -0.33)"/><path class="cls-1" d="M19.19,25.68h0Z" transform="translate(-0.19 -0.33)"/><path class="cls-1" d="M17.85,33.25h0Z" transform="translate(-0.19 -0.33)"/><path class="cls-1" d="M18.7,31.21s0,.07,0,.11S18.76,31.26,18.7,31.21Z" transform="translate(-0.19 -0.33)"/><polygon class="cls-1" points="19.43 34.05 19.43 34.05 19.44 34.06 19.43 34.05"/><path class="cls-1" d="M18.64,31.41a.12.12,0,0,0,.07-.09S18.64,31.37,18.64,31.41Z" transform="translate(-0.19 -0.33)"/><path class="cls-1" d="M18.13,23.44l0,0,0,0Z" transform="translate(-0.19 -0.33)"/><path class="cls-1" d="M18.09,23.43h0S18.07,23.44,18.09,23.43Z" transform="translate(-0.19 -0.33)"/><path class="cls-1" d="M18,23.4l.09,0A.08.08,0,0,0,18,23.4Z" transform="translate(-0.19 -0.33)"/><path class="cls-1" d="M18.61,24.14h0Z" transform="translate(-0.19 -0.33)"/><path class="cls-1" d="M18.73,24.35c0-.06,0-.18,0-.23h0C18.75,24.13,18.63,24.34,18.73,24.35Z" transform="translate(-0.19 -0.33)"/><path class="cls-1" d="M18.45,25.41l0-.18c0,.05-.09.11-.13,0C18.21,25.53,18.4,25.19,18.45,25.41Z" transform="translate(-0.19 -0.33)"/><path class="cls-1" d="M18.55,26c-.05-.08-.07,0-.11,0S18.53,26,18.55,26Z" transform="translate(-0.19 -0.33)"/><path class="cls-1" d="M19.35,29.46l-.11-.08C19.23,29.44,19.28,29.41,19.35,29.46Z" transform="translate(-0.19 -0.33)"/><polygon class="cls-1" points="19.24 30.11 19.34 30.1 19.27 30 19.24 30.11"/><polygon class="cls-1" points="18.24 29.91 18.25 29.87 18.21 30 18.24 29.91"/><path class="cls-1" d="M19.57,35.83l.07-.14C19.59,35.68,19.48,35.83,19.57,35.83Z" transform="translate(-0.19 -0.33)"/><path class="cls-1" d="M22.05,37.3c0,.08,0,.17.1.13S22.08,37.3,22.05,37.3Z" transform="translate(-0.19 -0.33)"/><path class="cls-1" d="M29.48,34a.37.37,0,0,0,0,.09,1.47,1.47,0,0,1,.09-.15Z" transform="translate(-0.19 -0.33)"/><path class="cls-1" d="M26.47,25.76l.11,0-.15-.08Z" transform="translate(-0.19 -0.33)"/><path class="cls-1" d="M26.76,25.86a3.15,3.15,0,0,0-.33-.17l.24.14-.1,0s0,0,.05,0,.13,0,0,0Z" transform="translate(-0.19 -0.33)"/><path class="cls-1" d="M27.24,25.49h0Z" transform="translate(-0.19 -0.33)"/><path class="cls-1" d="M27.47,25.22l0,0Z" transform="translate(-0.19 -0.33)"/><path class="cls-1" d="M27.66,25.25h0S27.67,25.26,27.66,25.25Z" transform="translate(-0.19 -0.33)"/><path class="cls-1" d="M27.24,25.49h0Z" transform="translate(-0.19 -0.33)"/><path class="cls-1" d="M26.44,25.62l0,0h0Z" transform="translate(-0.19 -0.33)"/><path class="cls-1" d="M27.29,25.68h0l.06,0Z" transform="translate(-0.19 -0.33)"/><path class="cls-1" d="M27.26,25.8l-.17-.1.08.05Z" transform="translate(-0.19 -0.33)"/><path class="cls-1" d="M27,25.85h0Z" transform="translate(-0.19 -0.33)"/><path class="cls-1" d="M27.35,25.62l0,0Z" transform="translate(-0.19 -0.33)"/><path class="cls-1" d="M28.47,22.42h0Z" transform="translate(-0.19 -0.33)"/><polygon class="cls-1" points="28.84 22.52 28.84 22.52 28.9 22.58 28.84 22.52"/><path class="cls-1" d="M27.87,25.24Z" transform="translate(-0.19 -0.33)"/><path class="cls-1" d="M28.21,24.33c-.11,0-.13-.09-.26-.14C28,24.21,28.13,24.3,28.21,24.33Z" transform="translate(-0.19 -0.33)"/><path class="cls-1" d="M26.45,25.62Z" transform="translate(-0.19 -0.33)"/><path class="cls-1" d="M28,24.19Z" transform="translate(-0.19 -0.33)"/><path class="cls-1" d="M27.9,25l0,0Z" transform="translate(-0.19 -0.33)"/><path class="cls-1" d="M27.64,25.05h0Z" transform="translate(-0.19 -0.33)"/><path class="cls-1" d="M27.77,24.8h0Z" transform="translate(-0.19 -0.33)"/><polygon class="cls-1" points="27.62 24.38 27.59 24.37 27.6 24.38 27.62 24.38"/><path class="cls-1" d="M28.33,22.62l.07.1C28.34,22.64,28.33,22.6,28.33,22.62Z" transform="translate(-0.19 -0.33)"/><path class="cls-1" d="M26.51,25.65l-.06,0h0Z" transform="translate(-0.19 -0.33)"/><path class="cls-1" d="M26.78,24.3h0Z" transform="translate(-0.19 -0.33)"/><path class="cls-1" d="M27.72,23.1v0A0,0,0,0,0,27.72,23.1Z" transform="translate(-0.19 -0.33)"/><path class="cls-1" d="M26.81,24.25l.09,0,0,0Z" transform="translate(-0.19 -0.33)"/><path class="cls-1" d="M28.4,22.72Z" transform="translate(-0.19 -0.33)"/><path class="cls-1" d="M28.28,22.4a2,2,0,0,0,.16.23c0,.05-.08-.1-.14-.18s.11.19.1.19l0-.07c.08.13,0,0,.08.19l0,0,.15.2s.06.11,0,0,0,0,0-.07l0,0a1.26,1.26,0,0,1-.1-.15c0,.05.09.18.06.14s0-.06-.12-.17l.05,0c-.16-.21,0,0-.15-.22-.05,0,0,.09,0,.06l.14.19c.07.16-.27-.34-.16-.14s.19.27.11.19l-.11-.16s.15.23.06.14,0-.06,0-.08.06.1.05.1l-.1-.14s0,.15,0,.19a1,1,0,0,0-.09-.13c0,.09-.06,0-.15,0l.07.13a.38.38,0,0,1,0-.08c-.05,0,0,.08.08.13s-.06-.06-.08-.1.11.25,0,.14l0,0c-.05,0,.17.26.07.16v0c-.07,0,0,.1-.19-.05.13.17-.09,0,.09.19a1.25,1.25,0,0,0-.23-.2s.11.15.12.18l-.1-.11.09.13-.13-.13,0,0,.08.08c0,.07-.1-.05-.16-.1l.06.12a.46.46,0,0,1-.07-.1c.09.13-.12-.11,0,0l.09.09c-.07-.06-.09,0-.08,0l-.07-.08c-.05,0,0,.09,0,.12a1,1,0,0,1,.18.16l-.12-.1c.07.07.05,0,.14.12a.6.6,0,0,1-.18-.15l0,.05-.1-.09c.07.07-.15-.09,0,0l0,0s0,.08,0,.11a1.29,1.29,0,0,1,.17.15c-.05,0-.16-.06-.16,0s.09.07.16.13a1.18,1.18,0,0,1-.18-.11s0,.05.06.14l.11.06-.11-.05h0c.14.13-.37-.12-.16.05h0l.11.1s-.08-.05-.16-.08c.17.13-.05,0,.06.13-.35-.17,0,.08-.24,0l.08,0c.07.05,0,0-.07,0l.11.06c.07.1-.17.05-.27.07s.4.22.2.15L26.91,24c.16.13-.05.08.08.19l-.07,0c-.11,0,0,0,.07.07l-.13-.06c-.07,0,.13.09,0,0a.07.07,0,0,1,0,0c.05,0,0,0,.1.07-.07,0,0,.06,0,0,.13.08-.08,0,.11.09-.2-.1-.17-.05-.08,0a.93.93,0,0,1-.15-.07s0,0,.13.09c-.25-.1.18.14-.14,0a.82.82,0,0,1,.19.2c-.2-.1,0,0-.22-.15.07.07.24.17.18.17a.34.34,0,0,1-.12-.06c.07.06,0,0,.05.12l-.05,0s0,0,.06.05l0,0c.13.06.26.16.33.19-.25-.14-.07,0-.4-.19l.12.07a.31.31,0,0,1-.12-.06s.14.08.13.1l-.11-.06c.08.05.16.1.12.09l-.06,0s.21.15.12.13-.07,0-.24-.1l0,0,.09,0s.11.08.05.06l-.07,0,0,0,.07,0c.08.05.21.1.16.09A.38.38,0,0,1,27,25h0c.05,0,.1.07.06,0L26.82,25c.13.08,0,.05.17.13L26.85,25l.11.06L26.83,25s.22.1.12.08l0,0c-.06,0,.05.07,0,.06s0,0-.18-.1c0,0,.17.15.12.16h0c.24.12-.12,0,0,0l-.1-.06s0,.06.1.13l-.06,0c-.06,0,0,0-.07,0l.13.07c-.36-.14.16.16-.14,0l-.06,0,.05.05.15.07c.06,0,.1.06.1.07a1,1,0,0,0-.23-.11l.1.05c-.19-.08.21.1.07.06l-.05,0s.09.06.07.06a1,1,0,0,1-.15-.08s.22.13.1.08l-.06-.05c-.15-.06-.11,0-.14,0h0l-.07,0,0,0c.31.17.05.05.24.17a2.12,2.12,0,0,0-.24-.13l-.12-.05c.1.06-.1,0,.06.06a.34.34,0,0,1-.12-.05.76.76,0,0,0,.13.07c.14.09-.2-.06,0,.07s.21.14.28.19l-.16-.08c-.07,0-.06,0,0,0l-.12-.06s.15.09.08.07l-.17-.1.15.11-.16-.09a.66.66,0,0,0,.17.12l.05,0-.13-.07c-.08-.05.05,0,.1,0l0,0c.26.12,0,0,0-.05l.19.1-.15-.09a1,1,0,0,1,.18.09c.1,0-.06,0,0,0l0,0-.05,0,.1.06c.11,0-.13-.1,0,0h0c-.06-.05-.14-.07-.29-.16l.34.15L27,25.76l.07,0-.15-.08c.13.06,0-.06.18.05-.1-.05-.09,0-.15-.08.23.12,0,0,.08,0a.89.89,0,0,0,.16.09c-.2-.11.05,0,0,0s-.06-.05-.11-.09a.51.51,0,0,0,.17,0l0,0c-.16-.09-.12-.09-.15-.11l.17.09h0a.29.29,0,0,1-.1-.06l.13.07s-.14-.1-.05-.08a2.36,2.36,0,0,1-.39-.2l.19.1s-.05,0,0,0l.1.06c.05,0-.08-.05-.07-.05l.13.06s0,0,0,0l.14.05-.12-.07s.1.05.15.06,0,0-.12-.07l.1,0c-.06,0,0,0-.15-.1h0c-.12-.08.1,0,.05,0l0,0s0,0-.1-.1l.14.06s-.08,0,0,0,.07,0,.05,0,.12,0,0,0c.11.06.15.06.12,0l-.09,0s0,0,0,0l.14.08c.2.06-.28-.2,0-.07-.1-.06-.08,0-.2-.09a2.3,2.3,0,0,1,.25.09c.09,0-.21-.12-.14-.11l-.25-.13a.9.9,0,0,1,.27.12h0a.43.43,0,0,0,.1.05l-.05,0c.05,0,.06,0,.14.05a.27.27,0,0,0-.12-.06c.09,0,0,0,.08,0l-.09,0c.07,0-.1-.07-.11-.09s.19.1.13.05a1.5,1.5,0,0,1,.18.09c-.09-.06.08,0,.1,0l0,0s0,0,0,0l-.1,0,.06,0-.27-.14c.06,0,0-.05.1,0-.06,0,.14.07.15.1s0,0,0,0l0,0c.13,0-.16-.09-.14-.11l.13.06-.19-.1c.07,0,0,0,0,0h0a.31.31,0,0,1-.09-.06l.07,0c-.13-.08.16.05.07,0l.19.09c-.1-.07.11,0,0,0a.52.52,0,0,1-.18-.1l.06.07-.15-.1s.06.05,0,.05l-.15-.08c.17.07-.08-.07,0,0l.27.14c.12,0-.12-.1,0-.09l-.05,0c-.11-.05,0,0,0-.05a.83.83,0,0,0,.18.08c-.07,0,0,0-.16-.1l.12,0c.06,0-.24-.15-.2-.15a1.45,1.45,0,0,1,.22.12s0,0,0,0-.11-.08,0,0-.13-.07-.12-.08l0,0-.15-.09c.28.12,0-.06.25,0a.1.1,0,0,1-.05-.07l0,0c.09,0-.25-.14-.15-.11s.07.05.13.07c.29.14,0,0,.15,0h0c.1,0-.1-.08-.07-.08l0,0a.73.73,0,0,1-.22-.16l.17.09s-.18-.09-.21-.12a1.27,1.27,0,0,1,.25.1v0c.16.07,0,0,0,0l.07,0s-.19-.12-.16-.13l-.06,0c-.16-.09.11,0,0,0l.18.08a1.41,1.41,0,0,1-.18-.14l.26.17s0,0-.09-.08.06,0,0,0-.2-.13-.19-.14c.34.18.11,0,.38.13-.12-.08.07,0,.07,0-.27-.13,0,0-.27-.16,0,0,0,0,0,0l.17.07c.08,0,.05,0,.11.07a.75.75,0,0,1,.19.09c-.09-.06-.13-.08-.09-.07l-.13-.06c-.13-.1.23.11.1,0l.08.06s0,0-.18-.17l.12.08s-.2-.19-.06-.12l.06,0-.05,0,.07,0s-.1-.08-.06-.06l.06.05c.1,0-.15-.14-.18-.19a2.67,2.67,0,0,0,.28.18h0s-.13-.13-.18-.21c.19.15.11,0,.22.11a1.85,1.85,0,0,1-.14-.14s-.09-.11.05,0h0c.15.13.12.09.12.09l-.18-.19c.28.26-.05-.15.19.1l-.07-.11.09.11s.05,0,.05,0l.06.09s-.25-.33-.24-.34l.13.16s.14.12,0-.05l.06.09s.12.09-.06-.14c.12.15,0,0,0-.08l.08.12a2.28,2.28,0,0,1-.14-.24.28.28,0,0,1,0,.06c.05.05-.07-.11,0-.06l.05.08s0,0-.07-.13,0,0,.12.12c-.05-.07-.1-.15-.07-.13l.05.08c.07.06-.07-.15,0,0l.05.07h0a1.6,1.6,0,0,1,.19.26c0-.08-.15-.27-.1-.22l0,0h0s0,0,0,0l0,0c.06.08,0,0,.05,0a2.36,2.36,0,0,0-.13-.2,0,0,0,0,1,0,0h0v0c0-.06-.07-.12,0-.06l-.12-.19.27.33a.72.72,0,0,0-.13-.3l.07.09,0,.06c0-.06,0,0-.09-.2.06.06.09.15.09.11l0,0c.21.21-.21-.42.05-.15a.12.12,0,0,1-.05-.05c.15.1,0-.19.21,0,.05,0,0-.06-.08-.13l.1.11-.1-.15c-.06-.11.28.26.14.05l-.07-.07s0-.07.07,0-.07-.08,0,0l.05.05L29.09,23c.05,0,.21.23.25.21L29.16,23s0,0-.1-.08l0,0c-.17-.16-.33-.33-.46-.44l.09.11-.08-.08h0c-.07-.07,0,0,0,.05l-.09-.09.15.17a2.21,2.21,0,0,1-.16-.17c.06.08.14.15.18.21s-.13-.14-.08-.07l-.08-.1a.5.5,0,0,0,.09.13c-.09-.09,0,0-.14-.13l.11.15c-.17-.2,0,0-.21-.21.15.18.05.09.12.21l0,0a.93.93,0,0,1-.1-.1c.12.16.14.2.21.3-.13-.14-.14-.19-.26-.33.1.13.09.14.17.24l-.14-.17c.15.2,0,0,.11.16-.09-.09-.14-.18-.11-.11A1,1,0,0,1,28.28,22.4Zm0,.53Zm0,0h0l.05.08Zm.61.76s0,0,0,0v0Z" transform="translate(-0.19 -0.33)"/><polygon class="cls-1" points="28.55 23.23 28.55 23.22 28.53 23.19 28.55 23.23 28.55 23.23"/><path class="cls-1" d="M27.21,25.48h0Z" transform="translate(-0.19 -0.33)"/><polygon class="cls-1" points="27.51 22.69 27.54 22.72 27.52 22.69 27.51 22.69"/><path class="cls-1" d="M26.71,25.41l0,0Z" transform="translate(-0.19 -0.33)"/><path class="cls-1" d="M26.65,25.46l0,0Z" transform="translate(-0.19 -0.33)"/><path class="cls-1" d="M26.56,25.47l.06,0h0Z" transform="translate(-0.19 -0.33)"/><path class="cls-1" d="M26.8,24.63Z" transform="translate(-0.19 -0.33)"/><path class="cls-1" d="M27,25l-.06,0Z" transform="translate(-0.19 -0.33)"/><polygon class="cls-1" points="26.59 23.97 26.59 23.97 26.59 23.97 26.59 23.97"/><path class="cls-1" d="M26.93,25s0,0,0,0S27,25,26.93,25Z" transform="translate(-0.19 -0.33)"/><polygon class="cls-1" points="26.21 25.32 26.2 25.32 26.22 25.33 26.21 25.32"/><path class="cls-1" d="M26.42,25.66h0Z" transform="translate(-0.19 -0.33)"/><path class="cls-1" d="M26.46,25.7l0,0S26.42,25.68,26.46,25.7Z" transform="translate(-0.19 -0.33)"/><path class="cls-1" d="M26.49,25.62l0,0Z" transform="translate(-0.19 -0.33)"/><path class="cls-1" d="M26.49,25.59s-.1,0-.08,0l0,0C26.38,25.56,26.56,25.64,26.49,25.59Z" transform="translate(-0.19 -0.33)"/><path class="cls-1" d="M27.09,25.8h0c.05,0,.12.05.12.07C27.33,25.91,27.06,25.81,27.09,25.8Z" transform="translate(-0.19 -0.33)"/><path class="cls-1" d="M27.19,25.78a.31.31,0,0,0,.1,0Z" transform="translate(-0.19 -0.33)"/><path class="cls-1" d="M27.37,25.42l.12,0Z" transform="translate(-0.19 -0.33)"/><polygon class="cls-1" points="26.62 24.72 26.55 24.69 26.65 24.75 26.62 24.72"/><polygon class="cls-1" points="27.46 25.09 27.47 25.1 27.44 25.07 27.46 25.09"/><path class="cls-1" d="M27.92,24.79l-.15-.07S28,24.82,27.92,24.79Z" transform="translate(-0.19 -0.33)"/><path class="cls-1" d="M27.91,24.45c.07,0,.12.05.05,0Z" transform="translate(-0.19 -0.33)"/><polygon class="cls-1" points="28.3 23.67 28.34 23.71 28.31 23.68 28.3 23.67"/><path class="cls-1" d="M16.83,33.5s.12.07.11,0l-.13-.1Z" transform="translate(-0.19 -0.33)"/><path class="cls-1" d="M17.15,33.56a1.58,1.58,0,0,0-.31-.22c.13.1.07.07.22.19s-.06,0-.11,0,0,0,0,.07.14,0,.06-.05Z" transform="translate(-0.19 -0.33)"/><path class="cls-1" d="M18.14,32.31h0Z" transform="translate(-0.19 -0.33)"/><path class="cls-1" d="M18.7,31.49s0,0,0,0Z" transform="translate(-0.19 -0.33)"/><path class="cls-1" d="M19,31.43h0S19,31.44,19,31.43Z" transform="translate(-0.19 -0.33)"/><path class="cls-1" d="M18.14,32.31h.06C18.15,32.28,18.16,32.3,18.14,32.31Z" transform="translate(-0.19 -0.33)"/><path class="cls-1" d="M16.91,33.17s0,0,0,0v0Z" transform="translate(-0.19 -0.33)"/><path class="cls-1" d="M18.05,32.76h0l.06,0Z" transform="translate(-0.19 -0.33)"/><path class="cls-1" d="M17.91,33.06,17.74,33l.08.06Z" transform="translate(-0.19 -0.33)"/><path class="cls-1" d="M17.44,33.4v0Z" transform="translate(-0.19 -0.33)"/><path class="cls-1" d="M18.19,32.56l0,0Z" transform="translate(-0.19 -0.33)"/><path class="cls-1" d="M17.48,24.36v0Z" transform="translate(-0.19 -0.33)"/><polygon class="cls-1" points="17.4 23.27 17.41 23.27 17.45 23.2 17.4 23.27"/><path class="cls-1" d="M19.26,31.24h0S19.26,31.25,19.26,31.24Z" transform="translate(-0.19 -0.33)"/><path class="cls-1" d="M20,28.17c-.11.06-.17,0-.29.07C19.77,28.22,19.94,28.23,20,28.17Z" transform="translate(-0.19 -0.33)"/><path class="cls-1" d="M16.93,33.17h0S16.93,33.16,16.93,33.17Z" transform="translate(-0.19 -0.33)"/><polygon class="cls-1" points="19.53 27.91 19.52 27.91 19.51 27.92 19.53 27.91"/><path class="cls-1" d="M19.53,30.58l-.06,0Z" transform="translate(-0.19 -0.33)"/><path class="cls-1" d="M19.09,31h0Z" transform="translate(-0.19 -0.33)"/><path class="cls-1" d="M19.49,30.25s0,0,0,0h0S19.51,30.25,19.49,30.25Z" transform="translate(-0.19 -0.33)"/><polygon class="cls-1" points="19.43 29.66 19.4 29.66 19.41 29.67 19.43 29.66"/><path class="cls-1" d="M17.92,24.8l.11-.07C17.94,24.78,17.9,24.77,17.92,24.8Z" transform="translate(-0.19 -0.33)"/><path class="cls-1" d="M17,33.21l-.05,0h0Z" transform="translate(-0.19 -0.33)"/><path class="cls-1" d="M18.5,29.74l0,0Z" transform="translate(-0.19 -0.33)"/><path class="cls-1" d="M18.43,26.56h0Z" transform="translate(-0.19 -0.33)"/><path class="cls-1" d="M18.59,29.59l.1,0,0,0Z" transform="translate(-0.19 -0.33)"/><path class="cls-1" d="M18,24.73Z" transform="translate(-0.19 -0.33)"/><path class="cls-1" d="M17.63,24.72s.15-.09.24-.15-.1.09-.17.16.21-.09.21-.07l-.07.05c.14-.06.05.06.23,0l0,0,.22-.13s.12,0,0,0,0,0-.08,0h.06c-.15.1-.07,0-.18.07.07,0,.21,0,.18,0s-.08,0-.19.08l0-.07c-.22.15,0,0-.23.13,0,.07.1,0,.08.08a2,2,0,0,1,.21-.1c.19,0-.36.23-.13.19s.31-.12.22,0l-.18.06c0,.05.26-.08.16,0s-.07,0-.09,0,.11,0,.12,0l-.15.06s.18.06.22.11a.39.39,0,0,0-.14,0c.1.05,0,.16-.05.26h.14s-.06,0-.09,0,.1,0,.15,0-.07,0-.12,0c.14,0,.3.09.16.18h-.05c0,.05.31,0,.18.06h0c0,.11.11.2-.09.31.21,0-.08.12.21.08-.13.08-.19.07-.27.17s.19,0,.22,0l-.15,0h.16l-.18.05.05,0a.19.19,0,0,1,.11,0c.07,0-.09.11-.17.13l.14.07a.23.23,0,0,1-.12,0c.16,0-.16,0,0,.06h.12c-.09,0-.08.09,0,.12h-.1c0,.08.08.15.09.24a.39.39,0,0,1,.25-.05l-.16,0c.1,0,.05,0,.18,0s-.18.06-.23.05l.06,0h-.14c.11,0-.14.1,0,.09h0c0,.09.08.12.1.19s.11,0,.23,0c0,.06-.13.15-.1.21s.12,0,.21,0c-.13,0-.1.09-.2.09a.41.41,0,0,0,.18.15.41.41,0,0,1,.11-.06s0,.06-.1.07h0c.21,0-.28.35,0,.33h0l.16,0s-.1,0-.17.06c.23,0,0,.13.17.15-.35.14.06.15-.16.25l.08,0c.09,0,0,0-.06,0s.07,0,.12,0-.11.23-.2.28.45.11.23.11L18.79,29c.17.13-.05.15.07.3l-.08,0c-.12,0,0,.06.06.11s-.09,0-.14-.05.12.12,0,.08,0,0,0,0-.05.05.09.1c-.08,0,0,.1-.07.1.12.09-.11,0,.09.14-.2-.11-.21,0-.12.06s-.08,0-.16-.07,0,.08.12.13c-.27-.07.13.2-.19.07a.94.94,0,0,1,.09.36c-.2-.11,0-.09-.18-.2,0,.12.19.25.1.29s-.08-.05-.11-.08c0,.12-.1.13,0,.26a.1.1,0,0,1,0-.05s-.05,0,0,.06l0,0c.15.05.25.19.32.23-.25-.16-.1,0-.41-.17a.43.43,0,0,0,.11.08s-.06,0-.12-.06.12.1.1.14l-.11-.07c.08.07.15.13.1.15s-.07,0-.06,0,.17.22.05.24-.07,0-.24-.09l0,.06.09,0s.08.12,0,.12l0-.06v.07h.08c.06.08.21.11.14.13s0,0-.13,0h0c0,.05.09.09,0,.09a2.18,2.18,0,0,1-.22-.12c.13.09,0,.1.13.2A.38.38,0,0,0,18,31.4l.1.07s-.06,0-.13,0,.22.1.1.1l0,0c-.07,0,0,.14-.06.15s0-.06-.17-.12c0,.08.12.25.05.29h0c.23.14-.14,0-.05.08s-.12-.08-.1-.06,0,.12,0,.23l-.05,0c-.07,0-.07,0-.12.07s0,0,.13.09c-.39-.11.08.27-.24.19,0,0,0,0,0,0v.1a.46.46,0,0,0,.16.06.21.21,0,0,1,.08.11.43.43,0,0,0-.23-.12l.1.06c-.2-.07.19.12.05.1l-.05,0s.07.09.05.1-.05-.05-.14-.11.19.19.06.14,0,0,0-.08-.12,0-.15,0h0c.28.21,0,.1.18.27-.16-.16-.1-.07-.23-.16s-.09,0-.12,0-.11,0,0,.11c0,0,0,0-.12,0s.08,0,.13.07-.23,0-.07.18.18.2.23.29a.36.36,0,0,1-.15-.1c-.07,0-.07,0,0,.07a.34.34,0,0,0-.12-.06s.14.1.07.09l-.16-.12.12.17a.49.49,0,0,1-.15-.12.33.33,0,0,0,.14.19h.05L17,33.37c-.08-.08.06,0,.1,0l0,0c.25.13,0-.1,0-.12l.17.12-.12-.13a.41.41,0,0,1,.16.11c.11,0-.05-.06.06,0l0,0,0-.06s.12.07.09.07c.13,0-.09-.15.05-.09h0c0-.1-.13-.08-.25-.22l.34.16-.13-.09s0,0,.08,0-.06,0-.14-.1c.14,0,0-.12.21,0-.1-.07-.1,0-.15-.09.23.12,0-.06.1,0s0,.07.16.1c-.19-.13.07,0,.05-.08s0-.09-.07-.16.13,0,.21,0l0,0c-.16-.1-.11-.12-.12-.17a.59.59,0,0,1,.16.12v0a.29.29,0,0,1-.08-.08l.12.07s-.1-.15,0-.15c-.11-.07-.33-.14-.38-.23l.18.11s0,0,0,0l.09.07c.06,0-.08-.06-.06-.07l.13.07s0,0,0,0a.25.25,0,0,1,.16,0c-.05,0-.12-.06-.12-.08s.11,0,.17.05,0,0-.11-.11.07,0,.1,0,0-.09-.11-.15h0c-.09-.13.14-.08.12-.17l.05,0c0-.06,0-.1-.07-.17a.26.26,0,0,1,.14.05c0-.05-.06-.08,0-.08s.08,0,0,.06.13,0,0-.09c.1.08.15.06.13,0l-.1,0s0,0,0-.05l.14.09c.22,0-.23-.3.1-.19-.09-.08-.1,0-.21-.08s.27,0,.28,0-.19-.16-.11-.17-.2-.1-.23-.16.24.08.27.12,0,0,0,0a.11.11,0,0,0,.09.06l-.05,0c.06,0,.08,0,.16,0a.1.1,0,0,0-.11-.05c.1,0,0-.07.11-.09s-.1,0-.09,0-.09-.08-.08-.14.18.12.14,0a.29.29,0,0,1,.18.1c-.08-.1.11,0,.14-.06l0,.05a.05.05,0,0,1,0-.05l-.11,0s0,0,.08,0-.18-.09-.26-.16,0-.08.11,0c-.08,0,.14.06.14.12s0,0,0,0l0,0c.15,0-.15-.1-.12-.15s.16.06.15.05-.14-.06-.19-.11,0-.06,0-.08h0c-.07-.05-.05-.06-.06-.1s0,.05.06.05c-.13-.1.17,0,.1-.07s.15.08.19.08.14,0,.08-.07-.09,0-.18-.11l0,.11-.13-.13s0,.08,0,.08a.25.25,0,0,0-.14-.08c.18.05-.06-.11.07-.08l.26.13c.14,0-.09-.16,0-.19h-.06c-.1-.06,0,0,0-.09a.6.6,0,0,0,.18.07c-.06,0,0,0-.14-.14l.13,0c.08,0-.21-.19-.16-.22s.17.07.22.14,0,0,0-.06-.09-.1,0-.08-.13-.07-.11-.09l.05,0c-.05,0-.05-.06-.15-.09.3.09,0-.15.31-.08a.43.43,0,0,1,0-.16l0,0c.11,0-.24-.14-.12-.16s.06.07.12.07c.31.13,0-.09.19-.05h0c.12,0-.08-.12,0-.17l0,0a.47.47,0,0,1-.21-.24.62.62,0,0,0,.19.07s-.2,0-.23-.11a1.63,1.63,0,0,1,.28,0v.05c.18,0,0-.07,0-.09l.07,0c0-.08-.2-.12-.17-.19h-.06c-.19-.07.11,0,0-.08h.2s-.18-.11-.22-.16A.76.76,0,0,1,20,29a.13.13,0,0,0-.11-.13s.07,0,0,0-.23-.08-.23-.13c.38,0,.09-.15.37-.23-.15-.08,0-.22,0-.33-.28.12,0,0-.31.06,0,0,0,0,0,0l.15-.12c.08,0,.07,0,.14,0s.11-.06.18-.12c-.1,0-.15,0-.12,0l-.13.08c-.17,0,.23-.14,0-.16h.1c-.06,0,0-.14-.29-.09a.27.27,0,0,1,.14,0c0-.1-.31-.1-.18-.2l.07,0s-.14,0-.07,0l.07,0s-.14,0-.1,0h.09c.07-.1-.23-.06-.3-.11a.42.42,0,0,0,.3-.17h0c0-.09-.21-.11-.31-.18.22-.1.06-.19.18-.3a.42.42,0,0,1-.19,0s-.16,0,0-.06h0c.2,0,.14-.08.14-.12l-.26,0c.36-.15-.18-.21.15-.31-.07,0-.07,0-.14-.05l.14,0a.14.14,0,0,0,0-.17h.11s-.41,0-.43,0l.21-.05c0-.07.15-.19,0-.22,0,0,.09,0,.1,0s.11-.17-.17-.09c.18,0,0-.09-.09-.11l.14,0c-.18,0-.23,0-.29,0s.11,0,.08,0-.14,0-.08-.06h.09s0,0-.15,0,0-.08.14-.12c-.08,0-.18,0-.15,0a.1.1,0,0,1,.09,0c.07-.1-.19-.06-.07-.14l.08,0c0,.05,0,.1,0,.09s.14-.08.32-.1c-.11,0-.33,0-.28-.06l0,0h0s0,0,0,0a.09.09,0,0,0,0-.05c.1,0,0-.07,0-.09s-.12,0-.22.08,0,0,0,0h0l0,.05c-.07,0-.13,0-.07,0l-.22.05c.17-.09.25-.18.36-.24-.1,0-.11-.13-.37-.06,0,0,.06-.05.09-.08s0,0,.07,0-.07-.1-.24,0c.05-.08.16,0,.11-.09l.05,0c.19-.27-.51,0-.26-.27,0,0,0,0-.05.05.05-.24-.31-.18-.23-.48,0-.07-.09,0-.17.05l.1-.11-.16.09c-.13,0,.15-.36-.08-.23l-.05.08s-.12,0,0-.1-.07.08-.05,0l0-.07-.14.07c0-.08.18-.26.1-.32a.47.47,0,0,0-.21.21s0,.06,0,.13l0,0a2.86,2.86,0,0,0-.27.57l.1-.1-.05.1h0c0,.1,0,0,.05,0s0,.09-.05.12l.15-.17a2.22,2.22,0,0,0-.13.19c.07-.07.1-.17.16-.22s-.09.17,0,.11a.24.24,0,0,1-.08.09c.06-.05.06,0,.14-.09-.07.11.06,0-.08.18,0,0,.14-.12.16-.11-.2.18,0,.05-.17.25.18-.16.12,0,.24-.09s0,0,0,0,0,.08-.07.12a1.44,1.44,0,0,1,.31-.19c-.13.14-.19.13-.32.26.12-.11.15-.07.25-.16l-.16.16c.2-.15,0,0,.18-.09-.08.1-.18.14-.11.13A.42.42,0,0,1,17.63,24.72Zm.73.55h0l0,0Zm0,.07s0,0,0,0l.09,0S18.42,25.32,18.38,25.34Zm.87-.48s0,0,0,0h-.05Z" transform="translate(-0.19 -0.33)"/><polygon class="cls-1" points="18.88 24.57 18.87 24.56 18.84 24.58 18.88 24.57 18.88 24.57"/><path class="cls-1" d="M18.12,32.31Z" transform="translate(-0.19 -0.33)"/><polygon class="cls-1" points="18.15 26.14 18.19 26.14 18.15 26.13 18.15 26.14"/><path class="cls-1" d="M17.47,32.47h0Z" transform="translate(-0.19 -0.33)"/><path class="cls-1" d="M17.35,32.63h0Z" transform="translate(-0.19 -0.33)"/><path class="cls-1" d="M17.21,32.73l.05,0h0Z" transform="translate(-0.19 -0.33)"/><path class="cls-1" d="M18.26,30.52h0S18.24,30.5,18.26,30.52Z" transform="translate(-0.19 -0.33)"/><path class="cls-1" d="M18.19,31.31s0,0-.05,0S18.12,31.27,18.19,31.31Z" transform="translate(-0.19 -0.33)"/><polygon class="cls-1" points="18.31 29.41 18.31 29.41 18.31 29.41 18.31 29.41"/><path class="cls-1" d="M18.16,31.23s0,0,0,0S18.18,31.25,18.16,31.23Z" transform="translate(-0.19 -0.33)"/><polygon class="cls-1" points="16.64 32.95 16.63 32.95 16.65 32.96 16.64 32.95"/><path class="cls-1" d="M16.84,33.29v0S16.86,33.3,16.84,33.29Z" transform="translate(-0.19 -0.33)"/><path class="cls-1" d="M16.88,33.34l0,0S16.84,33.32,16.88,33.34Z" transform="translate(-0.19 -0.33)"/><path class="cls-1" d="M17,33.14l0,0Z" transform="translate(-0.19 -0.33)"/><path class="cls-1" d="M17,33.07s-.11,0-.1,0l0,0C16.89,33.06,17.07,33.13,17,33.07Z" transform="translate(-0.19 -0.33)"/><path class="cls-1" d="M17.67,33.17l-.06,0c.05,0,.12,0,.12.07C17.9,33.3,17.62,33.22,17.67,33.17Z" transform="translate(-0.19 -0.33)"/><path class="cls-1" d="M17.82,33.07s.07,0,.09.06A.11.11,0,0,0,17.82,33.07Z" transform="translate(-0.19 -0.33)"/><path class="cls-1" d="M18.39,32l.11.07S18.46,32.08,18.39,32Z" transform="translate(-0.19 -0.33)"/><polygon class="cls-1" points="17.73 31.2 17.65 31.18 17.75 31.24 17.73 31.2"/><polygon class="cls-1" points="18.59 31.52 18.61 31.54 18.58 31.48 18.59 31.52"/><path class="cls-1" d="M19.71,30.1,19.57,30S19.74,30.14,19.71,30.1Z" transform="translate(-0.19 -0.33)"/><path class="cls-1" d="M19.88,29.12c.08,0,.14,0,.06-.06S19.87,29.1,19.88,29.12Z" transform="translate(-0.19 -0.33)"/><polygon class="cls-1" points="19.43 26.17 19.49 26.17 19.44 26.15 19.43 26.17"/></g></g></svg>