<svg xmlns="http://www.w3.org/2000/svg" width="55.94" height="52.8" viewBox="0 0 55.94 52.8"><defs><style>.cls-1{fill:#fff;}</style></defs><title>sword_1</title><g id="Layer_2" data-name="Layer 2"><g id="Sword"><path class="cls-1" d="M14.16,17.19s-.06-.13-.07-.1l.06.16Z"/><path class="cls-1" d="M13.87,17a.8.8,0,0,0,.13.35c-.05-.16,0-.1-.07-.28s.07,0,.09.08.05,0,0-.08-.13-.09-.12,0A.31.31,0,0,1,13.87,17Z"/><path class="cls-1" d="M11.51,17.9h0Z"/><path class="cls-1" d="M10.07,18.5a0,0,0,0,0,0,0Z"/><path class="cls-1" d="M9.76,18.45h0S9.76,18.43,9.76,18.45Z"/><path class="cls-1" d="M11.51,17.9l-.06,0C11.47,17.92,11.49,17.89,11.51,17.9Z"/><path class="cls-1" d="M13.74,17.51s0,0,0-.05v.05Z"/><path class="cls-1" d="M12.06,17.47h0l0-.06Z"/><path class="cls-1" d="M12.52,17.21a1.73,1.73,0,0,0,.07.19.3.3,0,0,1,0-.1Z"/><path class="cls-1" d="M13.38,17.06v0Z"/><path class="cls-1" d="M11.71,17.61l0,0Z"/><path class="cls-1" d="M9.55,14.38l0,0Z"/><polygon class="cls-1" points="10.47 14.48 10.47 14.49 10.52 14.55 10.47 14.48"/><path class="cls-1" d="M9.24,18.49h0S9.25,18.47,9.24,18.49Z"/><path class="cls-1" d="M6.19,19.79c-.16.16-.28.18-.44.37C5.83,20.09,6.09,19.9,6.19,19.79Z"/><path class="cls-1" d="M13.72,17.5h0S13.72,17.51,13.72,17.5Z"/><polygon class="cls-1" points="5.75 20.16 5.75 20.16 5.73 20.18 5.75 20.16"/><path class="cls-1" d="M8.27,19a.1.1,0,0,0,0,.05Z"/><path class="cls-1" d="M9.11,18.87h0Z"/><path class="cls-1" d="M8,19.37s0,0,0,0h0S7.94,19.36,8,19.37Z"/><polygon class="cls-1" points="7.55 19.55 7.57 19.57 7.58 19.56 7.55 19.55"/><path class="cls-1" d="M8.59,15.37l.1.07C8.62,15.38,8.64,15.3,8.59,15.37Z"/><path class="cls-1" d="M13.7,17.44a.1.1,0,0,1,0,.06h0Z"/><path class="cls-1" d="M8.38,20.4H8.3A.12.12,0,0,0,8.38,20.4Z"/><path class="cls-1" d="M6.28,17.69v0S6.27,17.67,6.28,17.69Z"/><path class="cls-1" d="M8.11,20.52A.19.19,0,0,0,8,20.44v0Z"/><path class="cls-1" d="M8.69,15.44Z"/><path class="cls-1" d="M8.81,14.88c-.05,0,.1.15.16.24S8.85,15,8.77,15s.08.23.05.25a.17.17,0,0,1-.06-.06c.06.14-.11.11,0,.29l0,0,.18.18s0,.13,0,.05,0-.05,0-.08l0,.06c-.14-.11,0-.08-.1-.17,0,.08,0,.24,0,.23s0-.11-.11-.18h.1c-.23-.16,0,0-.19-.19-.11,0,0,.13-.13.17.05.08.1.09.15.18s-.37-.24-.29,0,.2.26.07.23l-.11-.16c-.09.05.15.24,0,.21s0-.09,0-.1,0,.11,0,.15L8,15.9c0,.09,0,.25-.11.35s-.05-.09-.11-.11c0,.16-.23.2-.4.22l.07.15a.15.15,0,0,1-.07-.07c-.08,0,.06.07.08.13s-.09,0-.1-.07c0,.15,0,.37-.19.33v0c-.1,0,.15.27,0,.23v0c-.16.07-.2.3-.44.24.13.16-.19.05,0,.26-.18,0-.19-.09-.36-.06s.1.17.09.23l-.11-.11.07.16-.15-.11v.06a.23.23,0,0,1,.1.05c0,.1-.19.05-.25,0v.2a.21.21,0,0,1,0-.12c.06.17-.13-.1-.08.05l.09.09a.12.12,0,0,0-.17.11L5.84,18c-.1.07-.13.22-.22.32.07,0,.21.12.19.16l-.13-.09c.06.08.07,0,.13.12s-.16-.09-.18-.15v.09a.9.9,0,0,1-.09-.1c.07.07-.2,0-.1.14l0,0a3,3,0,0,0-.21.37c.12.06.06.1.14.17a.86.86,0,0,0-.36.28c0,.1.11.05.18.1-.14,0-.21.11-.27,0a.34.34,0,0,0,0,.36.33.33,0,0,1,.15,0s-.1.08-.17.09h0c.11.13-.53.57-.22.62h0l.14.09c0,.08-.1,0-.15.09.24.05.11.3.34.29-.22.36.35.14.33.38l0-.09c.1-.07,0,.07,0,.09s0-.08.07-.13a1.61,1.61,0,0,1,.58,0,2.46,2.46,0,0,0,.67,0c.18,0,0-.48.26-.33l0,.18a.69.69,0,0,1,.34-.22.4.4,0,0,0,.27-.17s0,.09,0,.09.15-.05.12-.14,0,.08.07.12,0-.18.11-.08,0,0,0,0,.12,0,0-.15c.09,0,.11-.11.19-.06,0-.16.15,0,.07-.19.09.21.2.12.2,0,0,.06.06,0,.08.14s.08-.08,0-.19c.19.21.09-.27.28,0a2.07,2.07,0,0,1,.3-.41c.09.2-.13.08,0,.29.09-.14.08-.35.22-.35s0,.1,0,.14c.08-.14.25-.09.3-.25a.13.13,0,0,1,0,.06s.06,0,0-.08v0c-.1-.12,0-.32-.08-.39.09.28.14,0,.24.38a.29.29,0,0,0,0-.14s.05,0,.06.12c0-.08,0-.17,0-.2a.5.5,0,0,1,0,.13c0-.11,0-.21.07-.2s0,.06,0,.07.06-.32.21-.28c.06.21.07,0,.16.21l0-.08-.06-.07s0-.17.11-.13v.08l.09-.07-.09,0c0-.11-.11-.21,0-.2s.06,0,.13.07h0c0-.07,0-.14.06-.11s.08.19.1.22c0-.15.1-.1.06-.26a1,1,0,0,0,.06.14l0-.12s.05,0,.08.11-.12-.2,0-.15,0,0,0,.05.13-.15.24-.13,0,.07,0,.2c.1-.09.14-.32.27-.33h0c-.1-.24.14.08.14-.06,0,0,0,.14,0,.11s.13-.13.2-.26l0,.07c.07,0,.13,0,.19,0s0-.07,0-.15c.32.28.18-.32.46-.1,0,0,0,.07,0,.07l.08-.11c-.06-.1,0-.06-.11-.13s0-.13,0-.14.08.16.13.21a.42.42,0,0,1,0-.1c.15.16-.1-.21,0-.13l0,.06s0-.13.05-.13,0,.07,0,.17,0-.27.08-.17,0,.06,0,.1.1.08.14.09h0l.11,0,0,0c-.1-.34.08-.11.05-.36,0,.23.05.12.11.26s.09.06.1.1c0-.13.1.05.07-.13,0,0,0,0,.09.1,0-.06,0-.07-.07-.13s.25.1.25-.16,0-.28,0-.4a.24.24,0,0,1,.05.17c.08,0,.11,0,.12-.06s0,.07.08.12-.06-.17,0-.13,0,.13.05.19,0-.16,0-.22,0,.13,0,.18a.25.25,0,0,0,0-.25l0,0s.06.1.06.13-.08,0-.1-.06v0c-.16-.24-.09.1-.16.11l-.07-.19,0,.18s-.1-.14-.09-.18,0,.08-.09,0a.08.08,0,0,1,0,0l0,.07s-.07-.13,0-.11c-.13-.07-.05.2-.15.07h0c-.07.11.06.14.07.34L13,17.11l.06.14s0,0-.06-.06c0,.12,0,.06.06.16-.11-.1-.11.13-.23-.08,0,.11.09.05.07.15-.14-.23,0,.07-.15,0s0-.09-.07-.17c.08.22-.11,0-.13.06s-.05.11-.09.2-.17,0-.26-.06v0c.07.17,0,.17,0,.23,0-.1-.06-.14-.05-.2l0,0a.14.14,0,0,1,0,.13L12,17.46s0,.2-.16.16c.06.12.22.29.18.4,0-.06-.09-.16-.08-.2s0,.07,0,.05l0-.12c-.05,0,0,.09,0,.1s-.05-.06-.08-.13,0,0,0,0a.25.25,0,0,1-.15-.1c0,.05.06.12,0,.14s-.08-.09-.13-.12-.05,0,0,.15-.05-.05-.08-.08-.13.08,0,.21h0c0,.18-.24,0-.31.13l0,0c0,.08-.12.09-.11.21s-.08-.06-.1-.12,0,.11-.11.06-.05-.06,0-.07c-.08,0-.13-.08-.13.07,0-.12-.11-.12-.12-.07l.08.06a.18.18,0,0,1-.09,0L10.6,18c-.2-.12-.06.41-.3.15,0,.12.1.05.13.18s-.22-.18-.24-.17,0,.25-.07.23c0,0,.12.19.08.27s-.17-.2-.16-.26,0,0,0,0a.1.1,0,0,0,0-.11v0c-.05,0-.12,0-.15-.09,0,.07,0,.09.07.11s-.11,0-.2,0,.06.08.05.09,0,.12-.06.18-.08-.21-.12-.1c-.07,0-.07-.14-.08-.19,0,.13-.15,0-.2,0l0-.05a.11.11,0,0,1,0,.05l.07.09s-.05,0-.07,0,.1.17.1.28,0,.1-.13,0c.11,0-.08-.14,0-.19a0,0,0,0,1-.06,0,.08.08,0,0,1,0,0c-.14-.09,0,.18,0,.21s-.09-.14-.1-.12.08.13.08.21,0,.07-.07.08h0c0,.09,0,.09,0,.13s0-.06,0-.08c0,.16-.16-.1-.18,0,0,0-.07-.15-.11-.18,0,.14-.12-.08-.15,0s.06.07.06.2l.08-.13v.19s0-.1.07-.09,0,.08,0,.16c-.12-.14,0,.14-.15.05l-.12-.27c-.14-.08-.09.21-.22.18l.05,0c0,.11-.06,0-.07.1a.62.62,0,0,0-.11-.17c0,.07-.08,0,0,.22l-.1-.1c-.11,0,0,.3-.09.3s-.08-.15,0-.25-.06,0,0,.07,0,.16-.08.08,0,.14,0,.15a.13.13,0,0,1,0-.05c0,.05,0,.08,0,.17-.2-.25-.23.13-.4-.09a.55.55,0,0,1-.17.14s0,0,0,0,.06.28-.07.22,0-.1,0-.14c-.13-.3-.09.08-.22-.07v0c-.08-.08-.06.16-.14.16l0,0a.42.42,0,0,1-.13.33c0-.13,0-.08,0-.19s.07.19,0,.24a.44.44,0,0,1-.13-.24l0,0c-.06-.16,0,0-.07,0v-.08s0,.25-.1.25v.06c-.06.23,0-.1-.09.07l0-.22a1,1,0,0,1-.19.3c.09-.18.15-.28.19-.38s-.06,0-.1.15,0-.09,0-.05-.15.28-.21.29c.22-.46-.08-.09.13-.45-.18.18,0-.07-.08,0-.38.38,0,0-.45.4,0,0,0,0,0,0A2.61,2.61,0,0,1,6,19.91a1.74,1.74,0,0,1,.22-.15,3.29,3.29,0,0,1,.32-.26c-.17.13-.25.18-.19.12l-.22.17c-.29.13.42-.29.15-.15l.16-.08L6,19.69l.22-.09s-.35,0-.11-.05h.1s-.18,0-.07,0h.1s-.16,0-.1,0h.1c.13,0-.21-.06-.22-.14a.84.84,0,0,0,.38.06h0c.07,0-.08-.19-.08-.33.24.09.27-.16.46-.17a.29.29,0,0,1-.12-.15s-.06-.17.09,0h0c.16.12.17,0,.21,0l-.19-.19c.38.16.15-.36.45-.18,0-.07,0-.1,0-.17l.1.1a.35.35,0,0,0,.19-.17l.06.09c.05,0-.24-.35-.2-.4l.16.14c.08-.09.29,0,.23-.25a.33.33,0,0,1,.06.08s.25,0,0-.23C8,17.7,8,17.5,8,17.4l.09.1c-.09-.16-.12-.2-.1-.28s.08.07,0,.06-.06-.13,0-.13l.05.09c.05,0,0-.07,0-.17s.11-.05.2,0S8.14,17,8.19,17a.27.27,0,0,1,.06.07c.13,0,0-.21.13-.16l.07.05c-.06.05-.11.09-.11.08s.15.06.24.22c0-.1-.12-.31,0-.31l0,0v0s0,0,0,0h.07c.08.07.09,0,.12,0s-.06-.11-.17-.17,0,0,0,0v0h0l0,.06c0-.07-.05-.13,0-.1l-.13-.19c.17.11.3.13.4.21,0-.13.12-.2,0-.43,0-.05.07,0,.11.05s0,0,0,.08.1-.14,0-.28c.11,0,.09.15.14.06l0,.05c.34.09-.1-.55.31-.41,0,0,0,0-.06,0,.28,0,.25-.45.6-.41.09,0,0-.1,0-.19l.11.1L10,15.13c0-.17.37.15.3-.11L10.22,15s.07-.14.14-.05-.06-.09,0-.06l.05.05v-.17c.1,0,.2.24.31.17a.49.49,0,0,0-.11-.29s-.07,0-.12-.06v-.06c-.15-.18-.29-.38-.47-.43l0,.16L10,14.15l0-.05c-.1,0-.05,0,0,.1a.22.22,0,0,0-.1-.07l.09.21c-.07-.06-.1-.16-.16-.16s.16.13.16.22c-.1-.06-.15-.13-.12,0a.28.28,0,0,1-.07-.11c0,.08,0,.09,0,.19-.11-.07-.06.11-.21,0,0,0,.07.17,0,.2-.13-.24-.1.07-.28-.15.12.21-.05.19,0,.34,0,0,0,0,0,0s-.1,0-.15,0c.12.15.1.23.16.35-.17-.11-.13-.2-.27-.32.11.12,0,.18.14.27A.72.72,0,0,1,9,14.88c.16.18,0,.06.08.19C8.94,15,8.9,14.91,8.9,15A.16.16,0,0,1,8.81,14.88Zm-.88,1.41h0l0,0Zm-.09.09,0,0s.06.07.05.08S7.88,16.4,7.84,16.38Zm.88.51s0,0-.05,0,0,0,0,0h0Z"/><path class="cls-1" d="M8.62,16.73v0h0l0,0Z"/><polygon class="cls-1" points="11.54 17.91 11.53 17.91 11.55 17.92 11.54 17.91"/><polygon class="cls-1" points="6.33 17.53 6.36 17.55 6.34 17.52 6.33 17.53"/><path class="cls-1" d="M12.41,18l0,0Z"/><path class="cls-1" d="M12.71,17.9l.07,0A.11.11,0,0,0,12.71,17.9Z"/><path class="cls-1" d="M13,17.85l0-.06h0Z"/><path class="cls-1" d="M9.52,19.71h0S9.51,19.74,9.52,19.71Z"/><path class="cls-1" d="M10.43,18.92V19S10.47,19,10.43,18.92Z"/><polygon class="cls-1" points="8.38 20.4 8.38 20.4 8.38 20.4 8.38 20.4"/><path class="cls-1" d="M10.38,19s0,0,0,0S10.38,19,10.38,19Z"/><polygon class="cls-1" points="13.94 17.42 13.96 17.42 13.95 17.4 13.94 17.42"/><path class="cls-1" d="M14,17.4v0S13.94,17.39,14,17.4Z"/><path class="cls-1" d="M14,17.34v0S14,17.37,14,17.34Z"/><path class="cls-1" d="M13.62,17.51l0,0Z"/><path class="cls-1" d="M13.54,17.57s.1.07.12,0l0,0C13.66,17.63,13.52,17.48,13.54,17.57Z"/><path class="cls-1" d="M12.89,17.19H13s-.09-.1-.06-.12C12.76,17,13,17.16,12.89,17.19Z"/><path class="cls-1" d="M12.63,17.24s0-.07-.05-.1S12.57,17.21,12.63,17.24Z"/><path class="cls-1" d="M11,18.06,10.92,18S10.94,18,11,18.06Z"/><polygon class="cls-1" points="10.94 18.81 11.01 18.87 10.97 18.76 10.94 18.81"/><polygon class="cls-1" points="10.36 18.08 10.36 18.06 10.33 18.13 10.36 18.08"/><path class="cls-1" d="M7.57,19.4l.07.14S7.59,19.34,7.57,19.4Z"/><path class="cls-1" d="M6.52,20c0-.08,0-.13,0,0S6.51,20,6.52,20Z"/><polygon class="cls-1" points="7.01 18.65 7.03 18.7 7.03 18.64 7.01 18.65"/><path class="cls-1" d="M17.65,13s.12.08.12.05L17.64,13Z"/><path class="cls-1" d="M18,13a.78.78,0,0,0-.28-.25c.11.11.05.08.19.22s-.07,0-.12,0-.05,0,0,.08.16,0,.1-.09A.35.35,0,0,1,18,13Z"/><path class="cls-1" d="M19.72,10.91h0Z"/><path class="cls-1" d="M20.66,9.52l0,0S20.68,9.52,20.66,9.52Z"/><path class="cls-1" d="M21,9.36h0S21,9.37,21,9.36Z"/><path class="cls-1" d="M19.72,10.91h.06S19.74,10.9,19.72,10.91Z"/><path class="cls-1" d="M17.89,12.5l0,0v0Z"/><path class="cls-1" d="M19.43,11.61h0l0,.05Z"/><path class="cls-1" d="M19.14,12.1S19,12,19,12a.21.21,0,0,1,.06.08Z"/><path class="cls-1" d="M18.43,12.71v0Z"/><path class="cls-1" d="M19.68,11.28l0,0Z"/><path class="cls-1" d="M15.94,9.92l0,0Z"/><polygon class="cls-1" points="14.98 9.89 14.98 9.87 14.93 9.82 14.98 9.89"/><path class="cls-1" d="M21.38,9Z"/><path class="cls-1" d="M22.14,3.88c0,.13-.19.14-.14.28C22,4.11,22.19,4,22.14,3.88Z"/><path class="cls-1" d="M17.91,12.49h0Z"/><path class="cls-1" d="M22,4.16Z"/><path class="cls-1" d="M21.89,7.86l-.06,0Z"/><path class="cls-1" d="M21.29,8.58l0,0Z"/><path class="cls-1" d="M21.92,7.34s0,0,0,0h0S21.94,7.34,21.92,7.34Z"/><polygon class="cls-1" points="22.12 6.89 22.09 6.89 22.09 6.91 22.12 6.89"/><path class="cls-1" d="M16.94,8.85l-.1-.07C16.91,8.85,16.88,8.92,16.94,8.85Z"/><path class="cls-1" d="M18,12.54l-.05,0v0S17.94,12.54,18,12.54Z"/><path class="cls-1" d="M20.92,6.85l0-.06S20.94,6.83,20.92,6.85Z"/><path class="cls-1" d="M19.48,6.54v0S19.49,6.55,19.48,6.54Z"/><path class="cls-1" d="M21.05,6.58h.11l0,0Z"/><path class="cls-1" d="M16.84,8.78Z"/><path class="cls-1" d="M16.7,9.37c.06,0-.1-.16-.16-.24s.12.07.21.11S16.67,9,16.7,9s0,0,.06.05c-.06-.14.12-.12,0-.3l0,0a1.7,1.7,0,0,1-.19-.18s0-.13.06,0,0,0,0,.08V8.57c.14.11,0,.08.1.17,0-.09,0-.24,0-.24s-.05.12.1.18h-.1c.23.15-.05,0,.19.19.11,0,0-.14.13-.18s-.1-.1-.15-.18c0-.23.38.23.31,0s-.2-.26-.07-.23l.12.15c.08,0-.15-.24,0-.21s0,.1,0,.1,0-.11,0-.15l.12.12c.06-.09.07-.26.13-.37,0,0,.05.1.11.12.05-.17.25-.2.42-.23l-.06-.14s.07,0,.07.06-.06-.07-.07-.13.08,0,.1.08c0-.16,0-.39.21-.34l0,0c.1,0-.13-.29,0-.24v0c.17-.07.23-.3.48-.22-.12-.17.19,0,0-.27.17,0,.18.11.35.09s-.07-.18-.06-.23l.1.12-.05-.17.14.12V6.56s-.07,0-.1-.06.2,0,.25,0l0-.2s0,.09,0,.13c0-.18.11.12.08,0a.67.67,0,0,1-.07-.11.13.13,0,0,0,.19-.07l.05.09c.11,0,.17-.2.27-.28-.06,0-.17-.16-.15-.2l.11.12c0-.09-.07,0-.1-.15s.14.13.15.19V5.93s0,.06.07.11.18.07.11-.09l0,0c.1-.08.12-.16.2-.23-.08-.12,0-.11-.07-.22s.23,0,.3,0-.05-.11-.07-.19c.07.1.14,0,.15.14.09-.08.09-.09.14-.23s-.06-.06-.07-.1.06,0,.09.08v0c0-.12.12-.08.18,0s.06.16.07,0v0a1.21,1.21,0,0,1,.05-.18s0,.12,0,.21c.09-.27,0,0,.14-.16-.1.24-.1.23-.07.21s.1,0,0,.08l.09-.09c.1-.08-.05.06-.07.08l.14-.13c.14,0-.16.25-.23.2s.46.08.22.14l-.16-.07c.15.19-.11.31,0,.56,0,0-.07,0-.07-.06s-.05.14,0,.18-.08,0-.13,0,.1.16,0,.13,0,0,0,0-.06.11.07.14c-.09,0,0,.15-.09.18.12.1-.13.08.07.18-.21-.09-.23.05-.15.14s-.08,0-.16,0,0,.11.11.15c-.29,0,.1.28-.23.18a1.59,1.59,0,0,1,0,.53c-.19-.11.06-.16-.15-.26,0,.17.15.33,0,.43s-.07-.07-.1-.09c0,.16-.15.23-.1.39a.1.1,0,0,1,0,0s-.06,0,0,.08l0,0c.15,0,.23.23.29.28-.23-.18-.12.07-.41-.17a.19.19,0,0,0,.1.1s-.07,0-.12-.06c0,.1.11.13.07.2l-.1-.09c.07.08.13.17.06.21s-.06,0-.05-.05.13.3,0,.37c-.17-.14-.08,0-.25-.09l0,.09.09,0c0,.05.06.17,0,.18l-.05-.08,0,.12.09,0c.05.1.21.11.12.16s0,.05-.14,0h0c0,.06.07.11,0,.13a1.93,1.93,0,0,1-.21-.13c.12.11,0,.15.09.26a.38.38,0,0,0-.13-.08l.09.08c-.05,0-.07,0-.13-.05s.22.1.08.14a.06.06,0,0,1,0-.05c-.1.06,0,.21-.14.26s0-.09-.15-.15c0,.13.05.36-.05.44h0c.21.16-.17,0-.09.14s-.12-.1-.09-.08,0,.19,0,.35l-.05-.05c-.08,0-.11.1-.16.13s0,.07.11.11c-.42-.06,0,.39-.36.35,0,0,0-.07,0-.06l0,.14c.1.06.07,0,.16.05a.17.17,0,0,1,.06.14c0-.09-.16-.1-.23-.11l.09.06c-.21-.06.19.13,0,.14l0,0s0,.12,0,.14,0-.06-.13-.13.16.23,0,.2,0-.07,0-.11-.13,0-.17,0h0l-.11,0h0c.26.25,0,.15.12.35-.13-.19-.09-.08-.22-.17a.19.19,0,0,1-.13,0c.08.1-.12,0,0,.15,0,0,0,0-.12,0,0,.07.08,0,.12.08s-.28,0-.15.28.14.25.15.38c-.08,0-.13-.13-.13-.13s-.1.05-.08.12a.34.34,0,0,0-.12-.06s.13.12,0,.12a.92.92,0,0,1-.14-.14c0,.07.06.16.07.22s-.09-.1-.13-.14a.28.28,0,0,0,.09.25H18s-.1-.06-.12-.09.08,0,.12,0v.05c.26.13,0-.15.1-.19l.15.14-.1-.16c.05,0,.15.07.16.12s0-.08.08-.05,0,0,0,0l0-.07s.13.07.08.08c.15,0,0-.21.1-.15v0c0-.14-.12-.1-.22-.27l.35.15-.12-.09s0,0,.08,0-.06,0-.12-.1c.15,0,0-.18.25-.06-.09-.08-.11,0-.14-.1.23.13,0-.08.14-.07s0,.1.14.12c-.17-.16.1-.07.09-.13s0-.13,0-.23.16-.07.26-.09h0c-.14-.11-.07-.15-.07-.22s.12.09.14.15l0-.05a.15.15,0,0,1-.06-.11l.11.08c0-.06-.06-.2.07-.23-.11-.07-.34-.13-.36-.26.06,0,.16.1.17.14s0-.06,0-.06l.08.1c.06,0-.07-.07-.05-.1s.08,0,.14.07-.05,0,0,0a.22.22,0,0,1,.18,0c-.05,0-.12-.07-.11-.1s.11,0,.17,0,0-.05-.08-.13.07,0,.1,0,.08-.15-.08-.2h0c-.06-.18.2-.16.21-.3l0,0c0-.09,0-.15,0-.25s.1,0,.15,0,0-.1.06-.13.07,0,0,.08.15,0,.08-.14c.09.09.16,0,.14,0h-.1s0-.06.06-.08l.13.1c.25,0-.16-.4.18-.32-.08-.09-.11,0-.21-.07.06,0,.3,0,.31,0s-.17-.2-.07-.25c-.05,0-.2-.09-.21-.18s.26.06.28.12,0,0,0,0,0,.07.08.08l-.05,0c.07,0,.11-.08.19,0a.08.08,0,0,0-.12-.05c.11,0,.06-.11.16-.16l-.1,0c.13-.07-.07-.11-.05-.19s.18.12.16,0,.14.06.18.11c-.07-.13.13-.1.17-.13l0,.06a.06.06,0,0,1,0-.07l-.11,0s0,0,.08,0-.18-.08-.25-.17,0-.12.14-.06c-.1.07.14.07.12.16s0,0,0,0a0,0,0,0,1,0,0c.18,0-.13-.13-.08-.22.07.06.16.06.15,0s-.14-.06-.18-.12,0-.09,0-.11h-.05c-.07-.05,0-.07,0-.13s0,.06.06.06c-.12-.12.19,0,.13-.13s.15.07.2.07.15,0,.1-.14-.09,0-.16-.13v.16l-.12-.15s0,.11,0,.12,0-.06-.14-.09c.19,0,0-.15.1-.15l.26.14c.16,0-.05-.23.07-.31l-.06,0c-.1-.07,0-.08,0-.14a.42.42,0,0,0,.2,0c-.07,0,0-.08-.13-.18h.14c.1-.07-.19-.23-.12-.31.08.08.16.07.2.16s0,0,0-.08-.08-.14,0-.13-.12-.08-.1-.11l.05,0c-.05,0,0-.09-.15-.1.32,0,.1-.27.37-.24a.88.88,0,0,1,0-.24s0,0,0,0-.24-.16-.1-.22.05.08.12.08c.31.11,0-.14.21-.13v0c.12,0-.07-.17,0-.24h0a.46.46,0,0,1-.16-.34c.11.07,0,.06.18.08s-.2-.05-.22-.13a1.15,1.15,0,0,1,.29,0v.08c.18,0,0-.1.06-.14l.08,0c0-.14-.19-.19-.14-.32h-.07c-.18-.06.13-.07,0-.13l.21-.06s-.19-.14-.21-.21c.14,0,.21.08.3.15s0-.2-.11-.2.07,0,0,.06-.22-.06-.22-.15c.36-.17.08-.3.27-.55-.19-.08-.2-.38-.45-.46-.07.3-.06,0-.2.27,0,0-.07,0-.06,0L21.92,4c0-.1.08-.06.1-.13s0-.14-.07-.22c0,.11-.09.16-.16.13l.07.13c-.21.19-.1-.25-.32-.06l.07-.11c-.1.06-.4.13-.45.4,0,0-.06-.1,0-.14-.29,0-.32.45-.53.38l0-.07s0,.15-.06.11,0-.07,0-.07,0,.16-.07.14l0-.09c-.18,0-.08.31-.16.42a.32.32,0,0,0-.33-.17l0,0c-.16.08-.13.33-.21.49-.22-.13-.33.12-.53.12a.22.22,0,0,1,.09.17c-.06,0,0,.18-.11,0h0c-.15-.14-.18,0-.23,0l.16.21c-.36-.2-.22.37-.51.16,0,.07,0,.1,0,.18l-.09-.11a.36.36,0,0,0-.23.17l-.05-.1c-.06,0,.2.37.15.42l-.15-.15c-.1.09-.31,0-.28.26,0,0-.06-.07-.05-.09s-.26,0-.05.24c-.13-.14-.11.08-.11.18l-.08-.11c.07.17.1.21.08.3s-.09-.07-.05-.06.06.13-.05.12l0-.08c-.05,0,0,.07,0,.17s-.11,0-.2,0,.09.16,0,.16a.45.45,0,0,1-.05-.08c-.14,0,0,.23-.15.18a.17.17,0,0,0-.07-.06c.07,0,.12-.09.13-.08s-.16-.07-.24-.23c0,.11.1.33,0,.33l0,0v0s0,0,0,0h-.06c-.08-.07-.1,0-.13,0s.05.12.16.17,0,0,0,0a0,0,0,0,0,0,0v0L17,7.37c0,.07,0,.13,0,.1l.11.2c-.16-.11-.3-.13-.39-.21,0,.13-.15.21,0,.45,0,0-.08,0-.11,0s0-.05,0-.08-.11.14,0,.28c-.11,0-.09-.15-.14-.05l0,0c-.35-.08.08.56-.34.45a.07.07,0,0,1,.06,0c-.3.05-.27.47-.64.46-.08,0,0,.11,0,.2L15.41,9l.07.18c0,.17-.4-.13-.32.13l.08.06c-.05,0-.07.15-.14.06s.06.09,0,.07l-.06-.06v.18c-.1,0-.21-.23-.32-.15s.06.27.12.29.07,0,.12.05v.06c.16.18.3.37.5.41l-.05-.16.1.06,0,.05c.1,0,0,0,0-.09a.41.41,0,0,0,.11.06l-.1-.21c.07.06.1.15.18.15s-.17-.12-.18-.21.16.12.12,0a.23.23,0,0,1,.08.11c0-.08,0-.1,0-.2.12.07.07-.12.22,0a.41.41,0,0,1-.06-.2c.14.24.11-.08.3.13-.14-.2.05-.19,0-.35,0,0,0,0,0,0s.11,0,.16,0c-.13-.14-.11-.23-.16-.34.17.09.13.19.27.3-.11-.11,0-.18-.14-.26a.51.51,0,0,1,.2.11c-.17-.18,0-.06-.08-.19.13,0,.17.15.17.05S16.7,9.37,16.7,9.37Zm.95-1.48h0l0,0Zm.1-.1-.05,0s-.06-.07-.05-.08S17.71,7.77,17.75,7.79Zm-.88-.51s0,0,.05,0,0,0,0,0h0Z"/><path class="cls-1" d="M17,7.45h0l0,0Z"/><path class="cls-1" d="M19.68,10.92h0Z"/><polygon class="cls-1" points="19.41 6.69 19.38 6.67 19.39 6.7 19.41 6.69"/><path class="cls-1" d="M18.85,11.33h0Z"/><path class="cls-1" d="M18.64,11.6h0Z"/><path class="cls-1" d="M18.44,11.78l0,0h0Z"/><path class="cls-1" d="M20.45,8.14h0S20.44,8.12,20.45,8.14Z"/><path class="cls-1" d="M20.13,9.38l0-.07S20.06,9.34,20.13,9.38Z"/><polygon class="cls-1" points="20.92 6.86 20.92 6.86 20.92 6.85 20.92 6.86"/><path class="cls-1" d="M20.12,9.26s0,0,0,.05S20.13,9.29,20.12,9.26Z"/><polygon class="cls-1" points="17.75 12.68 17.74 12.69 17.75 12.7 17.75 12.68"/><path class="cls-1" d="M17.75,12.7v0Z"/><path class="cls-1" d="M17.77,12.77v0S17.74,12.74,17.77,12.77Z"/><path class="cls-1" d="M18,12.43l0,0Z"/><path class="cls-1" d="M18,12.34s-.12,0-.11,0l0,0C17.9,12.34,18.1,12.41,18,12.34Z"/><path class="cls-1" d="M18.81,12.32l-.08,0c.05,0,.13,0,.11.08C19,12.45,18.73,12.41,18.81,12.32Z"/><path class="cls-1" d="M19,12.13c0,.06.07,0,.09.07S19.09,12.13,19,12.13Z"/><path class="cls-1" d="M20.11,10.44l.11.08S20.17,10.49,20.11,10.44Z"/><polygon class="cls-1" points="19.74 9.78 19.66 9.77 19.75 9.84 19.74 9.78"/><polygon class="cls-1" points="20.64 10.05 20.65 10.07 20.64 10 20.64 10.05"/><path class="cls-1" d="M22.2,7l-.15,0S22.23,7.08,22.2,7Z"/><path class="cls-1" d="M22.58,5.45c.09,0,.15-.09.08-.12S22.57,5.43,22.58,5.45Z"/><polygon class="cls-1" points="18.9 5.47 18.89 5.41 18.87 5.48 18.9 5.47"/><path class="cls-1" d="M1.23.87S1.12.79,1.12.82l.14.1Z"/><path class="cls-1" d="M.89.86a1,1,0,0,0,.31.22C1.07,1,1.14,1,1,.88c0,0,.07,0,.12,0s0,0,0-.08S.92.82,1,.91A.31.31,0,0,1,.89.86Z"/><path class="cls-1" d="M.34,3.29v0A0,0,0,0,0,.34,3.29Z"/><path class="cls-1" d="M1,4.77H1S1,4.78,1,4.77Z"/><path class="cls-1" d="M1.05,5.1v0S1,5.11,1.05,5.1Z"/><path class="cls-1" d="M.34,3.29l0,.06S.33,3.32.34,3.29Z"/><path class="cls-1" d="M1.1,1.32s0,0,0,0v0Z"/><path class="cls-1" d="M.07,2.59v0H0Z"/><path class="cls-1" d="M.06,2l.2,0C.2,2,.17,2,.16,2Z"/><path class="cls-1" d="M.53,1.2v0Z"/><path class="cls-1" d="M.1,3h0Z"/><path class="cls-1" d="M10.78,13.27h0Z"/><polygon class="cls-1" points="10.05 13.9 10.04 13.89 9.96 13.87 10.05 13.9"/><path class="cls-1" d="M1.25,5.61h0S1.24,5.61,1.25,5.61Z"/><path class="cls-1" d="M4.83,8.39c0-.13.16-.08.18-.24C5,8.2,4.82,8.29,4.83,8.39Z"/><path class="cls-1" d="M1.08,1.33h0A0,0,0,0,0,1.08,1.33Z"/><polygon class="cls-1" points="5.01 8.15 5.01 8.15 5.01 8.13 5.01 8.15"/><path class="cls-1" d="M2.15,6.36l0-.06Z"/><path class="cls-1" d="M1.67,5.62v0Z"/><path class="cls-1" d="M2.62,6.49s0,0,0,0v0S2.61,6.52,2.62,6.49Z"/><polygon class="cls-1" points="2.97 6.78 2.98 6.75 2.96 6.75 2.97 6.78"/><path class="cls-1" d="M10.25,11.74l-.1.08C10.23,11.77,10.3,11.82,10.25,11.74Z"/><path class="cls-1" d="M1,1.29l.05,0v0Z"/><path class="cls-1" d="M3.34,5.65l0,.06S3.36,5.67,3.34,5.65Z"/><path class="cls-1" d="M7.93,9.26h0Z"/><path class="cls-1" d="M3.55,5.83a.22.22,0,0,0,0,.1l0,0Z"/><path class="cls-1" d="M10.15,11.82Z"/><path class="cls-1" d="M10.68,12.18c0-.08-.18,0-.29.05s.11-.09.19-.16c-.07,0-.24,0-.25-.05s0,0,.07,0c-.16,0-.09-.16-.29-.14l0,0a1.38,1.38,0,0,1-.22.13s-.13,0,0-.06,0,0,.08,0H9.92c.14-.11.08,0,.19,0-.08,0-.24,0-.23-.1s.11.08.21-.06l0,.11c.2-.19,0,.05.23-.14,0-.13-.14-.07-.15-.19-.09,0-.11.08-.21.11s.29-.33,0-.3-.29.16-.24,0l.17-.09c-.05-.09-.26.12-.22,0s.1,0,.11,0-.12,0-.15,0L9.78,11c-.09-.06-.26-.07-.36-.14s.1,0,.12-.1c-.16-.07-.19-.26-.22-.43l-.15.06a.13.13,0,0,1,.06-.07c0-.08-.06.06-.12.08s0-.08.07-.1c-.16,0-.38,0-.34-.19l0,0c0-.09-.27.16-.23,0h0c-.08-.16-.31-.19-.26-.43-.16.14-.07-.18-.27,0,0-.17.08-.19,0-.36S8,9.45,8,9.44l.1-.11-.15.08L8,9.25H8a.14.14,0,0,1,0,.11c-.1,0-.06-.18,0-.24H7.7a.3.3,0,0,1,.11-.06c-.16.07.09-.14-.06-.07s-.06.07-.08.09a.12.12,0,0,0-.11-.16l.07-.08c-.07-.09-.22-.1-.32-.18,0,.07-.11.21-.15.2l.08-.14c-.08.07,0,.07-.12.14s.09-.17.14-.19H7.18l.09-.1c-.08.06,0-.19-.11-.08l0,0c-.11-.07-.19-.06-.27-.12-.09.12-.1.07-.19.14,0-.08,0-.22-.12-.27s-.09.09-.16.14c.07-.11,0-.15.08-.2a.51.51,0,0,0-.3-.05c0,.05,0,.08-.05.11s0-.08,0-.13h0c-.24.07-.07-.51-.33-.36h0l-.18,0s.08-.06.09-.15c-.23.1-.15-.15-.33-.1.15-.36-.27-.16-.22-.42l0,.07c-.07.06,0-.06,0-.09s0,.09-.07.11c-.27-.06-.35-.41-.51-.63s-.32.34-.29.09l.13-.11c-.27,0-.31-.24-.56-.22,0,0,.06-.06.07,0s-.11-.1-.17,0,0-.07.07-.12-.17.06-.12,0,0,0,.05,0-.09-.08-.15,0c0-.09-.15,0-.14-.13-.13.09,0-.14-.19,0,.14-.18,0-.22-.08-.17s0-.08.09-.14-.1,0-.17.07c.1-.27-.29,0-.1-.25a1.58,1.58,0,0,1-.48-.09c.15-.17.12.08.28-.1-.16,0-.35.08-.4,0s.08-.06.12-.08c-.16,0-.16-.18-.32-.17a.07.07,0,0,1,.06,0s0-.06-.09,0h0c-.08.13-.29.16-.35.21.24-.18,0-.13.29-.35a.25.25,0,0,0-.12.08s0-.07.09-.1c-.09,0-.15.07-.2,0a.41.41,0,0,1,.11-.07c-.09,0-.19.07-.2,0s.05,0,.06,0-.31,0-.31-.11c.18-.12,0-.08.17-.2H1.74l-.06.07s-.16,0-.14-.07l.08,0-.08,0,0,.08c-.11,0-.18.15-.18.06s0,0,0-.13h0c-.07,0-.14,0-.12,0a1.86,1.86,0,0,1,.2-.14c-.15.07-.1-.08-.26,0a.47.47,0,0,0,.14-.08l-.12,0s0,0,.1-.09-.18.15-.15,0,0,0,.06,0-.16-.11-.15-.21.07,0,.2-.06C1.18,3.69,1,3.66,1,3.54v0c-.24.09.09-.13,0-.13,0,0,.14,0,.11,0s-.1-.12-.22-.2H.85c0-.06,0-.12,0-.17s-.07,0-.16,0c.35-.22-.25-.25.05-.43,0,0,.06,0,.06,0a.61.61,0,0,1-.07-.1c-.12,0-.07,0-.16,0s-.12,0-.12-.07.18,0,.25,0a.4.4,0,0,0-.11,0c.2-.07-.24,0-.1-.09H.56S.45,2.34.47,2.3s.06,0,.17,0S.39,2.24.52,2.2s0,.06.08.08.11,0,.14-.08h0l.07-.07,0,0c-.34-.1,0-.12-.26-.24C.71,2,.63,2,.78,2A.36.36,0,0,1,.92,2c-.11-.05.1,0-.06-.11,0,0,0,0,.12,0s-.08,0-.14,0,.24-.1.05-.26-.2-.19-.25-.3a.28.28,0,0,1,.16.08c.08,0,.07-.05,0-.11l.13,0S.82,1.19.91,1.17a1.67,1.67,0,0,1,.16.12c0-.06-.09-.13-.11-.19a.32.32,0,0,1,.15.12A.27.27,0,0,0,1,1H.93s.11,0,.12.06-.07,0-.11,0L.92,1c-.27-.1,0,.14-.06.18L.69,1.11l.12.13c-.05,0-.16,0-.18-.09s.06.07-.06.07l0,0,0,.07S.44,1.22.47,1.2c-.14,0,.1.19,0,.17v0c0,.14.14.07.28.2L.31,1.5l.14.05s0,0-.08,0,.06,0,.15.06c-.16,0,0,.17-.21.13.11,0,.09,0,.16,0-.26,0,0,.08-.09.11s0-.08-.18,0c.22.07-.07.1,0,.15.19,0,0,.11.12.2s-.1.14-.17.21h0c.19,0,.15.09.19.14a.28.28,0,0,1-.2,0v0a.15.15,0,0,1,.11.06H0c0,.07.18.12.1.22.13,0,.35-.11.45,0a.57.57,0,0,1-.22,0s.06,0,0,0l-.12,0c0,.05.1,0,.1,0s-.07,0-.15.05,0,0,0,0A.26.26,0,0,1,.1,3S.23,3,.24,3s-.11,0-.15.1,0,.06.15,0-.06,0-.1,0,.07.16.21.08h0c.17.06,0,.25.09.34l-.05,0c.08,0,.1.12.22.12s-.07.08-.12.1.1,0,.06.12-.06,0-.08,0c0,.09-.07.14.08.14-.12,0-.11.12-.06.13l.05-.08a.08.08,0,0,1,0,.08l-.15.07c-.09.23.43,0,.2.31.12,0,0-.11.16-.16s-.15.26-.13.28.24-.08.25,0c0,0,.16-.14.24-.13S1,4.82,1,4.81s0,0,0,0a.09.09,0,0,0-.1.05l.05,0c0,.07,0,.13-.06.18C1,5,1,4.92,1,4.88c0,.11.08.1.09.2S1.11,5,1.12,5s.12,0,.19,0-.17.13-.06.14-.11.11-.16.13c.13,0,0,.16,0,.2H1.08a0,0,0,0,1,.06,0l.07-.1s0,.05,0,.08.13-.15.24-.18.11,0,0,.14c0-.11-.11.12-.19.07s0,0,0,0a.05.05,0,0,1,0,0c0,.17.16-.09.23,0s-.11.13-.08.13.09-.11.17-.14.08,0,.1,0v0c.08-.05.09,0,.14,0s-.06,0-.07,0c.14-.08,0,.19.08.16s-.11.12-.12.17,0,.15.1.13,0-.08.16-.13l-.15,0L2,5.84s-.11,0-.12,0,.07,0,.13-.1c-.09.16.15,0,.11.12L1.89,6c0,.16.23,0,.27.14V6.1c.09-.07.07,0,.13,0a.39.39,0,0,0-.1.17s.06.07.19-.07l0,.13c0,.1.27-.15.31-.06s-.1.14-.2.16,0,0,.08,0,.15,0,.11,0,.11-.1.13-.07l0,0s.08,0,.13-.12c-.13.3.21.15.11.4l.21.07s0,0,0,0,.22-.19.23-.06-.09,0-.11.11c-.19.26.12,0,0,.22h0c0,.12.17,0,.22,0l0,0a.49.49,0,0,1,.34-.08c-.09.09-.06,0-.13.15s.12-.17.19-.16a.61.61,0,0,1-.1.26l0,0c-.08.16.07,0,.08.09l0,.06c.09,0,.21-.12.28,0l0,0c.16-.12,0,.12.11,0l-.11.17a1.33,1.33,0,0,1,.3-.06,1.27,1.27,0,0,1-.32.15.15.15,0,0,0,.19,0s-.07,0-.06,0,.22-.12.28-.07c-.24.3.1.19,0,.46.19,0,.18.21.31.28.13-.28,0,0,.22-.24,0,0,0,0,0,0l0,.21c0,.09-.07,0-.11.09s0,.13,0,.22c.06-.09.11-.11.13-.05l0-.15c.18-.07-.08.26.11.2L5,8.72c.08,0,.17.13.36,0,0,0,0,.11-.08.11s.39,0,.39.15l0,.05s.11-.08.1,0-.06,0-.05.06.13-.07.13,0l-.07.05c0,.16.28-.05.4,0a.34.34,0,0,0-.07.35l0,0c.11.12.32,0,.48,0-.07.24.18.25.21.44,0,0,.1-.13.14-.13s.16-.07,0,.09h0c-.11.17,0,.17,0,.21l.17-.21c-.14.39.37.12.21.43.06,0,.09,0,.16,0l-.09.11a.29.29,0,0,0,.17.17l-.08.06c0,.05.33-.25.38-.22l-.13.17c.09.07,0,.28.25.21,0,0-.07.07-.08.06s0,.24.23,0c-.13.14.07.09.17.07l-.11.1c.16-.1.2-.13.28-.11s-.07.09-.06,0,.13-.07.12,0l-.08,0c0,.05.06,0,.16,0s.05.1,0,.19.16-.09.16,0a.25.25,0,0,1-.08,0c0,.13.21,0,.15.14l0,.06c-.05-.06-.08-.11-.07-.11s-.07.14-.23.23c.1,0,.31-.11.3,0l0,0h0s0,0,0,0a.13.13,0,0,0,0,.06c-.08.07,0,.08,0,.11s.11,0,.18-.15h0s0,0,0,0h0l-.06,0c.07,0,.14-.05.1,0l.2-.11a4.12,4.12,0,0,1-.25.36c.11,0,.16.13.41,0,0,0,0,.07-.08.1s0,0-.07,0,.11.1.27,0c0,.1-.16.06-.09.12H9.26c-.18.29.57,0,.3.37l0-.05c-.06.25.32.37.1.64,0,.06.08.05.18.07l-.15,0,.18,0c.13.09-.36.18-.11.27h.1s.05.13-.06.12.1,0,.05,0H9.82l.12.1c-.06.07-.31,0-.33.06a.5.5,0,0,0,.27.14s0,0,.13,0l0,.05c.23,0,.46.14.63,0l-.13-.11h.12v.07c.11,0,0-.06,0-.1l.12,0-.21-.11c.09,0,.18.06.23,0s-.2,0-.27-.05c.11,0,.2,0,.11-.07a.17.17,0,0,1,.12,0c-.06,0,0-.12-.14-.14.12,0-.05-.14.17-.15-.05,0-.18-.06-.19-.1.27.05,0-.15.29-.17-.24,0-.14-.18-.29-.24,0,0,.06,0,0,0s.07-.09.11-.13c-.2,0-.26,0-.38,0,.16-.11.23,0,.4-.09-.16,0-.19-.07-.31,0a.57.57,0,0,1,.19-.13c-.23.07-.06,0-.21,0,.09-.11.21-.1.11-.14C10.57,12.14,10.68,12.18,10.68,12.18ZM9.39,10.9h0l0,0Zm-.1-.11a.1.1,0,0,0,0,.05s-.08.07-.08.06S9.28,10.84,9.29,10.79Zm-.56.85s0,0,0-.05l0,0h0Z"/><path class="cls-1" d="M8.9,11.55h0l0,0,0,0Z"/><path class="cls-1" d="M.35,3.27Z"/><polygon class="cls-1" points="8.09 9.3 8.07 9.32 8.1 9.31 8.09 9.3"/><path class="cls-1" d="M.71,2.49h0Z"/><path class="cls-1" d="M.74,2.2l.05,0Z"/><path class="cls-1" d="M.84,2h0Z"/><path class="cls-1" d="M2.33,5h0Z"/><path class="cls-1" d="M1.37,4.34h.07S1.43,4.29,1.37,4.34Z"/><polygon class="cls-1" points="3.34 5.65 3.34 5.65 3.34 5.65 3.34 5.65"/><path class="cls-1" d="M1.47,4.37s0,0,0,0S1.44,4.37,1.47,4.37Z"/><polygon class="cls-1" points="1.2 1.16 1.21 1.15 1.19 1.14 1.2 1.16"/><path class="cls-1" d="M1.19,1.14v0Z"/><path class="cls-1" d="M1.16,1.08l0,0S1.2,1.11,1.16,1.08Z"/><path class="cls-1" d="M1,1.39l0,0Z"/><path class="cls-1" d="M1,1.47s.12,0,.1,0l0,0C1.13,1.45.93,1.42,1,1.47Z"/><path class="cls-1" d="M.28,1.66a.19.19,0,0,1,.06-.07c-.06,0-.14,0-.14,0C0,1.61.32,1.55.28,1.66Z"/><path class="cls-1" d="M.15,1.92s-.08,0-.11,0S.1,2,.15,1.92Z"/><path class="cls-1" d="M.47,3.88l-.12.05S.4,3.91.47,3.88Z"/><polygon class="cls-1" points="1.22 3.88 1.27 3.81 1.16 3.86 1.22 3.88"/><polygon class="cls-1" points="0.55 4.53 0.53 4.53 0.6 4.56 0.55 4.53"/><path class="cls-1" d="M2.83,6.83l.09-.13S2.77,6.84,2.83,6.83Z"/><path class="cls-1" d="M4,7.52c0,.07,0,.13,0,.08S4,7.51,4,7.52Z"/><polygon class="cls-1" points="7.02 10.06 6.97 10.09 7.04 10.08 7.02 10.06"/><path class="cls-1" d="M.69.51s.05.13.07.1L.71.45Z"/><path class="cls-1" d="M1,.73A.86.86,0,0,0,.89.36c0,.16,0,.1,0,.29,0,0-.06,0-.08-.09S.78.54.81.64s.13.1.13,0A.49.49,0,0,1,1,.73Z"/><path class="cls-1" d="M3.41.86v0S3.4.85,3.41.86Z"/><path class="cls-1" d="M4.67,1.65l0,0Z"/><path class="cls-1" d="M4.76,2v0S4.75,2,4.76,2Z"/><path class="cls-1" d="M3.41.86l0,.06C3.45.87,3.42.88,3.41.86Z"/><path class="cls-1" d="M1.19.22a.43.43,0,0,0,0,.05l0,0Z"/><path class="cls-1" d="M2.76.85h0l0,.06Z"/><path class="cls-1" d="M2.28.85a1.54,1.54,0,0,0,0-.19c0,.06,0,.08,0,.1Z"/><path class="cls-1" d="M1.47.73v0Z"/><path class="cls-1" d="M3.09.94v0Z"/><path class="cls-1" d="M14.19,9.36v0A0,0,0,0,0,14.19,9.36Z"/><polygon class="cls-1" points="14.83 9.99 14.82 10 14.83 10.08 14.83 9.99"/><path class="cls-1" d="M5,2.39H5S5,2.39,5,2.39Z"/><path class="cls-1" d="M7.89,5.7c.07-.12.18,0,.24-.18C8.09,5.56,7.91,5.6,7.89,5.7Z"/><path class="cls-1" d="M1.21.23s0,0,0,0Z"/><polygon class="cls-1" points="8.13 5.52 8.13 5.52 8.14 5.51 8.13 5.52"/><path class="cls-1" d="M5.8,3.09l0,0Z"/><path class="cls-1" d="M5.38,2.37v0Z"/><path class="cls-1" d="M6.23,3.28s0,0,0,0h0S6.22,3.31,6.23,3.28Z"/><polygon class="cls-1" points="6.52 3.62 6.54 3.6 6.52 3.59 6.52 3.62"/><path class="cls-1" d="M13.06,9.21l0,.13C13.07,9.24,13.13,9.23,13.06,9.21Z"/><path class="cls-1" d="M1.22.3a.26.26,0,0,1,0-.07v0A.08.08,0,0,0,1.22.3Z"/><path class="cls-1" d="M7.08,2.57l0,.07A.25.25,0,0,0,7.08,2.57Z"/><path class="cls-1" d="M10.7,7.38h0Z"/><path class="cls-1" d="M7.28,2.8a.31.31,0,0,0,0,.1l0,0Z"/><path class="cls-1" d="M13,9.34Z"/><path class="cls-1" d="M13.52,9.14s-.07.17-.11.27,0-.14,0-.24-.14.18-.17.17l0-.08c-.09.13-.13,0-.25.12v0a1.12,1.12,0,0,1-.08.24s-.09.08-.06,0,0,0,.06-.07l0,0c0-.18.06,0,.11-.16-.07,0-.19.13-.22.07s.12,0,.13-.18l0,.09c.06-.27,0,0,.1-.25-.05-.08-.12,0-.17,0-.06.08-.06.13-.12.21s.11-.42-.08-.26-.18.27-.18.13L12.61,9c-.06-.06-.18.21-.19,0s.09,0,.09,0-.09.07-.13,0l.08-.15c-.09,0-.25,0-.35,0a.27.27,0,0,0,.09-.12c-.16,0-.22-.18-.25-.34l-.13.08s0-.06,0-.07-.06.07-.11.09,0-.08.06-.11c-.14,0-.36,0-.33-.14l0,0c0-.09-.26.17-.22,0h0c-.07-.16-.3-.19-.23-.43-.17.14,0-.18-.26,0,0-.17.1-.19.08-.35s-.17.09-.22.08l.11-.11-.16.07.12-.15h-.06a.22.22,0,0,1-.06.1c-.1,0,0-.19,0-.24l-.19,0c.05,0,.08,0,.12,0-.17,0,.11-.12,0-.08a.3.3,0,0,1-.1.07A.11.11,0,0,0,10.4,7l.09-.06c-.05-.1-.19-.15-.27-.24s-.15.17-.19.15l.11-.11c-.09,0,0,.07-.15.11s.13-.14.19-.16H10.1s.06,0,.11-.08.06-.18-.09-.09l0,0c-.08-.09-.15-.11-.22-.18-.12.08-.12,0-.22.08s0-.22-.05-.29-.1.06-.19.09c.1-.08,0-.15.14-.17a.61.61,0,0,0-.28-.14s0,.07-.08.09,0-.08.06-.11h0c-.25,0,.07-.51-.21-.45h0l-.19,0c0-.07.1,0,.14-.12-.26,0-.11-.19-.3-.2.25-.3-.21-.24-.09-.48l-.07.06c-.08,0,0-.06,0-.1s-.05.08-.1.09c-.24-.15-.23-.52-.33-.79,0-.09-.4.24-.31,0l.15-.07c-.28,0-.25-.34-.5-.39,0,0,.07-.05.08,0s-.09-.13-.17-.07.07-.06.09-.1-.18,0-.1-.08,0,0,0,0-.07-.11-.17,0c0-.1-.13-.08-.11-.17-.14.06,0-.15-.2,0,.17-.14,0-.22-.06-.19.06,0,0-.08.11-.12s-.1,0-.19,0c.14-.26-.29,0-.07-.28a1.82,1.82,0,0,1-.5-.17c.16-.15.12.1.29-.06-.16,0-.36,0-.42-.11s.09-.05.13-.07c-.17,0-.19-.21-.36-.21l.06,0s0-.07-.09,0H6c-.08.13-.28.15-.34.21.23-.19,0-.14.26-.37a.4.4,0,0,0-.12.08s0-.06.09-.1c-.1,0-.15.08-.21,0l.1-.07c-.09,0-.19.09-.21,0s0-.06.06,0-.31.06-.36-.09c.17-.14,0-.08.12-.23H5.27l0,.09s-.17,0-.17-.05l.08,0L5,1.08v.1c-.1,0-.13.19-.16.1s0,0,0-.15h0c-.06,0-.12.07-.13,0S4.87,1,4.89.93c-.12.12-.15,0-.27.08A.77.77,0,0,0,4.71.88L4.62,1a.2.2,0,0,1,0-.13c-.06-.07-.1.21-.13.07l0,0c-.06-.1-.2,0-.25-.13s.09,0,.14-.16c-.14,0-.35.07-.45,0v0C3.91.84,4,.44,3.89.53S4,.4,4,.43s-.2,0-.35,0l0,0c0-.08-.13-.09-.17-.14S3.4.31,3.4.41C3.31,0,3,.54,2.94.19c0,0,.05,0,0-.06l-.15,0c0,.12,0,.07,0,.16s-.07.12-.1.12,0-.19,0-.25a.52.52,0,0,1,0,.11c-.05-.21,0,.23-.11.08V.34s-.07.11-.11.09,0-.06.05-.17S2.47.5,2.43.37s0,0,.07-.07,0-.12-.09-.15h0L2.32.09l0,0c-.06.35-.13.07-.21.31.07-.23,0-.13,0-.28S2.06.07,2.07,0C2,.16,2-.06,1.94.12c0,0-.05,0-.05-.12-.06,0,0,.08,0,.14S1.68,0,1.59.23s-.06.28-.13.38a.24.24,0,0,1,0-.18c-.07,0-.11,0-.14,0A.24.24,0,0,0,1.25.34s0,.18-.05.13,0-.14,0-.2S1.13.43,1.1.49s0-.13,0-.19A.29.29,0,0,0,1,.56l.05,0S1,.49,1,.46s.08,0,.1.06l0,0c.13.26.11-.09.18-.1l0,.21V.48c0,.05.08.16.05.2s0-.08.09,0a0,0,0,0,1,0,0l0-.07s.05.14,0,.12c.11.1.09-.18.16,0h0c.1-.09,0-.15,0-.34l.13.35,0-.15s0,0,0,.07c0-.11,0-.06,0-.17C1.91.64,2,.44,2,.68,2,.56,2,.59,2,.51c0,.26.06,0,.13.06s-.06.07,0,.19c0-.23.1,0,.14,0s.08-.09.15-.15.13.11.19.18v0c0-.18.09-.14.14-.17A.32.32,0,0,1,2.7.84h0A.15.15,0,0,1,2.81.74l0,.14c.06,0,.15-.14.21,0,0-.12,0-.36.1-.43S3.06.6,3,.62s0-.05.05,0L3,.71c0,.06,0-.09.07-.07s0,.07,0,.15,0-.05,0,0a.22.22,0,0,1,0,.16s0-.13.05-.14,0,.12,0,.18S3.2,1,3.24.85c0,0,0,.07,0,.11S3.38,1,3.4.83h0c.15-.1.18.16.3.13l0,.05c.08,0,.13,0,.22-.05s0,.1,0,.15S4,1,4,1.14s0,.07-.07,0,0,.14.13.05c-.08.1,0,.16,0,.14v-.1a.09.09,0,0,1,.08.05L4,1.45c0,.23.37-.18.27.16.09-.08,0-.1.09-.2,0,.05,0,.28,0,.29s.2-.16.23-.06.11-.19.2-.19-.09.24-.15.26,0,0,0,0-.06,0-.08.07l0,0c0,.07,0,.11,0,.18s.07-.07.07-.11.09.07.11.16a.23.23,0,0,1,.06-.09c0,.13.11-.05.18,0S4.84,2,5,2s-.09.13-.14.16c.13-.05.05.14.06.18H4.81s.05,0,.07,0l.06-.1s0,0,0,.07.12-.15.22-.2.11,0,0,.13c0-.1-.09.12-.17.09s0,0,0,0l0,0c0,.15.14-.11.21-.05s-.1.14-.08.14.09-.12.16-.15.08,0,.1,0V2.32c.07-.06.08,0,.13,0s-.06,0-.07,0,0,.19.08.16-.12.12-.13.16,0,.14.09.13,0-.08.16-.13l-.14,0,.18-.07s-.11,0-.11,0,.07,0,.13-.11c-.09.16.14,0,.1.13l-.21.2c0,.16.21,0,.24.15V2.85c.09-.07.06,0,.12,0A.47.47,0,0,0,5.84,3s0,.07.2-.06L6,3.11c0,.1.28-.11.32,0s-.13.12-.22.13,0,0,.07,0,.15,0,.1.06.12-.09.14,0l0,0s.09,0,.15-.1c-.17.27.19.19,0,.42a.57.57,0,0,1,.18.12s0,0,0,0,.25-.14.23,0-.1,0-.13.08c-.24.21.11.06,0,.23h0c0,.1.17,0,.21.09a.08.08,0,0,0,0,0,.44.44,0,0,1,.35,0c-.11.06-.07,0-.17.11s.16-.14.23-.11a.8.8,0,0,1-.16.23l0,0c-.12.14.06.07,0,.11l-.06,0c.08.06.24-.06.29,0l0,0c.19-.07-.06.11.09.06l-.14.14a1,1,0,0,1,.3,0,1,1,0,0,1-.35,0,.15.15,0,0,0,.18.06s-.07,0-.06,0c.16-.06.25-.05.3,0-.32.22,0,.22-.16.44.19,0,.11.25.22.36.21-.22,0,0,.28-.16,0,0,0,0,0,0l-.08.2c-.05.07-.07,0-.12.06s-.09.1-.12.19C7.89,5.9,8,5.9,8,6L8,5.83c.2,0-.15.23.05.22l-.1,0c.08,0,.13.18.36.07,0,0-.08.09-.11.09s.4.09.34.27l-.06,0s.13,0,.09,0-.06,0-.06,0,.15,0,.14,0l-.09,0c0,.17.29,0,.4.1a.33.33,0,0,0-.15.33l0,0c.08.15.31.1.48.16-.13.23.12.31.11.51a.25.25,0,0,1,.17-.1c0,.06.18,0,0,.1h0c-.14.15-.05.17,0,.22l.21-.17c-.19.37.36.2.16.49.08,0,.11,0,.18,0l-.11.1a.4.4,0,0,0,.18.21l-.09.05c0,.06.35-.22.4-.18l-.13.16c.09.09.05.31.27.25,0,0-.07.07-.09.06s.07.26.25,0c-.13.14.08.1.19.08l-.1.1c.16-.1.19-.13.28-.12s-.06.09-.05,0,.12-.07.13,0l-.08,0c0,.05.07,0,.16,0s.07.1,0,.2c.06-.05.15-.11.15-.06a.16.16,0,0,1-.06.06c0,.14.22,0,.2.12s0,.06,0,.07-.12-.1-.11-.1,0,.16-.18.27c.1,0,.3-.16.32-.07v0h0s0,0,0,0a.14.14,0,0,0,0,.07c-.05.09,0,.09.07.11s.1-.08.13-.2,0,0,0,0h0l-.08,0c.06,0,.12-.07.11,0L12,9.47c-.07.19,0,.33-.09.44.13,0,.24.09.43-.11,0,0,0,.08,0,.12s-.05,0-.08,0,.18.06.27-.1c0,.1-.11.13,0,.15l0,.05c.09.36.48-.3.57.12a.17.17,0,0,1,0-.07c.21.25.55,0,.77.27.07.06.08-.06.13-.15v.15L14,10.2c.1-.12.19.38.32.14l0-.1s.15-.08.15,0,0-.11,0-.06v.08l.1-.15c.1,0,0,.31.17.31a.42.42,0,0,0,.08-.3s-.06,0-.08-.12l0,0a1.41,1.41,0,0,0-.18-.62l0,.15,0-.11h0c0-.1,0,0-.06.06a.35.35,0,0,0-.05-.12l0,.23c0-.09,0-.19,0-.23s.05.2,0,.27c0-.1,0-.19-.07-.09a.25.25,0,0,1,0-.13c0,.08-.08,0-.09.17,0-.13-.11,0-.11-.19a.3.3,0,0,1-.08.18c.06-.26-.11,0-.08-.3,0,.23-.14.11-.22.22l0,0s0-.1-.05-.15a.83.83,0,0,1-.15.34c0-.19.06-.22.08-.4,0,.16-.11.14-.12.28a.59.59,0,0,1,0-.23c-.06.24,0,0-.1.18,0-.13,0-.22,0-.17A.25.25,0,0,1,13.52,9.14Zm-1.44-.23ZM12,8.84l0,0S12,9,12,9,12,8.88,12,8.84Zm-.32,1s0,0,0-.05h.06Z"/><path class="cls-1" d="M11.8,9.68h0v0l0,0Z"/><path class="cls-1" d="M3.4.83h0v0Z"/><polygon class="cls-1" points="10.85 7.44 10.82 7.46 10.85 7.45 10.85 7.44"/><path class="cls-1" d="M2.76.21s0,0,0,0A.08.08,0,0,0,2.76.21Z"/><path class="cls-1" d="M2.41.15,2.36.1A.23.23,0,0,0,2.41.15Z"/><path class="cls-1" d="M2.13.1V.16h0Z"/><path class="cls-1" d="M6,1.68H6S6.05,1.67,6,1.68Z"/><path class="cls-1" d="M4.87,1.13l.07,0S4.92,1.07,4.87,1.13Z"/><polygon class="cls-1" points="7.08 2.57 7.08 2.57 7.08 2.57 7.08 2.57"/><path class="cls-1" d="M5,1.14s0,0,0,0S5,1.15,5,1.14Z"/><path class="cls-1" d="M1,.29H1v0Z"/><path class="cls-1" d="M1,.31v0S1,.33,1,.31Z"/><path class="cls-1" d="M.93.38v0S.92.34.93.38Z"/><path class="cls-1" d="M1.32.24v0A.13.13,0,0,0,1.32.24Z"/><path class="cls-1" d="M1.42.2S1.33.11,1.3.15v0C1.31.11,1.42.29,1.42.2Z"/><path class="cls-1" d="M2,.73,1.88.7c0,.05.05.12,0,.14C2,1,1.86.72,2,.73Z"/><path class="cls-1" d="M2.21.79s0,.08,0,.11S2.24.83,2.21.79Z"/><path class="cls-1" d="M3.86,1.14l-.06.12S3.82,1.21,3.86,1.14Z"/><polygon class="cls-1" points="4.49 0.73 4.5 0.64 4.43 0.74 4.49 0.73"/><polygon class="cls-1" points="4.19 1.62 4.17 1.63 4.24 1.62 4.19 1.62"/><path class="cls-1" d="M6.37,3.64l.12-.11S6.31,3.64,6.37,3.64Z"/><path class="cls-1" d="M7.33,4.6c0,.06-.07.12,0,.09S7.36,4.6,7.33,4.6Z"/><polygon class="cls-1" points="9.67 8.01 9.61 8.03 9.68 8.04 9.67 8.01"/><path class="cls-1" d="M9.55,11.47s-.11.09-.09.08l.13-.11Z"/><path class="cls-1" d="M9.36,11.71a2.14,2.14,0,0,0,.28-.24l-.22.18s0-.05.07-.09,0,0-.06,0-.08.11,0,.05Z"/><path class="cls-1" d="M9.63,12.41v0Z"/><path class="cls-1" d="M9.82,12.8h0Z"/><path class="cls-1" d="M9.71,13h0Z"/><path class="cls-1" d="M9.63,12.41l0,0S9.62,12.42,9.63,12.41Z"/><path class="cls-1" d="M9.72,11.52l0,0h0Z"/><path class="cls-1" d="M9.41,12.35h0l-.05,0Z"/><path class="cls-1" d="M9.29,12.26l.15-.12-.08.06Z"/><path class="cls-1" d="M9.32,11.93h0Z"/><path class="cls-1" d="M9.45,12.45l0,0Z"/><path class="cls-1" d="M9.82,15.89h0Z"/><polygon class="cls-1" points="9.13 15.69 9.13 15.69 9.06 15.65 9.13 15.69"/><path class="cls-1" d="M9.63,13.16Z"/><path class="cls-1" d="M10,13.86l.3,0Z"/><path class="cls-1" d="M9.7,11.53h0Z"/><path class="cls-1" d="M10.34,13.9Z"/><path class="cls-1" d="M9.85,13.34l.05,0Z"/><path class="cls-1" d="M9.91,13.06v0Z"/><path class="cls-1" d="M10.07,13.34s0,0,0,0Z"/><polygon class="cls-1" points="10.12 13.43 10.14 13.42 10.13 13.42 10.12 13.43"/><path class="cls-1" d="M9.92,15.65l-.1-.08C9.9,15.63,9.91,15.67,9.92,15.65Z"/><path class="cls-1" d="M9.66,11.57l0,0h0Z"/><path class="cls-1" d="M11.06,12.84v0A0,0,0,0,0,11.06,12.84Z"/><path class="cls-1" d="M10.55,15.07v0Z"/><path class="cls-1" d="M11.1,12.93,11,13h0Z"/><path class="cls-1" d="M9.82,15.57Z"/><path class="cls-1" d="M10,15.86a1.55,1.55,0,0,0-.21-.19c0-.05.11.08.18.13a1.55,1.55,0,0,1-.14-.15l.06,0c-.11-.1,0,0-.11-.16l0,0-.19-.17s-.07-.09,0,0,0,0,0,.06l0,0c.13.11,0,.05.13.13s-.12-.16-.08-.13,0,.06.15.15l-.06,0c.2.17,0,0,.19.18.05,0,0-.08,0-.06l-.17-.16c-.09-.15.32.28.18.11s-.22-.25-.13-.18l.13.15s-.19-.21-.08-.14,0,.06.05.08-.07-.09-.06-.1l.12.13s-.06-.15-.06-.19a.52.52,0,0,0,.1.11c0-.08.07,0,.16,0l-.08-.12.06.07s-.06-.08-.09-.12.06,0,.08.09c-.06-.11-.11-.25,0-.15l0,0c.06,0-.17-.25-.07-.16l0,0c.08,0,0-.12.2,0-.13-.17.1,0-.09-.19.12.09.14.14.24.18s-.11-.15-.12-.18l.1.12L10.44,15l.13.14v0L10.47,15c0-.07.11.05.16.11L10.58,15a.59.59,0,0,1,.08.11c-.09-.14.11.11,0,0l-.08-.1c.07.06.1,0,.08,0l.08.08s0-.1.06-.13a.81.81,0,0,1-.19-.17l.13.1c-.07-.07-.06,0-.14-.12a.52.52,0,0,1,.18.16l0-.06.1.1c-.07-.07.15.07,0,0l0,0c0-.05,0-.1,0-.14s-.07-.08-.16-.16.17,0,.18,0-.1-.07-.16-.12c.11.06.12,0,.19.09a.22.22,0,0,0-.06-.18l-.11,0s.06,0,.11,0h0c-.15-.13.43,0,.18-.17h0l-.12-.1s.09,0,.17,0c-.2-.11,0-.1-.08-.18.39,0,0-.15.23-.19h-.09c-.09,0,.05,0,.07,0a.31.31,0,0,1-.13,0c-.12-.1.12-.27.16-.39s-.45.08-.26,0l.16,0c-.21,0,0-.17-.22-.19l.09,0c.1-.05,0-.06-.11,0l.13-.06c.05,0-.16,0-.05,0h0c-.05,0,0,0-.13,0,.05-.05-.07,0,0-.07-.14,0,.05-.07-.15,0,.21-.1.15-.12,0-.09l.15-.08s-.06,0-.16,0c.22-.15-.22,0,.07-.13h-.29c.19-.12,0,0,.25-.09-.11,0-.28.09-.26,0l.12-.06c-.1,0,0-.08-.15,0l.06,0s0,0-.07,0h0a1.8,1.8,0,0,1-.35.19c.26-.15,0-.07.37-.26a.57.57,0,0,0-.12.07s0,0,.11-.08-.15.08-.16.06l.11-.06c-.08,0-.17.08-.15,0l.06,0s-.24.1-.18,0,.05-.06.2-.17l-.06,0-.07.06s-.12.05-.08,0l.07,0h-.05l0,0c-.09.05-.19.14-.16.09s0,0,.08-.08h0c-.06,0-.11.06-.08,0l.19-.15c-.13.09-.05,0-.19.09l.12-.09-.1.07.1-.09s-.18.15-.12.07l0,0c0-.05-.1,0-.07-.05s0,0,.17-.11c-.05,0-.22.07-.21,0v0c-.21.16.09-.11,0,0l.09-.07s-.08,0-.17,0l.06,0s0-.06,0-.09a.5.5,0,0,0-.13.1c.27-.29-.22.06,0-.18l.05,0H9.91L9.8,12c-.06,0-.1.07-.11.06a1,1,0,0,0,.19-.17L9.79,12c.14-.15-.18.15-.09,0l.05,0-.09,0c.1-.1.05,0,.14-.11s-.21.15-.12.05l.07,0c.11-.11.08-.08.09-.11h0l0-.06,0,0c-.27.22-.07,0-.25.15a2.55,2.55,0,0,0,.21-.18.41.41,0,0,1,.09-.1c-.1.08,0-.07-.09,0l.09-.09s-.06.06-.11.1.12-.18-.08-.05-.21.15-.29.19a.79.79,0,0,1,.14-.12c0-.06,0-.06,0,0a.75.75,0,0,0,.09-.09s-.13.11-.09.06l.15-.13-.16.09a.92.92,0,0,1,.14-.11.41.41,0,0,0-.18.11l0,0,.11-.1c.08-.06,0,0-.06.08l0,0c-.2.2.06,0,.06,0l-.16.14.14-.11-.15.14c-.07.08.06,0,0,0l0,0,0,0s-.1.11-.09.08.14-.08,0,0h0c.08,0,.12-.1.27-.2l-.27.26.11-.1s0,0-.05.06a.69.69,0,0,0,.13-.11c-.1.11.08,0-.1.16.09-.07,0-.07.12-.11-.19.18.05,0,0,.07s-.06,0-.14.12c.18-.14,0,.06,0,0s.08,0,.14-.06-.05.1-.09.15l0,0c.14-.12.13-.08.16-.09a.59.59,0,0,1-.16.12h0l.1-.06-.11.09s.15-.08.09,0a2.64,2.64,0,0,1,.34-.29l-.16.14s.05,0,0,0l-.1.07s.08-.06.08,0l-.11.1s0,0,0,0a.4.4,0,0,1-.1.12.36.36,0,0,1,.12-.09s-.09.08-.12.12,0,0,.12-.08l-.08.08c.06,0,0,0,.15-.09h0c.13-.07,0,.1,0,.08l0,0c.05,0,.05,0,.14-.05l-.11.1s.08-.05,0,0-.06,0-.06,0-.08.09,0,0c-.11.07-.12.11-.08.09l.06-.06s0,0,0,0l-.13.1c-.14.15.31-.16.06.06.1-.06.05-.06.16-.14s-.18.19-.18.19.21-.13.17-.07a1.19,1.19,0,0,1,.23-.16,1.11,1.11,0,0,1-.23.19s0,0,0,0a.21.21,0,0,0-.09.07l.05,0c-.05,0,0,.06-.11.11a.21.21,0,0,0,.1-.08c-.06.07,0,0,0,.08l.08-.06c0,.07.1-.06.13-.05s-.17.12-.1.09a.88.88,0,0,1-.17.12c.1-.05,0,.07-.06.09l0,0h0l.09-.07,0,.05c.07,0,.16-.11.26-.16-.05,0,.06,0-.07.07,0,0-.13.09-.16.09s0,0,0,0l0,0c-.1.1.16-.09.17-.07l-.12.09s.12-.08.18-.11.05,0,.05,0l0,0a.18.18,0,0,1,.1,0L10,13c.14-.08-.12.11,0,.06l-.17.12c.1-.05-.1.08,0,0a.87.87,0,0,1,.18-.11l-.08,0,.15-.07s-.07,0-.06,0A.44.44,0,0,0,10.1,13c-.15.11.1,0,0,.05l-.26.15c-.1.08.16-.05.11,0l0,0c.1-.05,0,0,.07,0l-.17.11c.07,0,0,0,.18-.07l-.11.07s.26-.11.24-.07-.16.08-.23.1,0,0,0,0,.13,0,0,0l.13-.05,0,0a1.28,1.28,0,0,0,.16-.07c-.27.15,0,0-.18.18h.09l0,0c-.07.05.27-.1.19,0s-.09,0-.14.05c-.3.13,0,0-.13.09h0c-.1,0,.13,0,.11,0l0,0a.48.48,0,0,1,.27,0l-.19,0a1.44,1.44,0,0,1,.24,0,1.87,1.87,0,0,1-.25.08h0c-.17.05,0,0,0,0l-.08,0s.22,0,.22,0h.06c.19,0-.11,0,0,0l-.19,0a.81.81,0,0,1,.22,0l-.3,0h.11s-.07,0,0,0,.23,0,.23,0c-.38,0-.1,0-.39.07.14,0-.05,0,0,0l.32,0s0,0,0,0h-.19l-.13,0-.21,0c.11,0,.15,0,.11,0l.14,0c.16,0-.25-.05-.09,0l-.1,0,.24.09-.14,0s.23.13.08.08l-.06,0,0,0-.07,0,.08.05L10,13.94c-.08,0,.17.13.2.18L9.88,14l0,0s.12.14.17.22c-.19-.15-.12,0-.24-.09a.92.92,0,0,1,.14.14s.09.12,0,0h0c-.14-.14-.11-.1-.12-.09l.18.19c-.28-.26,0,.17-.22-.08l.06.12-.09-.11s-.06,0-.06,0l-.06-.08s.25.33.24.34l-.14-.16s-.17-.1-.07.07l-.06-.08s-.14-.07.05.15c-.12-.15,0,0,0,.08l-.09-.11a1.6,1.6,0,0,1,.15.24s-.08-.09-.05-.06.07.11,0,.06l0-.07s0,0,.07.12-.05,0-.13-.09c.05.06.11.14.07.12l-.05-.07c-.09-.06.07.15,0,.06l-.06-.06h0a2.08,2.08,0,0,1-.21-.25c.05.09.16.26.11.23l0,0h0s0,0,0,0l0,0c-.08-.08-.06,0-.07,0s.07.09.16.17v0h0v0c0,.06.08.11,0,.06l.14.17-.32-.28a.49.49,0,0,0,.15.3s-.06-.05-.09-.08l0-.05c0,.06,0,.06.11.19-.08,0-.11-.13-.11-.09l0,0c-.26-.15.27.39-.05.19l.06,0c-.18,0,0,.22-.24.12-.05,0,0,.06.11.12L9,15.29l.14.12c.09.09-.35-.15-.16,0l.09,0s0,.07-.07,0,.09.06,0,0l-.07,0,.1.09c-.06,0-.28-.14-.31-.11a1,1,0,0,0,.23.16s.06,0,.13,0l0,0a5.32,5.32,0,0,0,.58.26l-.12-.07.1,0h0c.09,0,0,0,0,0l.11,0-.19-.11.2.1c-.08,0-.18-.09-.23-.13s.17.09.09,0l.11.06c-.06,0,0,0-.12-.09.11,0,0,0,.17.07l-.15-.11c.22.15,0,0,.26.14-.2-.13-.08-.08-.17-.17l0,0,.12.07a2.56,2.56,0,0,1-.27-.23,4.08,4.08,0,0,1,.33.25c-.13-.1-.12-.11-.23-.19a1.08,1.08,0,0,1,.18.13c-.19-.16,0,0-.14-.13.1.06.18.14.13.08A.72.72,0,0,1,10,15.86Zm0-.55h0v0Zm0,0h0a.22.22,0,0,1-.06-.07Zm-.71-.68s0,0,0,0v0Z"/><polygon class="cls-1" points="9.39 14.76 9.39 14.77 9.42 14.79 9.39 14.75 9.39 14.76"/><polygon class="cls-1" points="9.64 12.39 9.64 12.39 9.66 12.38 9.64 12.39"/><polygon class="cls-1" points="10.56 15.15 10.54 15.13 10.55 15.15 10.56 15.15"/><path class="cls-1" d="M9.88,11.92l0,0Z"/><path class="cls-1" d="M9.84,11.83l0,0Z"/><path class="cls-1" d="M9.84,11.73l0,0h0Z"/><path class="cls-1" d="M10.7,12.55Z"/><path class="cls-1" d="M10.23,12.45l.06,0S10.29,12.4,10.23,12.45Z"/><polygon class="cls-1" points="11.06 12.84 11.06 12.84 11.06 12.84 11.06 12.84"/><path class="cls-1" d="M10.29,12.43s0,0,0,0S10.27,12.44,10.29,12.43Z"/><polygon class="cls-1" points="9.68 11.46 9.68 11.45 9.67 11.47 9.68 11.46"/><path class="cls-1" d="M9.67,11.47h0Z"/><path class="cls-1" d="M9.62,11.49h0Z"/><path class="cls-1" d="M9.7,11.57l0,0Z"/><path class="cls-1" d="M9.73,11.58s.07-.08,0-.07l0,0S9.66,11.64,9.73,11.58Z"/><path class="cls-1" d="M9.34,12.1v0s-.08.09-.1.09S9.34,12.06,9.34,12.1Z"/><path class="cls-1" d="M9.33,12.2s-.06.05-.08.07A.18.18,0,0,0,9.33,12.2Z"/><path class="cls-1" d="M9.65,12.58l-.1.08S9.59,12.63,9.65,12.58Z"/><polygon class="cls-1" points="10.24 12.26 10.29 12.2 10.2 12.27 10.24 12.26"/><polygon class="cls-1" points="9.55 12.86 9.53 12.86 9.58 12.85 9.55 12.86"/><path class="cls-1" d="M10,13.47l.15-.07Z"/><path class="cls-1" d="M10.24,13.68c-.07,0-.12,0,0,0Z"/><polygon class="cls-1" points="9.79 14.15 9.76 14.1 9.78 14.14 9.79 14.15"/><path class="cls-1" d="M13.51,9.43a.49.49,0,0,0,0,.11l.06-.15Z"/><path class="cls-1" d="M13.43,9.73l.13-.35-.1.26s0-.05,0-.11,0,0,0,.06,0,.13,0,0Z"/><path class="cls-1" d="M13.76,10.11v0Z"/><path class="cls-1" d="M14,10.26a.1.1,0,0,0,0,0A.08.08,0,0,1,14,10.26Z"/><path class="cls-1" d="M14,10.45h0S14,10.46,14,10.45Z"/><path class="cls-1" d="M13.76,10.11v0Z"/><path class="cls-1" d="M13.62,9.37l0,0v0Z"/><path class="cls-1" d="M13.6,10.2h0l0,.06Z"/><path class="cls-1" d="M13.5,10.19l.07-.18,0,.09Z"/><path class="cls-1" d="M13.45,9.91v0Z"/><path class="cls-1" d="M13.66,10.25l0,.05Z"/><path class="cls-1" d="M15.18,8.52l0,0Z"/><polygon class="cls-1" points="15.8 9.08 15.8 9.09 15.84 9.13 15.8 9.08"/><path class="cls-1" d="M14.07,10.65h0Z"/><path class="cls-1" d="M15.16,10.51c-.06-.12,0-.16-.11-.28A1.77,1.77,0,0,0,15.16,10.51Z"/><path class="cls-1" d="M13.61,9.39h0Z"/><path class="cls-1" d="M15.05,10.23h0v0Z"/><path class="cls-1" d="M14.32,10.6v0Z"/><path class="cls-1" d="M14.18,10.38v0Z"/><path class="cls-1" d="M14.43,10.41s0,0,0,0v0S14.43,10.43,14.43,10.41Z"/><polygon class="cls-1" points="14.52 10.42 14.52 10.39 14.52 10.4 14.52 10.42"/><path class="cls-1" d="M15,8.9l.12,0C15,8.9,15,8.86,15,8.9Z"/><path class="cls-1" d="M13.59,9.44l0,0h0Z"/><path class="cls-1" d="M14.51,9.3v0A0,0,0,0,0,14.51,9.3Z"/><path class="cls-1" d="M14.84,9.34h0Z"/><path class="cls-1" d="M14.55,9.31v0Z"/><path class="cls-1" d="M15.08,8.94Z"/><path class="cls-1" d="M14.9,8.59s.14.12.23.18-.12-.07-.21-.11.16.16.15.17l-.07,0c.12.09,0,.07.13.17l-.05,0,.24.1s.1.06,0,0l-.08,0,0,0c-.17-.06,0,0-.17-.09,0,0,.17.12.12.11S15.18,9,15,9h.07c-.26-.08,0,0-.25-.1-.07,0,.07.06,0,.07l.22.08c.15.09-.41-.1-.21,0s.32.1.2.09l-.18-.06s.26.09.13.07L15,9.1c-.15,0,.1,0,.1.05l-.17-.05a1.51,1.51,0,0,0,.17.1l-.16,0c.08,0,0,.05-.13,0l.14.05-.09,0c-.06,0,.09,0,.14,0l-.12,0c.12,0,.25.11.09.07l0,0c-.05,0,.28.11.15.07h0c-.06,0,.05.07-.15,0,.19.09-.09,0,.17.1l-.26-.13.18.11-.13-.08L15,9.4l-.16-.1,0,0,.1.06c.05,0-.1-.05-.17-.1l.11.08-.1-.07c.13.09-.13-.1,0,0l.1.07c-.07,0-.08,0,0,0l-.08-.07s0,0,0,0l.19.17-.12-.11L15,9.5l-.18-.17,0,.05-.1-.1c.07.07-.12-.12,0,0l0,0,0,.05.15.17s-.11-.11-.11-.1l.13.16-.13-.16.06.11.07.1s0,0-.07-.09v0c.09.18-.21-.32-.08-.08h0l0,.13-.07-.16c.08.2,0,0,0,.11-.14-.36,0,0-.09-.2l0,.08c0,.09,0,0,0-.06l0,.12c0,.11,0-.12-.08-.2s.06.45,0,.24V9.29c0,.2,0,0,0,.16V9.37c0-.12,0,0,0,.09V9.32c0-.07,0,.15,0,0v0s0,0,0,.12c0-.07,0,.06,0,0,0,.15,0-.08,0,.14,0-.23,0-.19,0-.08V9.3s0,0,0,.16c0-.27-.05.22,0-.13a1,1,0,0,1-.09.25c0-.22,0,0,.06-.25,0,.09-.07.28-.08.22a.61.61,0,0,1,0-.13c0,.09,0,0-.07.09l0-.06s0,0,0,.07v0a3,3,0,0,1-.08.38c.06-.28,0-.07.07-.44l0,.14a.87.87,0,0,1,0-.14,1.66,1.66,0,0,1-.05.16l0-.13c0,.1,0,.19,0,.15a.35.35,0,0,1,0-.07s-.08.25-.08.15,0-.07.05-.25l0,.05,0,.09s0,.12,0,.06l0-.07,0,0v.07c0,.09-.05.23-.05.18s0,0,0-.11h0s0,.11,0,.07l0-.24c0,.15,0,0-.07.19l0-.15,0,.12s0-.06,0-.13-.05.23,0,.13l0-.05s-.05.07-.05,0,0,0,.06-.2c0,0-.1.21-.11.16v0c-.07.26,0-.13,0,0l0-.11s0,.06-.08.13l0-.06c0-.07,0,0,0-.08s0,.06-.05.15c.09-.38-.11.18,0-.13l0-.06,0,.06,0,.15c0,.07,0,.11,0,.11a1.09,1.09,0,0,0,.07-.24l0,.11c.05-.2-.07.22-.05.08l0-.06s0,.11,0,.09a.91.91,0,0,1,.06-.16s-.09.23-.06.1l0-.06c0-.16,0-.12,0-.14h0v0c-.12.33,0,.05-.12.27a2.09,2.09,0,0,0,.09-.27l0-.12c0,.11,0-.1,0,.07a.3.3,0,0,1,0-.12.84.84,0,0,0,0,.14c-.07.15,0-.2-.06,0l-.14.31a1.23,1.23,0,0,1,.06-.17c0-.07,0-.06,0,0l0-.13s-.06.17,0,.1l.07-.18-.08.16.07-.17a.67.67,0,0,0-.1.19v.05l0-.13c0-.1,0,0,0,.09l0,0c-.09.27,0,0,0,0l-.07.19.07-.16-.07.19c0,.1,0-.06,0,.05v0l0-.06c0,.05,0,.14,0,.11s.07-.14,0,0v0c0-.06.05-.15.13-.31l-.12.36,0-.15s0,0,0,.08a.52.52,0,0,0,.06-.16c0,.14,0-.05,0,.18a.68.68,0,0,1,.06-.16c-.08.25,0,0,0,.08a1.77,1.77,0,0,0-.06.17c.08-.21,0,.06,0,0s0-.07.07-.12a.79.79,0,0,0,0,.17v0a.44.44,0,0,1,.08-.17.87.87,0,0,1-.07.19h0l0-.11,0,.13s.07-.14.06-.05a2.64,2.64,0,0,1,.13-.42l-.07.2s0,0,0,0l0,.11c0,.05,0-.09,0-.08l0,.14h0a.9.9,0,0,1,0,.15c0-.06,0-.13,0-.14s0,.11,0,.16l.05-.13,0,.11c0-.07,0,0,.07-.17h0c.06-.14,0,.09.05,0v.05c0-.05,0,0,.07-.13a.9.9,0,0,1,0,.15s0-.09,0,0,0,.08,0,.06,0,.12,0,0c0,.12,0,.15,0,.12l0-.09s0,0,0,0l0,.16c0,.2.12-.33.06,0,0-.12,0-.09,0-.22,0,0,0,.26,0,.26s.07-.23.07-.17a2.5,2.5,0,0,1,.07-.26,1.25,1.25,0,0,1-.06.29v0a.29.29,0,0,0,0,.1v-.05a1,1,0,0,1,0,.15.37.37,0,0,0,0-.13c0,.09,0,0,0,.07a.56.56,0,0,1,0-.1c0,.08,0-.11.05-.13s-.05.21,0,.14a1.18,1.18,0,0,1,0,.2c0-.11,0,.08,0,.1v0l0-.11a.15.15,0,0,1,0,.07l.06-.3c0,.06,0-.06,0,.1,0-.06,0,.15,0,.17s0,0,0,0v0c0,.14,0-.17.06-.17a1,1,0,0,0,0,.15s0-.14,0-.21,0-.05,0,0v0c0-.09,0-.08,0-.1a.2.2,0,0,1,0,.07c0-.15,0,.16,0,.06l0,.21c0-.11,0,.12,0,0a.78.78,0,0,1,0-.21l0,.08,0-.17s0,.08,0,.06a1,1,0,0,0,0-.17c0,.18,0-.1,0,0l0,.29c0,.14.05-.14.06-.07v0c0-.11,0,0,0-.06a1.56,1.56,0,0,0,0,.2c0-.08,0,0,0-.19v.13s.05-.28.06-.24a1.71,1.71,0,0,1,0,.25s0,0,0-.05,0-.13,0,0,0-.14,0-.13v.05a.62.62,0,0,0,0-.18c0,.31,0,0,0,.25a.21.21,0,0,1,0-.07v0c0,.09,0-.29,0-.18s0,.08,0,.14c0,.33,0,0,0,.15h0c0,.11,0-.12,0-.1v0a1.84,1.84,0,0,1,0-.27,1.36,1.36,0,0,0,0,.2s0-.21,0-.24l.05.26h0c0,.18,0,0,0,0v.08s0-.22,0-.21v-.06c0-.19,0,.11,0,0l0,.19v-.23a1.21,1.21,0,0,1,0,.31s0,0,0-.11,0,.06,0,0,0-.23,0-.23c.08.38.06.09.15.37,0-.15.09,0,.13,0-.12-.27,0,0-.1-.3,0,0,0,0,0,0l.1.16c0,.07,0,.06,0,.12s.06.12.11.19c-.05-.1-.06-.15,0-.11l-.07-.13c0-.15.13.23.09.07l0,.09c0-.06.06,0-.05-.25a.37.37,0,0,1,.07.12c.06,0-.06-.27.05-.15l0,.06s-.07-.12,0-.07l0,.07s-.05-.12,0-.09l0,.07c.09.06-.07-.19-.09-.25.14.17.21.21.25.22l0,0c.05,0-.07-.2-.1-.28.19.15.13,0,.25.06a.89.89,0,0,1-.14-.13s-.11-.12.05,0h0c.16.11.14.06.15.05l-.21-.15c.33.18-.07-.16.23,0-.05,0,0,0-.1-.09l.12.07s.07,0,.06-.06l.08.05s-.35-.2-.35-.22l.19.09s.2,0,0-.09l.09,0s.15,0-.13-.1c.18.06,0,0,0-.06l.13,0L15.7,9.5s.11,0,.08,0-.13,0,0,0l.08,0s0,0-.13-.06,0,0,.16,0c-.07,0-.17-.05-.13-.05l.09,0c.09,0-.15-.07,0,0l.08,0s0,0,0,0,.15,0,.31.09c-.09,0-.29-.11-.23-.1H16c.11,0,.06,0,.07,0a1.31,1.31,0,0,0-.23-.06h0v0c-.07,0-.12,0,0,0l-.21-.07L16,9.4a2,2,0,0,0-.29-.12l.11,0,.06,0a.77.77,0,0,0-.2-.09c.08,0,.16.06.14,0l.05,0c.14,0,0,0-.07,0s-.18-.1,0,0l-.06,0c.13.09-.09-.14.13,0,0,0,0,0-.09-.1l.1.09-.11-.11c-.07-.08.26.24.12.09l-.07-.06s0,0,.05,0-.06-.07,0,0l0,.05-.06-.08.19.2-.14-.16-.08-.08v0c-.16-.18-.36-.41-.49-.54l.1.12-.09-.09h0c-.09-.09,0,0,0,0l-.1-.11.16.19-.18-.19.21.22-.09-.08-.1-.1a.73.73,0,0,0,.11.13c-.11-.1,0,0-.16-.14a.64.64,0,0,1,.12.15c-.19-.21,0,0-.25-.21.18.18,0,.1.14.2l0,0-.12-.08a3.12,3.12,0,0,1,.26.26c-.16-.11-.17-.16-.32-.27.12.1.11.12.21.2L15,8.64c.19.15,0,0,.14.13-.11-.06-.19-.13-.14-.07A.58.58,0,0,1,14.9,8.59Zm.19.62Zm0,0h0l.1,0Zm.95.21H16Z"/><path class="cls-1" d="M15.86,9.39h0Z"/><path class="cls-1" d="M13.76,10.08h0v0Z"/><polygon class="cls-1" points="14.79 9.29 14.82 9.31 14.79 9.3 14.79 9.29"/><path class="cls-1" d="M13.78,9.58v0Z"/><path class="cls-1" d="M13.74,9.54v0Z"/><path class="cls-1" d="M13.73,9.46l0,0h0Z"/><path class="cls-1" d="M14.34,9.45Z"/><path class="cls-1" d="M14.1,9.74l0-.07Z"/><polygon class="cls-1" points="14.51 9.3 14.51 9.3 14.51 9.3 14.51 9.3"/><path class="cls-1" d="M14.13,9.68s0,0,0,0S14.12,9.7,14.13,9.68Z"/><path class="cls-1" d="M13.59,9.34h0v0Z"/><path class="cls-1" d="M13.58,9.36h0Z"/><path class="cls-1" d="M13.56,9.41v0Z"/><path class="cls-1" d="M13.62,9.42v0Z"/><path class="cls-1" d="M13.64,9.41s0-.1,0-.07l0,0C13.66,9.3,13.6,9.49,13.64,9.41Z"/><path class="cls-1" d="M13.5,10v0a.5.5,0,0,1,0,.13C13.41,10.28,13.48,10,13.5,10Z"/><path class="cls-1" d="M13.51,10.12s0,.07,0,.1A.29.29,0,0,0,13.51,10.12Z"/><path class="cls-1" d="M13.83,10.22l0,.12A.91.91,0,0,0,13.83,10.22Z"/><polygon class="cls-1" points="14.05 9.59 14.07 9.51 14.04 9.63 14.05 9.59"/><polygon class="cls-1" points="13.87 10.48 13.86 10.5 13.89 10.46 13.87 10.48"/><path class="cls-1" d="M14.5,10.54v-.16S14.49,10.59,14.5,10.54Z"/><path class="cls-1" d="M14.8,10.37c0,.08,0,.13,0,.05S14.8,10.35,14.8,10.37Z"/><polygon class="cls-1" points="15.82 10.04 15.86 10.07 15.83 10.04 15.82 10.04"/><path class="cls-1" d="M55.69,52.14s.05-.13,0-.14l-.11.13Z"/><path class="cls-1" d="M55.28,51.65c-.11,0-.27.13-.26.29.14-.11.14,0,.3-.18a.1.1,0,0,1,.08.15s.11.09.18,0a.25.25,0,0,0-.34-.16S55.26,51.67,55.28,51.65Z"/><path class="cls-1" d="M48.31,48l0,0Z"/><path class="cls-1" d="M44.33,45.2s.05,0,.06,0S44.33,45.19,44.33,45.2Z"/><path class="cls-1" d="M43.77,44.57l0,0S43.78,44.57,43.77,44.57Z"/><path class="cls-1" d="M48.31,48l-.09-.11S48.26,48,48.31,48Z"/><path class="cls-1" d="M54.12,51.61a.14.14,0,0,0,.09,0h-.07Z"/><path class="cls-1" d="M50.23,48.94l0,0,.06,0Z"/><path class="cls-1" d="M51.7,49.67s-.1.1-.14.15.08-.06.12,0A.3.3,0,0,0,51.7,49.67Z"/><path class="cls-1" d="M54,51h0Z"/><path class="cls-1" d="M49.21,48.37a.11.11,0,0,0,0,0A.07.07,0,0,0,49.21,48.37Z"/><path class="cls-1" d="M14.13,18.64l0,0S14.12,18.63,14.13,18.64Z"/><polygon class="cls-1" points="12.87 17.04 12.9 17.05 12.94 16.98 12.87 17.04"/><path class="cls-1" d="M42.7,43.47h0S42.73,43.48,42.7,43.47Z"/><path class="cls-1" d="M32.54,33.92c0,.21-.3-.07-.23.2C32.33,34.06,32.62,34.12,32.54,33.92Z"/><path class="cls-1" d="M54.09,51.58l-.07,0Z"/><path class="cls-1" d="M32.31,34.12h0v0Z"/><path class="cls-1" d="M40,41.27a.15.15,0,0,0,0,.07S40,41.31,40,41.27Z"/><path class="cls-1" d="M41.83,43.13l0-.06Z"/><path class="cls-1" d="M38.86,40.5s0,0-.06-.07v0S38.84,40.46,38.86,40.5Z"/><polygon class="cls-1" points="37.83 39.54 37.83 39.58 37.86 39.6 37.83 39.54"/><path class="cls-1" d="M17.65,21a.32.32,0,0,1,0-.14C17.63,21,17.44,20.88,17.65,21Z"/><path class="cls-1" d="M54.15,51.54a.07.07,0,0,1-.06,0h0S54.16,51.55,54.15,51.54Z"/><path class="cls-1" d="M38.06,41.28l-.15-.17Z"/><path class="cls-1" d="M25.12,27.81l-.05,0S25.1,27.81,25.12,27.81Z"/><path class="cls-1" d="M37.4,40.67a.35.35,0,0,0,0-.16h0Z"/><path class="cls-1" d="M17.68,20.88Z"/><path class="cls-1" d="M16.3,20.28c.16.13.18-.09.28-.15.24.11,0,.18,0,.31s.35,0,.44.06,0,.06,0,.07c.22,0,.4.29.67.26,0,0,0,0,0,.05a.58.58,0,0,1,.13-.22c.08.06.21,0,.17.13s-.08,0-.13,0l.12,0c0,.19-.15,0-.23.07.19.07.46.1.54.23-.08.16-.3-.18-.24.07L17.9,21c0,.31-.1-.1-.15.22.21.23.31.15.52.38.11,0,.07-.12.18-.15.44.14,0,.55.37.57.14,0,.3-.17.4.06l-.18.1c.21.2.31-.11.46.19-.09,0-.22-.1-.2-.05.06.24.18,0,.3.1l-.09.15c.26.18.6.31.89.51,0,0-.13,0-.1.12a3.17,3.17,0,0,1,.92,1h.22s0,.1-.05.09c.09.15.07-.06.17-.05s0,.15,0,.14a1.58,1.58,0,0,1,.91.69h-.07c.13.21.4,0,.47.22h0c.34.4.83.71,1,1.15.2-.1.3.43.53.24.11.32,0,.29.23.66.07.08.25,0,.37.06l-.1.11.24,0-.06.2.12.06a.12.12,0,0,1,0-.15.46.46,0,0,1,.22.48l.43.26c-.06,0-.13,0-.2,0,.29.08-.08.15.18.22,0,0,.08,0,.11-.07a.76.76,0,0,0,.36.45l-.1,0a10.58,10.58,0,0,0,.83.79.12.12,0,0,1,.18-.16l-.08.14c.12,0,0-.13.15-.1s-.06.2-.16.17l.17.09s-.08,0-.13.07c.13,0,.1.34.3.29l0,0c.28.29.44.38.67.62.11-.1.17,0,.32,0a4.1,4.1,0,0,0,.44.68c.19.09.13,0,.25,0-.08.09.13.3,0,.25a3.86,3.86,0,0,0,.69.55c0-.07,0-.12,0-.13a.14.14,0,0,1,0,.2h0c.47.23.5,1.08,1,1.18h0l.38.2c.12.15-.14,0-.11.14.46.17.46.52.81.69-.08.46.7.7.79,1.14l0-.08c.13,0,0,.12.08.18s0-.13.06-.12a12.64,12.64,0,0,1,1.63,2c.2.24.45-.19.57.24l-.19,0c.57.31.91.91,1.46,1.22,0,0-.09,0-.13,0,0,.18.34.34.41.28s0,.07,0,.15.34.12.31.25-.06,0-.08,0,.27.28.31.13c.12.21.36.26.43.45.19,0,.24.32.42.19-.17.15.17.41.35.43-.08,0,0,.13-.06.16.13.11.27.19.32.08.05.41.61.25.5.63a11.42,11.42,0,0,1,1.21.75c-.16.15-.38-.32-.52-.13.37.22.67.24,1,.54.07.1-.11,0-.16.05.38.19.61.53,1,.68,0,0-.06,0-.1,0s.11.14.17,0l-.07,0c0-.19.42,0,.48-.11-.28.15.24.3-.15.46a.16.16,0,0,0,.17,0c0,.06,0,.11-.07.12.24.13.23,0,.42.14,0,0-.09,0-.14.05a.48.48,0,0,1,.44.17s0,.06-.08,0c.28.2.61.18.86.48-.22.1.06.13,0,.29l.2.08v-.12c.15.11.36.09.44.23h-.15l.29.17-.11-.17c.21,0,.13-.2.29,0-.05,0,.14.1.15.25h0a.33.33,0,0,1,.3.12c0,.07-.14.15-.15.2.16-.08.37.21.55.14a.19.19,0,0,0-.11.11l.13-.06c.05.08.05.11,0,.16.19.17.07-.24.25,0,0,0,0,0-.07,0,.21.21.51.27.69.48,0,.2-.21-.1-.23.08.34.22.82.26,1.11.5l0,0c.19-.19.17.26.41.26,0,0-.14.09-.11.07a2.76,2.76,0,0,0,.87.37l-.07,0a3.23,3.23,0,0,0,.45.36c.08,0,.15,0,.15-.09.24.62.94.33,1.2.81-.05,0-.15,0-.11,0l.38.13c0-.12,0-.09,0-.2a.31.31,0,0,1,.28,0c-.19,0-.09.16,0,.25s0-.06.06-.09c.08.27.14-.19.32,0l0,0c.1,0,.23,0,.32.06s-.13,0-.19.1c.15.06.39-.08.46.1-.08,0-.16,0-.24,0,.07.21.1.18.19.26h0l.2.19,0-.07c.33-.23.39.12.72,0-.32.08-.09.09-.17.22s.11.16.07.18c.16,0,.14.19.38.1,0,0,.11.07,0,.17.17,0,0-.09,0-.15.3-.05.46.41.89.34s.45-.11.74-.07c.06.1-.14.13-.14.13a.51.51,0,0,0,.39.16s0,.07,0,.14.14-.13.26,0a.86.86,0,0,1-.18.14c.14,0,.3,0,.45,0s-.12.09-.19.12c.17,0,.42.08.51,0l-.08-.09c.06,0,0,.12-.06.13s-.17-.12-.16-.17h.11c0-.31-.4-.11-.59-.2l.16-.16-.26.08c0-.07,0-.19.09-.18-.1-.15-.15,0-.22-.13s0,0,0,0h-.16s0-.15.1-.08c-.19-.21-.44,0-.47-.2h0c-.36-.07-.09.13-.41.19l0-.41-.09.12s-.1,0-.06-.1c-.17,0,0,.07-.12.13-.11-.2-.49-.13-.42-.37-.11.07.12.15-.09.14.06-.26-.21-.06-.31-.24.1-.1.21,0,.12-.15-.19.16-.26-.19-.4-.21-.09.16-.3-.07-.54-.12,0,0-.34-.29-.5-.44l0,0c-.12.15-.3,0-.46,0a.2.2,0,0,1,.2-.12L50.27,49a.27.27,0,0,1-.22,0l.1-.11c-.18-.08-.44,0-.62-.24-.08.11,0,.41-.28.36,0-.07.08-.17.15-.17s-.1,0-.13,0l.16,0c-.08-.1-.11,0-.18,0s0-.1,0-.16,0,.08.1.06a.43.43,0,0,1-.16-.27c0,.05-.07.11-.14.08s0-.14-.07-.24-.15-.1-.23,0c-.05,0,0-.1,0-.15s-.42-.24-.4,0v0h0c-.37-.06-.56-.45-.89-.57l0,0c-.2-.06-.4-.21-.58-.2a.14.14,0,0,1,0-.19c-.15,0-.19,0-.34-.2.18,0,0-.09.17,0-.15-.14-.14-.22-.4-.23.13-.06,0-.22-.13-.25l.06.16A1,1,0,0,1,46,46.4l.13-.1c-.21-.41-.79-.16-.85-.62-.16,0,.13.2,0,.25-.14-.13-.16-.43-.2-.47-.16-.23-.34,0-.52-.16a.19.19,0,0,1-.28.14c-.14-.13,0-.33.09-.3s0,0,0,.07.14,0,.12-.05l0,0c0-.11-.26-.25-.15-.29-.15,0-.11,0,0,.12-.14-.21-.3-.22-.47-.41,0,0,0,.12,0,.1-.25-.28-.21,0-.42-.14-.05-.16.18-.14-.06-.24-.08-.14.07-.14.15-.14-.25-.06-.28-.33-.37-.43l.12,0a.37.37,0,0,1-.16-.1l0,.14c0-.06-.09-.1-.06-.14s-.08.19-.26.18-.26-.13-.18-.27c.19.23.07-.15.28,0a.24.24,0,0,1-.14-.11s0,0,.05,0c-.13-.28-.21.06-.43-.13a.12.12,0,0,0,0-.19c.09.08-.05.15-.18.14-.1-.18-.19-.1-.26-.16l.07.09c-.09.05-.15,0-.27-.08s.12,0,.11,0c-.22,0-.15-.33-.38-.38,0-.1.1-.13.07-.22-.25-.05-.11-.24-.36-.32,0,.13,0,.12-.2.1l.35.18-.3,0c.09.08.24.11.28.17-.16,0-.13,0-.15.09,0-.24-.32-.12-.38-.34l.2-.22c-.12-.29-.47-.22-.69-.52l0,.11c-.11.06-.18-.14-.3-.18.08-.07,0-.14,0-.22s-.19-.19-.35-.06l0-.21c-.19-.24-.44,0-.63-.24.13,0,.09-.16.28-.08-.07-.07-.12-.14-.17-.09s-.28-.08-.29-.21-.13.08-.21,0a.07.07,0,0,1,0,0s-.17-.06-.18.08c0-.42-.62-.54-.61-.91a5.88,5.88,0,0,1-.52-.4s0,0,.06,0c-.13-.24-.31.1-.46-.18,0-.22.18,0,.15-.07.2-.26-.28-.21-.29-.49l0,0c0-.18-.35-.17-.51-.36a.08.08,0,0,0,0,0,1.54,1.54,0,0,1-.71-.33c.14,0,.12,0,.18-.09-.09-.06-.12.17-.3,0,0-.1-.07-.25,0-.36l.14.14c.06-.2-.18-.19-.24-.28l.07,0c-.24-.2-.38-.07-.6-.32l0,.07c-.26,0,0-.19-.26-.22l.11-.17a4.21,4.21,0,0,1-.61-.3,2,2,0,0,1,.59.16c-.08-.08-.29-.27-.41-.25.05,0,.13,0,.14.08a.75.75,0,0,1-.57-.25c.31-.24-.36-.51-.26-.84-.4-.2-.53-.64-.89-1-.09.33-.1-.1-.3.13-.09-.07-.12-.1-.11-.12l-.11-.38c0-.12.12,0,.17,0-.16-.2,0-.17,0-.34,0,.1-.17,0-.24-.09l0,.24c-.36-.14,0-.39-.38-.54l.15,0c-.17-.09-.46-.49-.76-.45,0,0,0-.13.11-.09-.27-.34-.85-.52-1-.87l.07,0c-.07,0-.19,0-.21-.13s.08,0,.06-.06-.25-.07-.29-.17H30c-.22-.37-.6-.32-.88-.55.17-.15,0-.44-.1-.58l0,0A4.87,4.87,0,0,0,28,29.32c0-.37-.59-.76-.81-1.18,0,.08-.13.12-.21.07s-.31-.1-.15-.23l0,0c.09-.2-.1-.32-.22-.45l-.21.17c0-.6-.92-.74-.85-1.15-.12,0-.21-.13-.34-.16l.11-.09a2.85,2.85,0,0,0-.57-.59l.13,0c-.15-.16-.48.1-.62,0l.11-.19c-.26-.25-.4-.65-.79-.76,0,0,.08-.06.13,0-.12-.13-.39-.56-.54-.31.12-.14-.27-.27-.47-.34l.12-.08c-.24,0-.28.05-.48-.07,0-.05,0-.12.07,0-.09-.18-.2,0-.31-.21h.12c-.13-.13-.15-.09-.3-.08s-.24-.27-.17-.38a.21.21,0,0,1-.27-.06.07.07,0,0,1,.09,0c-.17-.29-.45-.2-.52-.45a.13.13,0,0,0,0-.09,2.62,2.62,0,0,1,.3.31c.09-.09-.05-.25.19-.27-.18,0-.52-.08-.64-.24a.09.09,0,0,1,0-.05h0a.19.19,0,0,0-.11-.07,1.47,1.47,0,0,0-.1-.13c.05-.1-.14-.19-.22-.26-.08.11-.17,0-.15.17,0,0,0,0,.08,0l0,0h0l.2.16c-.11,0-.21,0-.25-.14l-.25.08c0-.23-.12-.49-.07-.6-.28-.14-.59-.43-.9-.35-.09,0,0-.12,0-.18s.1.06.14,0c-.18-.06-.41-.31-.56-.19-.12-.21.2-.06,0-.23h.07c-.27-.63-1.06-.22-1.36-.92,0,0,0,.07,0,.1-.51-.58-1.33-.8-1.79-1.45-.15-.15-.24-.07-.4-.06l0-.15-.29,0c-.33-.06-.26-.6-.73-.61v.12c-.11-.1-.41-.19-.33-.28s-.09.07-.11,0l0-.07-.36-.07c-.2-.19.19-.24-.14-.47-.14,0-.47,0-.45.06s.11.12.07.19l-.13,0c-.14.19-.34.34-.15.65H13v.13l-.16-.09c0,.15.14.1.24.09a.18.18,0,0,0,0,.16l.3-.08c0,.09-.18.1-.08.23.14,0,0-.23.2-.2s0,.2.12.19c0,.07-.06.08-.11.08.13,0,.27.13.38.06,0,.17.34.17.22.35a.59.59,0,0,1,.35,0c-.3.13.32.22.12.43.25-.12.49.17.77.21,0,0-.07,0-.08,0a.64.64,0,0,1,.14.27c.13-.15.33-.06.49-.09,0,.26-.21.13-.27.31.08-.13.33.05.36-.1,0,.18.06.12,0,.29.16-.19.12,0,.29,0,.09.21-.09.22.12.28C16.5,20.32,16.3,20.28,16.3,20.28Zm4.13,2.77h0L20.35,23Zm.32.28a1.59,1.59,0,0,0-.13-.13c0-.05.06-.07.09,0S20.73,23.25,20.75,23.33Zm0-1.32c.07,0,.07.06.06.09L20.66,22h0Z"/><path class="cls-1" d="M20.5,22.07h0v.05l.05,0Z"/><path class="cls-1" d="M48.35,48.05h0v0S48.35,48.06,48.35,48.05Z"/><polygon class="cls-1" points="24.74 27.53 24.77 27.5 24.72 27.5 24.74 27.53"/><path class="cls-1" d="M50.13,49.61a.11.11,0,0,0,0,0A.11.11,0,0,0,50.13,49.61Z"/><path class="cls-1" d="M51,50.1l.11.11A.56.56,0,0,0,51,50.1Z"/><path class="cls-1" d="M51.68,50.52l0-.05h0Z"/><path class="cls-1" d="M41.27,43.88h0C41.17,43.84,41.22,43.87,41.27,43.88Z"/><path class="cls-1" d="M44.36,45.89l-.13,0C44.27,45.92,44.31,46,44.36,45.89Z"/><polygon class="cls-1" points="38.08 41.3 38.08 41.29 38.06 41.28 38.08 41.3"/><path class="cls-1" d="M44.09,45.77a.22.22,0,0,0,.14.1A.36.36,0,0,0,44.09,45.77Z"/><path class="cls-1" d="M54.76,51.88l0,0v0Z"/><path class="cls-1" d="M54.81,51.88h0S54.82,51.87,54.81,51.88Z"/><path class="cls-1" d="M55,51.88h-.1S54.91,51.91,55,51.88Z"/><path class="cls-1" d="M53.83,51.44l0,0Z"/><path class="cls-1" d="M53.53,51.34c.07,0,.14.17.24.18l0,0C53.72,51.53,53.63,51.28,53.53,51.34Z"/><path class="cls-1" d="M52.58,50.28l.22.13c0-.07,0-.16.07-.12C52.64,50,52.88,50.42,52.58,50.28Z"/><path class="cls-1" d="M51.9,49.85c.13,0,0-.07.05-.1S51.82,49.76,51.9,49.85Z"/><path class="cls-1" d="M46.87,47l.08-.1C46.85,46.86,46.92,46.94,46.87,47Z"/><polygon class="cls-1" points="45.58 46.93 45.62 47.06 45.72 46.99 45.58 46.93"/><polygon class="cls-1" points="45.57 45.8 45.62 45.81 45.45 45.74 45.57 45.8"/><path class="cls-1" d="M38.09,39.62l-.08.14C38.08,39.79,38.21,39.67,38.09,39.62Z"/><path class="cls-1" d="M35,36.78c0-.09,0-.21-.13-.21C34.92,36.65,34.94,36.76,35,36.78Z"/><polygon class="cls-1" points="26.43 27.44 26.53 27.46 26.38 27.38 26.43 27.44"/><path class="cls-1" d="M55.84,52.8s.14,0,.08-.11l-.18,0Z"/><path class="cls-1" d="M55.87,52.19a.35.35,0,0,0-.41,0c.19,0,.14.06.36.06a.11.11,0,0,1,0,.17s0,.12.13.12,0-.27-.15-.35C55.78,52.19,55.83,52.19,55.87,52.19Z"/><path class="cls-1" d="M52,45.3l0,.05A.08.08,0,0,0,52,45.3Z"/><path class="cls-1" d="M48.93,41.4s0,0,.06,0S48.94,41.38,48.93,41.4Z"/><path class="cls-1" d="M48.52,40.64l0,0S48.54,40.64,48.52,40.64Z"/><path class="cls-1" d="M52,45.3l0-.14S51.92,45.24,52,45.3Z"/><path class="cls-1" d="M55,51.41l.07,0,0-.05Z"/><path class="cls-1" d="M53.31,47l0,0h.07Z"/><path class="cls-1" d="M54.24,48.39s-.15,0-.21,0a.17.17,0,0,1,.13,0Z"/><path class="cls-1" d="M55.33,50.81l0,0Z"/><path class="cls-1" d="M52.67,46a.05.05,0,0,0,0,0Z"/><path class="cls-1" d="M18.53,14.47l0,0S18.52,14.46,18.53,14.47Z"/><polygon class="cls-1" points="17.86 12.53 17.88 12.55 17.95 12.51 17.86 12.53"/><path class="cls-1" d="M47.59,39.39h0S47.61,39.4,47.59,39.39Z"/><path class="cls-1" d="M37.12,29.89c0,.2-.3,0-.21.22C36.93,30.05,37.22,30.08,37.12,29.89Z"/><path class="cls-1" d="M55,51.36l0-.06A.16.16,0,0,0,55,51.36Z"/><path class="cls-1" d="M36.91,30.11h0v0Z"/><path class="cls-1" d="M45,36.92A.19.19,0,0,0,45,37,.1.1,0,0,0,45,36.92Z"/><path class="cls-1" d="M46.76,38.93l0-.06A.09.09,0,0,0,46.76,38.93Z"/><path class="cls-1" d="M43.9,36.11s0-.06-.06-.08v0S43.89,36.06,43.9,36.11Z"/><polygon class="cls-1" points="42.86 35.14 42.86 35.17 42.9 35.2 42.86 35.14"/><path class="cls-1" d="M21.48,17.7a.33.33,0,0,1,0-.14C21.47,17.65,21.3,17.51,21.48,17.7Z"/><path class="cls-1" d="M55.07,51.37a.06.06,0,0,1-.07,0l0,0S55.07,51.38,55.07,51.37Z"/><path class="cls-1" d="M43.1,36.88,43,36.7A1.19,1.19,0,0,0,43.1,36.88Z"/><path class="cls-1" d="M29,24.64l-.05,0A.06.06,0,0,0,29,24.64Z"/><path class="cls-1" d="M42.46,36.26a.33.33,0,0,0,0-.15h0Z"/><path class="cls-1" d="M21.52,17.56Z"/><path class="cls-1" d="M20.26,16.68c.15.16.2-.05.31-.09.22.16,0,.19,0,.31s.35.07.43.16,0,.05-.06.06c.22,0,.35.37.62.39a.08.08,0,0,1,0,0,.58.58,0,0,1,.17-.2c.06.07.2.05.14.16s-.08,0-.12,0l.1,0c-.06.19-.13-.06-.23,0,.18.11.45.17.52.31-.1.14-.3-.21-.26,0l-.12-.21c-.07.31-.08-.12-.18.2.19.25.31.18.5.43.11,0,.08-.11.2-.13.43.19-.06.55.33.61.14,0,.32-.15.4.09l-.19.09c.2.22.31-.08.45.23-.09,0-.21-.12-.2-.07,0,.25.18,0,.29.13l-.09.15c.24.2.58.36.85.58,0,0-.13,0-.1.12a3.62,3.62,0,0,1,.93,1h.22s0,.1,0,.09c.09.16.07-.06.17-.05s0,.15,0,.14a1.68,1.68,0,0,1,.93.7h-.08c.14.21.4,0,.48.21H26.5c.35.4.88.67,1,1.1.2-.11.34.42.55.21.14.31,0,.29.29.65.08.08.25,0,.37,0l-.09.12h.24l0,.21.13.06a.14.14,0,0,1,0-.16c.2.08.31.41.26.47l.46.21c-.05,0-.13,0-.2,0,.3,0-.07.15.2.19,0,0,.07-.06.1-.08,0,.15.23.32.41.42l-.1,0c.26.26.61.45.92.71a.13.13,0,0,1,.17-.19l-.07.16c.12,0-.06-.13.14-.12s0,.2-.14.19l.18.07c0,.05-.07,0-.12.08.12,0,.13.33.33.26l0,.05c.3.26.48.33.73.53.1-.1.18,0,.33,0a3.19,3.19,0,0,0,.52.61c.2.08.12-.05.24-.06-.07.11.16.29,0,.26a3.45,3.45,0,0,0,.76.47c0-.07,0-.13,0-.14s.1.15.06.19h0c.5.17.64,1,1.11,1.06h0l.4.15c.13.14-.15,0-.09.15.47.12.51.47.88.59,0,.47.78.62.91,1l0-.08c.13,0,.06.12.1.18s0-.13,0-.13a12.34,12.34,0,0,1,1.79,1.82c.22.22.43-.23.59.18l-.19.05c.6.26.94.86,1.51,1.14-.06,0-.09,0-.13,0,0,.17.34.32.41.25s0,.08,0,.16.34.1.31.23-.05,0-.07,0,.28.27.31.12c.13.2.37.24.45.43.19,0,.24.31.41.18-.16.16.17.41.34.43-.08,0,0,.14-.06.17.12.11.26.19.32.08,0,.41.59.27.47.64a9.9,9.9,0,0,1,1.17.78c-.17.15-.36-.33-.51-.14.36.22.68.24.93.58,0,.1-.12,0-.17,0,.35.24.54.6.89.78a.14.14,0,0,1-.1,0c.05.05.09.15.16.07l-.07,0c0-.19.42,0,.49,0-.3.12.2.32-.2.43a.14.14,0,0,0,.16,0c0,.06,0,.11-.08.11.22.15.23,0,.39.18,0,0-.08,0-.14,0a.51.51,0,0,1,.42.21s0,.06-.09,0c.25.24.6.25.79.6-.23.06,0,.14-.1.28l.18.12v-.12c.11.13.32.16.37.32l-.14-.05.24.23-.07-.19c.19.07.17-.17.28,0,0,0,.12.14.1.29h0a.29.29,0,0,1,.26.18c0,.07-.17.12-.19.16.18,0,.31.29.51.26a.18.18,0,0,0-.14.09l.14,0c0,.09,0,.11,0,.15.14.2.13-.21.24.08,0,0,0,0-.07,0,.15.26.43.39.56.63-.09.18-.19-.15-.25,0a4.31,4.31,0,0,1,.87.83l0-.07c.24-.12.06.3.28.38a.18.18,0,0,0-.13,0,2.67,2.67,0,0,0,.68.65h-.09c.05.15.22.34.29.49s.13.08.18,0c0,.63.76.66.73,1.23,0,0-.12-.08-.1,0l.26.29c.08-.09,0-.08.06-.2a.31.31,0,0,1,.24.15c-.16-.11-.15.1-.17.2s.07,0,.1-.06c-.07.29.21-.1.24.21l-.06,0c.09.07.2.11.25.21s-.11-.06-.21,0c.09.13.38.12.35.31-.07,0-.12-.11-.19-.15a.35.35,0,0,0,0,.32h0l.08.26v-.08c.4,0,.27.3.61.4-.33-.1-.13,0-.27.09s0,.19,0,.19c.17,0,0,.22.28.28,0,0,.06.11-.06.15.12.11.05-.08.11-.1.28.13.1.62.47.82s.4.2.61.41c0,.13-.2,0-.2,0a.48.48,0,0,0,.2.37c-.06,0-.07,0-.1.1s.19,0,.2.16a.92.92,0,0,1-.23,0c.11.1.25.18.36.29-.06.07-.16,0-.23,0,.11.12.26.33.41.32v-.11c0,.05-.09.07-.13.05s0-.2,0-.23l.08.08c.2-.23-.24-.35-.32-.54l.23,0-.26-.11c0-.06.12-.14.19-.07,0-.18-.12-.08-.08-.24s0,0,0,0l-.12-.1s.12-.09.13,0c0-.29-.33-.3-.24-.47l0,0c-.23-.29-.15,0-.43-.11l.24-.35-.15,0s0-.1,0-.12c-.16-.07-.05.05-.17,0,0-.23-.3-.4-.12-.56-.13,0,0,.19-.15.07.19-.18-.16-.16-.15-.36.15,0,.17.14.18-.06-.25,0-.13-.3-.24-.39-.16.09-.23-.22-.4-.38.06,0-.16-.42-.22-.64l0,0c-.18.07-.27-.14-.39-.25a.2.2,0,0,1,.24,0L53.34,47a.28.28,0,0,1-.2-.09l.14,0c-.12-.17-.36-.25-.42-.53-.12.06-.18.38-.4.2,0-.05.14-.13.2-.08s-.09,0-.1-.1l.16,0c0-.13-.11,0-.16-.08s0-.1.09-.13,0,.09.07.1a.47.47,0,0,1,0-.32s-.11.08-.16,0,.05-.12,0-.24-.11-.15-.23-.07,0-.09,0-.14-.31-.38-.36-.19v0h0c-.32-.18-.36-.62-.62-.86l0,0c-.17-.13-.3-.34-.47-.39A.13.13,0,0,1,51,43.9c-.13-.1-.18-.08-.25-.31.16.07,0-.09.14.09-.09-.19-.05-.28-.3-.36.15,0,0-.22-.07-.27l0,.17a1.41,1.41,0,0,1-.2-.24l.17-.06c-.12-.45-.76-.35-.7-.81-.17,0,.08.22-.09.23-.11-.16,0-.46-.09-.51-.1-.26-.35,0-.48-.28a.17.17,0,0,1-.29.08c-.11-.16,0-.35.15-.28s0,.06,0,.07.13.08.13,0l-.06,0c0-.12-.19-.31-.08-.33-.14-.07-.11,0-.07.12-.09-.25-.24-.3-.37-.53,0,.06,0,.13,0,.1-.19-.33-.19-.05-.38-.21,0-.17.19-.11,0-.24-.06-.16.1-.13.17-.12-.24-.09-.24-.37-.31-.48l.11.06a.47.47,0,0,1-.15-.12l0,.13c0-.07-.07-.11,0-.14s-.1.17-.28.14c0-.11-.25-.17-.16-.3.17.25.1-.13.29,0a.22.22,0,0,1-.12-.13s0,0,.05,0c-.1-.3-.22,0-.42-.19.09,0,.07-.16,0-.19s-.07.15-.19.12c-.08-.19-.18-.12-.24-.2l.05.11c-.09,0-.15,0-.26-.12.05-.06.12,0,.11,0-.21,0-.11-.36-.33-.43,0-.11.11-.13.08-.22-.24-.08-.08-.26-.32-.37,0,.13,0,.12-.21.08a4,4,0,0,1,.34.23l-.3-.06c.08.09.23.13.26.19-.15,0-.12,0-.15.08,0-.24-.3-.16-.35-.37l.21-.21c-.11-.29-.47-.24-.69-.55l0,.12c-.11,0-.17-.15-.29-.2.08-.06,0-.14,0-.22s-.19-.19-.35-.08l0-.2c-.18-.25-.44,0-.62-.26.13,0,.09-.16.28-.08-.07-.07-.12-.14-.17-.1s-.28-.08-.28-.21-.14.07-.21,0a0,0,0,0,1,0,0s-.16-.07-.17.08c0-.44-.62-.55-.63-.92a4.51,4.51,0,0,1-.53-.38s0,0,.05,0c-.13-.25-.31.1-.46-.18s.17,0,.14-.06c.19-.27-.29-.21-.31-.49l0,0c0-.18-.36-.16-.53-.34l0,0a1.58,1.58,0,0,1-.73-.29c.14,0,.13,0,.18-.11s-.11.18-.3.06c0-.09-.08-.24,0-.36l.16.13c0-.2-.2-.17-.26-.26l.06,0c-.25-.19-.39,0-.63-.27v.07c-.27,0,0-.18-.28-.19l.09-.19a3.48,3.48,0,0,1-.64-.24,1.83,1.83,0,0,1,.61.11c-.09-.08-.32-.25-.43-.22,0,0,.13,0,.14.07a.75.75,0,0,1-.59-.2c.29-.26-.4-.48-.34-.82-.41-.17-.6-.58-1-.88-.06.34-.12-.09-.29.16-.1,0-.13-.09-.13-.11l-.15-.36c0-.12.13,0,.16,0-.17-.18,0-.17-.07-.34,0,.11-.17.07-.25-.06l.07.24c-.38-.1-.07-.39-.45-.49h.15c-.17-.07-.51-.43-.8-.35,0-.05,0-.14.09-.11-.31-.3-.91-.41-1.07-.74l.07,0c-.07,0-.19,0-.22-.1s.07,0,0-.07-.24,0-.3-.13h.12c-.26-.34-.62-.26-.93-.44.14-.17-.07-.44-.17-.57l0,0a5.41,5.41,0,0,0-1.16-.62c-.06-.36-.67-.69-.93-1.08,0,.07-.12.12-.19.09s-.33-.08-.18-.22l0,0c.07-.2-.13-.3-.26-.42l-.19.19c-.1-.58-1-.65-.94-1.07-.13,0-.23-.11-.35-.13l.1-.11a3.3,3.3,0,0,0-.61-.54l.13,0c-.15-.14-.47.14-.62,0l.1-.2c-.28-.24-.43-.61-.83-.7a.1.1,0,0,1,.12,0c-.12-.12-.39-.55-.54-.29.12-.14-.26-.27-.46-.34l.11-.08c-.24,0-.27,0-.48-.06,0-.05,0-.12.07,0-.08-.18-.19,0-.31-.21H26c-.14-.13-.16-.08-.3-.08a.32.32,0,0,1-.18-.37.22.22,0,0,1-.27-.06c0-.05.07,0,.1,0-.17-.28-.46-.19-.52-.44a.16.16,0,0,0,0-.08,3.29,3.29,0,0,1,.3.3c.09-.09-.05-.24.19-.26-.18,0-.53-.07-.63-.25a.09.09,0,0,1,0-.05h0a.16.16,0,0,0-.11-.07.47.47,0,0,0-.08-.14c.05-.1-.13-.21-.2-.28-.09.11-.16,0-.16.17,0,0,0,0,.08,0l0,0h0l.18.16c-.11,0-.21,0-.23-.15l-.26.07c0-.24-.07-.5,0-.61-.27-.16-.54-.47-.87-.42-.08,0,0-.12,0-.17s.09.06.14,0c-.17-.07-.38-.34-.55-.24-.09-.21.21,0,0-.22l.07,0c-.22-.61-1-.36-1.18-1.1,0,0,0,.07,0,.1-.38-.67-1.16-1-1.45-1.76-.1-.19-.2-.13-.35-.18l.09-.13-.27-.06c-.3-.16-.05-.65-.49-.8l0,.1c-.08-.12-.33-.31-.23-.36s-.11,0-.1-.05l.06-.05L18.41,13c-.12-.24.28-.16,0-.47-.11-.09-.44-.18-.45-.11a.15.15,0,0,1,0,.2l-.12-.08c-.2.12-.46.18-.38.54l.26.09,0,.13-.13-.15c0,.15.1.15.2.17a.21.21,0,0,0,0,.15l.32,0c-.06.07-.21,0-.15.18s.09-.21.26-.11c0,.15-.1.18,0,.22a.1.1,0,0,1-.14,0c.13.05.22.22.35.19,0,.17.28.28.1.41a.6.6,0,0,1,.33.13c-.32,0,.24.32,0,.46.28,0,.41.34.68.44,0,0-.07,0-.08,0s.06.19.09.29c.16-.12.34,0,.51,0,0,.25-.24.07-.34.23.11-.11.32.12.38,0,0,.18,0,.12,0,.28.2-.14.12.07.31.05,0,.22-.14.19.06.3C20.45,16.76,20.26,16.68,20.26,16.68ZM24.11,20h0L24,19.94Zm.32.29a.89.89,0,0,0-.14-.13c0-.05.07-.07.1,0S24.41,20.21,24.43,20.29Zm0-1.33c.06,0,.06.07.05.1L24.4,19h0Z"/><path class="cls-1" d="M24.24,19h0v.05h.05Z"/><path class="cls-1" d="M52,45.36h0s0,0,0,0Z"/><polygon class="cls-1" points="28.62 24.38 28.65 24.35 28.6 24.35 28.62 24.38"/><path class="cls-1" d="M52.9,47.54s0,0,0,0S52.9,47.56,52.9,47.54Z"/><path class="cls-1" d="M53.41,48.4l0,.14A.39.39,0,0,0,53.41,48.4Z"/><path class="cls-1" d="M53.77,49.08l.06,0h0Z"/><path class="cls-1" d="M46.12,39.62h0Z"/><path class="cls-1" d="M48.81,42.09,48.69,42C48.72,42.1,48.75,42.14,48.81,42.09Z"/><polygon class="cls-1" points="43.12 36.89 43.12 36.89 43.1 36.88 43.12 36.89"/><path class="cls-1" d="M48.58,41.91a.21.21,0,0,0,.11.13A.35.35,0,0,0,48.58,41.91Z"/><path class="cls-1" d="M55.31,52v0h0Z"/><path class="cls-1" d="M55.34,52l0,0S55.36,52,55.34,52Z"/><path class="cls-1" d="M55.45,52.13l-.07-.06S55.4,52.13,55.45,52.13Z"/><path class="cls-1" d="M54.89,51.09h0Z"/><path class="cls-1" d="M54.74,50.82c0,.07,0,.22.06.29h0C54.75,51.1,54.85,50.85,54.74,50.82Z"/><path class="cls-1" d="M54.68,49.37l.09.25c0-.07.06-.16.13-.06C54.88,49.19,54.82,49.68,54.68,49.37Z"/><path class="cls-1" d="M54.31,48.64c.1.11.07,0,.1,0S54.3,48.53,54.31,48.64Z"/><path class="cls-1" d="M51,43.82l.11-.07C51,43.68,51,43.78,51,43.82Z"/><polygon class="cls-1" points="49.74 43.37 49.75 43.5 49.87 43.46 49.74 43.37"/><polygon class="cls-1" points="50.02 42.29 50.06 42.31 49.91 42.2 50.02 42.29"/><path class="cls-1" d="M43.13,35.21l-.08.14C43.12,35.38,43.26,35.26,43.13,35.21Z"/><path class="cls-1" d="M39.86,32.51c0-.09,0-.21-.15-.2C39.77,32.38,39.81,32.49,39.86,32.51Z"/><polygon class="cls-1" points="30.3 24.15 30.39 24.16 30.24 24.09 30.3 24.15"/></g></g></svg>