<svg xmlns="http://www.w3.org/2000/svg" width="42.4" height="47.11" viewBox="0 0 42.4 47.11"><defs><style>.cls-1{fill:#fff;}</style></defs><title>worm</title><g id="Layer_2" data-name="Layer 2"><g id="Layer_5" data-name="Layer 5"><path class="cls-1" d="M33.78,13.16c-.07,0-.05.13.11.14l.15-.13Z"/><path class="cls-1" d="M34.81,13.69c.21,0,.46-.14.36-.31-.21.12-.25,0-.49.19-.17,0-.27-.11-.23-.17s-.25-.09-.36,0a.89.89,0,0,0,.76.18C34.9,13.63,34.83,13.66,34.81,13.69Z"/><path class="cls-1" d="M42.31,3.12l0,.11A.36.36,0,0,0,42.31,3.12Z"/><path class="cls-1" d="M34,2.62c0-.07.05-.1,0-.12S34,2.62,34,2.62Z"/><path class="cls-1" d="M32.93,4.06,33,4S32.93,4,32.93,4.06Z"/><path class="cls-1" d="M42.31,3.12l.09-.28S42.35,3,42.31,3.12Z"/><path class="cls-1" d="M37.09,13.66l-.15,0h.14Z"/><path class="cls-1" d="M41.07,7.46l0,.08a.36.36,0,0,0,0,.09Z"/><path class="cls-1" d="M40,10.68c0-.07-.11-.13-.16-.17a.23.23,0,0,1,0,.18A.22.22,0,0,0,40,10.68Z"/><path class="cls-1" d="M37.78,14.32h0Z"/><path class="cls-1" d="M41.94,5.15l.05,0Z"/><path class="cls-1" d="M11.49,36.23h0S11.48,36.21,11.49,36.23Z"/><path class="cls-1" d="M8.6,34h.05l0-.07Z"/><path class="cls-1" d="M31.7,7.13v0C31.71,7,31.7,7.07,31.7,7.13Z"/><path class="cls-1" d="M13.15,18c.37,0-.46.37.07.29C13.15,18.21,13.6,17.86,13.15,18Z"/><path class="cls-1" d="M37.18,13.69l.13,0Z"/><path class="cls-1" d="M13.22,18.24h0Z"/><path class="cls-1" d="M30.57,14.32s.05,0,.07-.05S30.61,14.28,30.57,14.32Z"/><path class="cls-1" d="M31.65,9.05l0,.13S31.64,9.08,31.65,9.05Z"/><path class="cls-1" d="M30,17.05a.54.54,0,0,0-.08.17l0,0S29.94,17.12,30,17.05Z"/><path class="cls-1" d="M28.66,19.38h.06l.05-.06Z"/><path class="cls-1" d="M8.66,43.21a.38.38,0,0,1,.18,0C8.74,43.16,9,42.83,8.66,43.21Z"/><path class="cls-1" d="M37.08,13.74a.11.11,0,0,1,.1-.05h-.1S37.06,13.72,37.08,13.74Z"/><path class="cls-1" d="M31,17.52l-.19.45C30.87,17.85,30.94,17.68,31,17.52Z"/><path class="cls-1" d="M4,34.27v.11A.2.2,0,0,0,4,34.27Z"/><path class="cls-1" d="M30.14,19.35a1.57,1.57,0,0,0-.25.2.09.09,0,0,0,0,.07A3.31,3.31,0,0,0,30.14,19.35Z"/><path class="cls-1" d="M8.84,43.2Z"/><path class="cls-1" d="M10.44,40.69c-.24.35,0,.26.08.4-.26.45-.25.11-.43.2-.14.28-.16.58-.32.76,0,0-.07,0-.07,0-.1.36-.65.77-.79,1.18H8.84a.29.29,0,0,1,.23.13c-.13.14-.17.34-.31.31.09-.08.06-.12.07-.19l-.1.18c-.26,0,.15-.24.06-.33a4.07,4.07,0,0,1-.73.93c-.16-.08.48-.53.08-.36l.38-.28c-.44.06.21-.19-.22-.16-.47.39-.43.54-.92.9,0,.16.13.08.08.24-.58.67-.78.07-1.17.58-.07.17,0,.4-.48.49l.06-.24c-.51.21-.19.41-.79.47.08-.1.39-.2.31-.2-.41,0-.22.19-.5.27l-.1-.16A3.75,3.75,0,0,1,3,45.92s.16-.06,0-.15a2,2,0,0,1-1.6-1.48,2.19,2.19,0,0,1-.23-.21c0-.06,0-.13.08-.07,0-.29-.1,0-.18-.11s.05-.23.1-.14a2.26,2.26,0,0,1,.13-2v.12c.22-.38-.08-.6.26-.91l0,.09c.26-.4.63-.81,1-1.27a9.3,9.3,0,0,0,.81-1.42c-.14-.22.32-1.1,0-1.21a5.86,5.86,0,0,0,.48-1.26c0-.22-.13-.37-.12-.65h.15l-.1-.41L4,34.65v-.27c0,.11-.1.22-.14.19a1.59,1.59,0,0,1,.33-1l0-1c.05,0,.05.2.07.34-.08-.55.18-.07.1-.58,0,.06-.08,0-.11-.06a3.38,3.38,0,0,0,.23-1.18l.09.09c.13-.72.17-1.53.33-2.32-.1.27-.27.17-.24-.06l.18-.06c-.07-.18-.11.23-.17-.11s.22-.16.24,0l0-.37c.06,0,.06.08.12.12-.07-.17.3-.56.19-.81h0a12.25,12.25,0,0,1,.57-1.66c-.12-.07,0-.28,0-.5.26-.39.64-.75,1-1.2.19-.35,0-.17,0-.36.12.06.48-.37.36-.09L8.4,22.46c-.1,0-.2.07-.19,0s.32-.2.34-.14l0,0c.63-.81,2-1.12,2.54-1.79l0,0,.61-.6c.32-.2-.14.21.14.12A7.09,7.09,0,0,1,13.51,19a3.41,3.41,0,0,0,1.18-.17,2.48,2.48,0,0,1,1.33,0l0-.09c.19-.07.22.07.35.1s-.19-.1-.07-.13a25.64,25.64,0,0,1,5,1.32c.62.18.47-.36,1.2,0l-.26.1c1.31.09,2.52.69,3.92.7-.08,0-.09.08-.23.06.27.18,1.1.09,1.1,0,.22,0,0,.09.2.13.32.06.75-.26.95-.21,0,0-.08.07-.14.09.2-.08.95-.36.69-.4a3.81,3.81,0,0,0,1.18-1c.05-.31.56-.74.39-.92.21.14.55-.75.53-1.08,0,.12.16-.23.21-.08.11-.34.16-.66,0-.63.46-.54.16-1.3.59-1.56.14-1,.26-2,.36-2.91.22.07-.16,1,.08,1a16.89,16.89,0,0,1,.13-2.27c.06-.22.08.14.11.22,0-.88.24-1.66.24-2.43,0,0,0,.09,0,.17,0-.15.09-.34,0-.34v.15c-.19.21-.21-.64-.28-.68.24.3.21-.73.5-.26,0-.1,0-.23-.1-.22,0-.14.1-.18.15,0,0-.53-.09-.37,0-.84.05,0,0,.11.09.17a1.44,1.44,0,0,1,.09-.89s.07,0,0,.11a5.5,5.5,0,0,1,.56-1.87c.09.29.18-.2.36-.15l.15-.37L34,4c.18-.3.24-.64.48-.85l-.1.26c.12-.19.24-.37.38-.55a3.47,3.47,0,0,0-.29.25c.14-.35-.22-.11.13-.46-.05.09.24-.28.45-.33h0a1,1,0,0,1,.41-.48c.1,0,.09.2.15.2,0-.24.63-.52.75-.76a.12.12,0,0,0,0,.17,1.89,1.89,0,0,1,.06-.18c.17,0,.2,0,.21.05.45-.18-.25-.16.34-.3,0,0,0,0-.1.1A5.15,5.15,0,0,1,38.51.67c.17.17-.46.1-.26.24A3.5,3.5,0,0,1,40.51,1L40.39,1c.21-.22.45.34.8.45-.09,0-.18.05-.15,0,.36.33.81.53.87,1.3l-.07-.09a7.19,7.19,0,0,1-.26,1.07c0,.12,0,.3.1.21-.64.9-.41,2-1,2.75,0-.1,0-.27,0-.19l-.22.77c.13,0,.1-.07.25-.19a1.21,1.21,0,0,1-.07.53c0-.36-.18-.06-.29.06s.06,0,.09,0c-.33.33.2.15-.13.64l0,0A3.63,3.63,0,0,1,40.1,9c-.16.05,0-.24-.08-.29-.1.31,0,.69-.18.93,0-.14.07-.33.07-.48a1.15,1.15,0,0,0-.31.53v0l-.23.52.08-.13c.23.49-.15.83,0,1.42-.11-.56-.1-.11-.25-.18-.06.14-.15.35-.18.28.09.28-.16.43,0,.83,0,0,0,.29-.14.22,0,.36.09-.08.15-.05a3.56,3.56,0,0,1,0,.92.76.76,0,0,0,0,.26c0,.07.12.26,0,.26a2.86,2.86,0,0,1-1.07.24c-.19-.1.19-.15.19-.15a2,2,0,0,0-.87-.11c.07,0,0-.08-.07-.14-.25,0-.19.15-.5,0a1.28,1.28,0,0,1,.27-.16c-.29,0-.58.06-.88.05-.07-.09.2-.09.31-.13-.34,0-.87-.07-1,0l.2.09c-.12,0,0-.13.05-.14.3-.05.4.12.41.17h-.21c.16.32.84.09,1.26.16l-.2.18.46-.11c.08.06.13.19-.08.19.29.14.28,0,.53.11,0,0,0,0,0,0l.31,0c-.07,0,0,.15-.15.1a1.71,1.71,0,0,0,.7.06.86.86,0,0,1,.51.06h0c.45,0,.41,0,.36-.1s-.07-.06-.08-.09,0,0,0-.07l-.08-.2a.45.45,0,0,0,.35-.16l-.17-.14c0-.09,0-.26.06-.22-.12-.34-.07,0-.17-.14.11-.37,0-1,.19-1.09-.11-.14-.11.35-.16-.05.27-.09,0-.46.17-.78.11.12,0,.42.17.11-.18-.23.16-.62.19-.9-.18-.06.08-.61.16-1.08,0,0,.37-.83.59-1.22l0,0c-.15-.14,0-.56.13-.89.1.06.12.13.1.31L41,7.54a.69.69,0,0,1,0-.39l.1.12a7.08,7.08,0,0,1,.41-1.33c-.11-.07-.48.28-.36-.28.07,0,.19,0,.16.17a.6.6,0,0,1,.07-.26l0,.25c.13-.22,0-.15,0-.34.09,0,.11-.11.18-.06s-.1.15-.08.23a1.39,1.39,0,0,1,.33-.5c-.06,0-.13,0-.09-.2.12-.41.15-.1.28-.33,0-.12.11-.36,0-.41,0-.12.1-.12.15-.16,0-.22.23-1,0-.81l0,.06v0h0a5.79,5.79,0,0,0,0-1.17,1.65,1.65,0,0,0-.67-1l0,0a2.81,2.81,0,0,0-1.2-.5c-.12,0-.26-.18-.19-.22a4.74,4.74,0,0,1-.86-.16c.35,0-.11-.09.36,0a1.46,1.46,0,0,0-1-.06C38.83,0,38.31,0,38.1,0l.33.06c-.24,0-.45,0-.66.09L37.86,0a2,2,0,0,0-1.21.41,2.5,2.5,0,0,1-1,.46c-.15.23.47-.19.35,0-.37.18-.86.27-1,.36-.51.32-.25.53-.7.92.1,0,.25,0,0,.4s-.5.25-.38,0,.1-.11.11-.1.17-.27,0-.18V2.4c-.18.12-.51.59-.51.43-.13.29,0,.16.16,0A6.55,6.55,0,0,0,33,4c.07-.06.17-.1.13,0-.42.68-.06.37-.25.86-.19.24-.16-.18-.29.35-.17.28-.17,0-.17-.14a4.12,4.12,0,0,1-.47,1.13l0-.27a3.62,3.62,0,0,1-.09.41L32,6.17c-.06.14-.09.27-.14.25,0,.17.22-.06.25.26s-.08.61-.24.64c.18-.6-.18,0-.08-.5a1.7,1.7,0,0,1-.09.38s0,0,0-.07c-.26.56.12.31,0,.92-.08-.1-.19.11-.19.22,0-.25.16-.1.19.14-.13.38,0,.43-.05.64l.06-.23c.08.09,0,.28,0,.56-.08,0,0-.26-.06-.16.11.32-.26.66-.21,1.09-.08.19-.17,0-.23.16.05.48-.19.49-.16,1,.13-.12.11-.15.17.21l0-.82.1.54c0-.24,0-.52,0-.66.06.26,0,.23.15.13-.22.3,0,.67-.16,1l-.29-.06c-.22.55,0,1-.25,1.76l.1-.22c.1.12-.08.46-.08.7-.1,0-.16.1-.25.19.08,0-.13.53,0,.64l-.21.29c-.21.57.08.75-.12,1.3-.05-.2-.2,0-.16-.36-.06.18-.12.34-.06.37s0,.56-.19.69c0,.09.1.15,0,.35,0,0,0,0,0,0s-.07.34.11.2a3.63,3.63,0,0,0-.61.94c-.19.34-.44.64-.7.69a2.24,2.24,0,0,1-1,.6s0,0,.05-.06c-.48,0-.24.36-.84.3-.3-.16.3-.1.12-.15-.08-.31-.7,0-1.08-.21h.1c-.27-.15-.75,0-1.24-.14a0,0,0,0,0,0-.05,5.53,5.53,0,0,1-1.53-.1c.18-.08.23,0,.17-.16-.22,0,0,.22-.42.15-.13-.1-.42-.24-.43-.38l.41.09c-.17-.22-.53-.12-.74-.2l.05-.07c-.63-.13-.69.06-1.36-.12l.06.07c-.41.1-.28-.18-.68-.13l-.07-.21c-.25,0-.89,0-1.33-.1a5.32,5.32,0,0,1,1.14,0,3,3,0,0,0-1-.13.74.74,0,0,1,.33.05,2.89,2.89,0,0,1-1.22-.06c.17-.36-1.24-.38-1.57-.7a9.73,9.73,0,0,0-3,.12c.46.17-.31.11-.14.38a1.23,1.23,0,0,1-.34.13,6.41,6.41,0,0,0-.76.16c-.2,0,.18-.17.13-.22-.5.24-.27,0-.63.1.12.06-.09.24-.37.37l.44-.11c-.54.53-.69.13-1.21.68L11,19c-.28.26-1.14.79-1.3,1.21-.07,0-.2,0-.07-.12-.76.5-1.46,1.42-2.09,1.79v-.11c-.12.14-.13.31-.34.4,0,0,0-.1-.06-.05a2,2,0,0,1-.43.55l.08-.2a5.11,5.11,0,0,0-1.18,1.82c-.19-.14-.65.44-.84.76l0,0A7.75,7.75,0,0,0,4,27.76a12.93,12.93,0,0,0-.77,2.87c.06-.14.17.05.16.22s.07.62-.13.56l0-.08c-.22.13-.23.59-.29.94l.25.09c-.51.86-.2,2.42-.62,2.87,0,.23,0,.5,0,.73l-.14,0a16,16,0,0,0-.27,1.64l-.07-.16c-.08.39.31.58.21.94l-.24,0C2,39,1.35,39.33,1,40.1c0,0-.05-.08,0-.19-.28.27-.94,1.26-.59,1.25-.18-.07-.34.81-.31,1.26L0,42.32a3.06,3.06,0,0,1,.19.94c0,.12-.11.11-.07-.06-.06.42.13.31.13.81l-.12-.17c.07.43.11.39.29.58a1.94,1.94,0,0,1,.23.86.85.85,0,0,1,.46.35s-.1,0-.14,0c.45.62.91.57,1.29.88a.11.11,0,0,0,0,.11,2.7,2.7,0,0,1-.86-.51c-.09.11.31.41-.12.33.4.18,1.08.26,1.5.41,0,0,0,0,.05.06H2.82a.6.6,0,0,0,.29,0,1.66,1.66,0,0,0,.37.09c0,.12.54.09.78.08,0-.14.27-.14,0-.24,0,0,0,0-.19,0l-.09,0v0a2.77,2.77,0,0,1-.56,0,1,1,0,0,1,.61,0l.3-.24c.31.19.92.16,1,.24a3.31,3.31,0,0,0,1.69-1.13c.13-.13.22-.06.3-.07s-.18.16-.21.22c.28-.26.88-.68.83-.88.4-.24-.09.3.37-.15l0,.1c1.15-.65,1.13-1.73,2.28-2.55-.07.06-.11.09-.15.09a7.77,7.77,0,0,0,1.38-2,23.81,23.81,0,0,0,1-2.24,1,1,0,0,0-.07-.81l.15-.11a2.65,2.65,0,0,0-.23-.48c-.13-.32-.15-.62-.25-1a1.35,1.35,0,0,0-.73-.86l0,.15c-.21-.24-.82-.51-.72-.58a.21.21,0,0,1-.22-.06l0-.08c-.25-.07-.49-.13-.74-.18-.51-.25.2-.27-.59-.56-.31-.07-.91,0-.81.05s.29.14.27.21l-.28,0c-.11.21-.37.38.22.72h.48l.1.16-.36-.12a.52.52,0,0,0,.49.12.32.32,0,0,0,.13.18l.49,0c0,.1-.24.08,0,.25.23,0-.09-.27.25-.19.13.2,0,.24.29.28,0,.07-.07.08-.16.05.22,0,.48.27.63.25.08.22.51.46.31.59a.76.76,0,0,1,.41.35c-.18-.1-.12,0-.07.23s.06.39-.08.36c.28.2.11.85.08,1.32,0,0,0-.09,0-.12a1.45,1.45,0,0,1-.29.44c.18.1,0,.51,0,.78-.32.23-.11-.29-.33-.27.16,0-.11.6.05.56-.22.17-.15.17-.36.21.19.16-.08.23-.07.49-.31.26-.24,0-.41.35C10.31,41,10.44,40.69,10.44,40.69ZM2.93,46h0l.19,0Zm-.72-.3.3.16c0,.05,0,.09-.11.05S2.29,45.77,2.21,45.67Zm1.56,1.4c-.15,0-.21,0-.22,0h.29S3.8,47.06,3.77,47.07Z"/><path class="cls-1" d="M4.05,46.89h.06l-.09,0,0,0Z"/><path class="cls-1" d="M42.27,3.24h0l0,0Z"/><polygon class="cls-1" points="3.9 35.24 3.87 35.24 3.88 35.32 3.9 35.24"/><path class="cls-1" d="M40.31,7.67a.13.13,0,0,0-.06,0Z"/><path class="cls-1" d="M39.6,9.64l-.13.28Z"/><path class="cls-1" d="M39.14,11.21s0,0,0,0h0Z"/><path class="cls-1" d="M32.59,9.08v.06C32.6,9.28,32.6,9.19,32.59,9.08Z"/><path class="cls-1" d="M35,2.28l-.11.22C35,2.41,35.1,2.34,35,2.28Z"/><polygon class="cls-1" points="31.02 17.47 31.02 17.47 31 17.52 31.02 17.47"/><path class="cls-1" d="M34.7,2.75a.89.89,0,0,0,.23-.25A.92.92,0,0,0,34.7,2.75Z"/><path class="cls-1" d="M35.7,13.43l-.07,0v0Z"/><path class="cls-1" d="M35.62,13.44h0Z"/><path class="cls-1" d="M35.35,13.44h.18A.28.28,0,0,0,35.35,13.44Z"/><path class="cls-1" d="M37.76,13.8l0-.05A.11.11,0,0,0,37.76,13.8Z"/><path class="cls-1" d="M38.4,13.85a3.53,3.53,0,0,0-.58-.14l0,0C37.9,13.69,38.24,13.92,38.4,13.85Z"/><path class="cls-1" d="M39.59,12.76a3,3,0,0,0,0,.52c.05-.09.12-.21.14,0C39.83,12.65,39.56,13.44,39.59,12.76Z"/><path class="cls-1" d="M39.86,11.16c0,.28.08,0,.1,0C40,11,39.94,11,39.86,11.16Z"/><path class="cls-1" d="M40.08.26l.06-.11C39.9.1,40.13.19,40.08.26Z"/><polygon class="cls-1" points="37.78 0.88 38 0.92 38.07 0.79 37.78 0.88"/><path class="cls-1" d="M36.18.49l.08-.06-.34.23Z"/><path class="cls-1" d="M28.89,19l.16.05C29.11,18.91,29,18.79,28.89,19Z"/><path class="cls-1" d="M21.08,18.79a.56.56,0,0,0-.47-.17A3.15,3.15,0,0,0,21.08,18.79Z"/><polygon class="cls-1" points="2.98 32.77 2.96 32.59 2.95 32.92 2.98 32.77"/><path class="cls-1" d="M22.6,22.32s-.12-.08-.13,0l.12.12Z"/><path class="cls-1" d="M22.13,22.54a.4.4,0,0,0,.28.27c-.11-.14,0-.12-.17-.28s.1-.07.14,0,.08-.07,0-.15-.21.1-.16.24S22.15,22.56,22.13,22.54Z"/><path class="cls-1" d="M22.35,28.05l0,0Z"/><path class="cls-1" d="M26.23,28.22s0,0,0,0S26.24,28.23,26.23,28.22Z"/><path class="cls-1" d="M26.85,28.39h0S26.84,28.4,26.85,28.39Z"/><path class="cls-1" d="M22.35,28.05l.09.09C22.46,28.09,22.4,28.09,22.35,28.05Z"/><path class="cls-1" d="M22.13,23.46a.25.25,0,0,0,0-.07v.06Z"/><path class="cls-1" d="M20.86,26.94v0h-.08Z"/><path class="cls-1" d="M20.66,25.45s.12.07.18.09-.08-.06-.08-.09Z"/><path class="cls-1" d="M21.49,23.5v0Z"/><path class="cls-1" d="M21.54,27.78l0,0A.08.08,0,0,0,21.54,27.78Z"/><path class="cls-1" d="M40.88,5h0S40.89,5,40.88,5Z"/><polygon class="cls-1" points="41.94 3.74 41.94 3.76 42.01 3.79 41.94 3.74"/><path class="cls-1" d="M28,28.65h0S28,28.66,28,28.65Z"/><path class="cls-1" d="M37.81,23.61c-.17,0,0-.27-.25-.17C37.62,23.45,37.66,23.7,37.81,23.61Z"/><path class="cls-1" d="M22.1,23.48l0,.05S22.1,23.5,22.1,23.48Z"/><polygon class="cls-1" points="37.56 23.44 37.56 23.44 37.54 23.45 37.56 23.44"/><path class="cls-1" d="M30.9,28.42l0-.05S30.87,28.4,30.9,28.42Z"/><path class="cls-1" d="M28.74,28.4l.05,0Z"/><path class="cls-1" d="M31.93,28S32,28,32,28h0A0,0,0,0,1,31.93,28Z"/><polygon class="cls-1" points="33.01 27.57 32.98 27.55 32.95 27.57 33.01 27.57"/><path class="cls-1" d="M40.1,8.28a.3.3,0,0,1,.13,0C40.13,8.25,40.14,8.08,40.1,8.28Z"/><path class="cls-1" d="M22.06,23.43s0,0,0,.05v0Z"/><path class="cls-1" d="M31.65,26.89l.16,0A.45.45,0,0,0,31.65,26.89Z"/><path class="cls-1" d="M38.26,16.07v0S38.25,16.06,38.26,16.07Z"/><path class="cls-1" d="M32.26,26.68a.23.23,0,0,0,.12.06s0,0,0,0Z"/><path class="cls-1" d="M40.24,8.26h0Z"/><path class="cls-1" d="M40.21,7.05c-.05.17.15.13.24.19s-.15,0-.26.09.16.27.13.36,0,0-.08,0c.11.17-.09.38,0,.58h0a.93.93,0,0,1,.25,0c0,.07.07.16-.05.16s0-.06-.06-.09l0,.09c-.19,0,0-.12-.16-.15,0,.16.11.37,0,.47s0-.28-.17-.17l.1-.16c-.29.07.05-.1-.26,0-.11.22,0,.28-.09.5.08.08.14,0,.22.1.07.37-.49.15-.33.44.09.1.3.17.14.32l-.17-.11c-.08.22.23.2.05.4-.06-.06,0-.19-.05-.16-.19.11.08.13.05.25l-.17,0c0,.24,0,.54,0,.81,0,0-.08-.09-.15,0a2.12,2.12,0,0,1-.39,1l.11.16a.06.06,0,0,1-.1,0c-.08.11.09,0,.13.11a.07.07,0,0,1-.13,0c.06.25.09.7-.12.89l0-.05c-.11.16.23.28.06.41l0,0c-.16.38-.14.86-.42,1.12.19.1-.18.39.11.47-.19.21-.23.13-.38.46,0,.09.16.16.18.27h-.16l.14.17-.19.06,0,.11a.12.12,0,0,1,.12-.07.37.37,0,0,1-.22.39l.11.4c-.07,0-.08-.08-.12-.14.14.22-.17,0,0,.23,0,0,.09,0,.12,0a.55.55,0,0,0-.07.46l-.1,0c0,.28,0,.59,0,.9.06-.11.24-.08.25,0l-.16,0c.1.06.06-.09.18,0s-.18.07-.23,0l.05.14c-.05,0-.08,0-.14,0,.1.06-.17.22,0,.31H38c0,.29,0,.43,0,.66.14,0,.1.11.2.2a2.77,2.77,0,0,0-.24.55c0,.16.11.06.18.15-.13,0-.17.19-.23.06a2.25,2.25,0,0,0,0,.66c.06,0,.09,0,.13,0a.11.11,0,0,1-.15.09v0c.07.42-.63.65-.5,1v.31c-.08.11-.05-.12-.16-.06.05.39-.27.43-.28.73-.42,0-.36.63-.73.71l.08,0c0,.11-.09,0-.14.06s.11,0,.12.06a3.61,3.61,0,0,1-1.41,1.18c-.19.12.19.44-.16.45l0-.18c-.24.44-.75.53-1.05.9,0-.05,0-.09,0-.11-.14-.06-.31.16-.26.25s-.06-.07-.12-.1-.14.24-.24.16,0-.05,0-.06-.26.11-.15.21c-.18,0-.27.18-.43.16,0,.17-.29,0-.24.24-.07-.21-.34-.07-.41.06,0-.08-.11,0-.1-.14s-.21.1-.16.21c-.28-.2-.38.33-.58,0a4.2,4.2,0,0,1-1,.41c0-.22.36-.07.31-.3-.29.14-.45.34-.76.31-.08,0,0-.1.06-.14-.3.11-.59,0-.87.11l.06-.06s-.12,0-.12.07l.06,0c.08.16-.24.31-.25.38.11-.28-.28-.09-.11-.45a.16.16,0,0,0-.08.13s-.07-.06,0-.14c-.2,0-.14.16-.32.14,0,0,0-.07.07-.12s-.21.18-.36.12c0,0,0-.07,0-.06-.27,0-.48.22-.78.11.1-.21-.1-.07-.11-.26l-.17.06.07.09c-.15,0-.28.13-.4.08l.1-.08-.27.05.16.06c-.14.1,0,.23-.16.19,0,0-.14,0-.23-.09h0c-.06.06-.13.13-.23.1s0-.21,0-.25c-.06.16-.33.08-.39.25a.25.25,0,0,0,0-.15l0,.13c-.07,0-.08-.05-.08-.13-.2,0,.08.23-.15.15,0,0,0,0,0,0-.24,0-.43.12-.65.07-.07-.18.18,0,.1-.21-.29.06-.6.26-.88.2l.05,0c-.06.27-.2-.14-.35,0,0,0,.07-.14.05-.11-.17-.07-.37,0-.67,0l.05-.05c-.08-.09-.25-.14-.34-.22s-.11,0-.13.11c-.06-.26-.21-.3-.38-.36s-.33-.16-.28-.37c0,0,.1,0,.09,0a.77.77,0,0,1-.18-.18c-.1.07-.05.06-.1.15a.2.2,0,0,1-.2-.11c.13.09.17-.08.22-.14s-.08,0-.11,0c.16-.2-.23.05-.15-.19h.06c-.05-.07-.14-.13-.13-.21s.07.07.18.06-.27-.21-.14-.32c0,.05,0,.12.08.17.15-.12.12-.12.14-.2h0l.08-.18,0,0c-.34-.18,0-.29-.21-.53.17.24.12.06.26.11s.12-.1.15-.07.13-.13,0-.3c.05,0,0-.1.15,0,0-.13-.09,0-.15,0-.11-.24.32-.37.19-.69s-.15-.36-.14-.6c.1,0,.14.13.14.13a.34.34,0,0,0,.13-.3s.07,0,.13,0-.14-.13,0-.21a.73.73,0,0,1,.14.16c0-.11,0-.24,0-.36s.09.11.12.17c0-.13.07-.32,0-.41l-.08.05c0-.05.11,0,.12.07s-.11.12-.15.1v-.08c-.29-.05-.09.3-.17.44l-.16-.14.09.22c-.06,0-.18,0-.18-.1s0,.12-.11.17,0,0,0,0l0,.13s-.14,0-.09-.09c-.19.15,0,.37-.15.38v0c0,.3.13.08.23.34l-.4,0,.14.07s0,.08-.1.05c.07.13.07,0,.14.09-.17.09,0,.39-.29.35.1.08.13-.1.16.06-.26,0,0,.18-.14.28-.13-.07,0-.18-.17-.07.2.12-.11.24-.08.36s0,.26.09.46c-.07,0-.1.37-.1.58h0c.18,0,.2.19.3.3a.19.19,0,0,1-.23,0l.06.13A.26.26,0,0,1,21,27l-.14,0c.11.18.34.23.43.45.09-.08.14-.36.35-.27,0,.05-.12.15-.18.13s.09,0,.1.05l-.15,0c0,.11.11,0,.16,0s0,.09-.07.14,0-.08-.07-.07a.42.42,0,0,1,.09.27c0-.05.08-.1.14-.07s0,.13,0,.23.14.09.22,0c0,0,0,.09,0,.14s.4.16.37,0l0,0h0c.3,0,.53.28.83.26v.05c.18,0,.38,0,.5-.09s.11.09.09.15.14-.09.32,0c-.12.09.05.07-.13.06.17,0,.21.12.38,0-.05.13.13.16.21.11l-.12-.08a1,1,0,0,1,.24,0l0,.17c.36.18.55-.4.83-.09.07-.12-.18-.06-.12-.2s.33.22.37.22c.21.07.16-.26.37-.22a.2.2,0,0,1,.09-.28c.15,0,.19.24.1.29a0,0,0,0,1,0,0s-.1.06,0,.12v-.06c.08.05.27,0,.23.14.1-.06,0-.1,0-.13.18.08.28,0,.46.06,0,0,0-.1,0-.1.27.08.12-.11.31-.13s-.05.21.15.15,0,.16,0,.2c.18-.1.32.1.42.13l-.1,0a.27.27,0,0,1,.15,0l0-.13c.05,0,.1,0,.09.08s0-.2.1-.29.23-.05.24.11c-.23-.07,0,.16-.19.17a.2.2,0,0,1,.15,0s0,0,0,0c.22.16.12-.17.35-.15,0,.09,0,.17.09.15s0-.15,0-.21.17-.05.25,0l-.09,0c0-.09.11-.08.22-.1s-.1,0-.06.08c.11-.16.26.16.43,0,.08.06,0,.17.08.2.18-.12.21.12.41,0-.07-.11-.08-.08.05-.21l-.31.1.19-.18c-.09,0-.2.08-.26.07.1-.1.09-.07,0-.17.14.18.25-.12.41,0l0,.29c.24.12.39-.19.7-.16l-.11,0c0-.12.18,0,.27-.11,0,.1.07.13.13.18s.22,0,.2-.23l.16.09c.25,0,.2-.33.43-.36,0,.12.08.16,0,.28.07,0,.15,0,.13-.09s.17-.18.26-.12,0-.15.08-.17,0,.05,0,.05.1-.11,0-.19c.32.22.6-.24.89-.08.14-.09.31-.21.44-.28s0,0,0,.05c.23,0,0-.31.25-.33s-.07.14,0,.15c.18.27.23-.17.47-.09l0,0c.17,0,.2-.26.38-.35a.08.08,0,0,0,0,0,1.15,1.15,0,0,1,.33-.55c0,.14,0,.11.07.19.06-.07-.14-.16,0-.29.08,0,.22,0,.32.1l-.13.1c.18.1.17-.13.25-.16l0,.07c.18-.19.06-.33.27-.5l-.06,0c0-.24.16,0,.17-.2l.17.11a3.58,3.58,0,0,1,.2-.52,1.29,1.29,0,0,1-.08.52c.07-.07.22-.24.19-.35s0,.11-.07.12a.61.61,0,0,1,.15-.49c.27.28.4-.31.72-.24.1-.36.46-.51.66-.87-.33,0,0-.1-.22-.24,0-.09,0-.12.07-.11l.3-.15c.11,0,0,.11.08.14.12-.17.15,0,.29-.1-.11,0-.1-.14,0-.22l-.2.08c0-.33.34-.1.33-.44l0,.13c0-.16.23-.51.06-.74,0,0,.14,0,.13.06.17-.32,0-.83.25-1l.07,0c0-.07-.11-.15,0-.21S39,21,39,21s-.08-.2,0-.28l.06.1c.18-.32-.07-.57-.08-.86.22,0,.34-.22.39-.35h0a2.54,2.54,0,0,0-.18-1.07c.25-.22.13-.76.27-1.1,0,.05-.17,0-.19-.08s-.15-.23.05-.21v0c.2-.05.15-.22.16-.35l-.26,0c.39-.31-.08-.89.29-1,0-.09,0-.19-.09-.28l.14,0a2,2,0,0,0,.13-.59l.09.07c0-.15-.36-.27-.34-.42h.22c.05-.27.3-.49.18-.81,0,0,.09,0,.08.08,0-.12.27-.45,0-.48.18,0,.09-.28,0-.44l.12.05c-.14-.17-.18-.18-.18-.37s.11,0,.07,0c.1-.12-.1-.14,0-.29l.07.09c0-.14,0-.14-.08-.25s.1-.26.23-.25c-.07,0-.15-.14-.09-.21a.09.09,0,0,1,.08.06c.15-.22-.07-.4.11-.52h.09a1.41,1.41,0,0,1-.11.32c.12,0,.19-.11.33.05-.07-.15-.21-.41-.12-.54h.05v0a.11.11,0,0,0,0-.1.3.3,0,0,0,.06-.11c.11,0,.11-.16.13-.23-.14,0-.09-.13-.23-.06,0,0,0,0,0,.07v0h0l0,.19c-.05-.08-.09-.16,0-.22l-.2-.17c.22,0,.38-.22.5-.22,0-.25.09-.56-.13-.77,0-.07.1-.06.14-.07s0,.09,0,.12c0-.15.07-.4-.1-.47.12-.15.14.13.17-.1l0,0c.4-.37-.27-.84.23-1.24,0,0-.05,0-.08,0,.31-.52.15-1.21.56-1.7.09-.14,0-.19-.08-.31h.15l-.12-.21c-.06-.27.46-.32.31-.67H41.8c0-.1,0-.35.14-.31s-.1-.06,0-.09l.07,0-.06-.3c.11-.19.3.11.39-.18,0-.12-.14-.37-.2-.34a.15.15,0,0,1-.16.08V3.76c-.22-.08-.43-.21-.66,0l.1.21-.13,0,0-.15c-.12.06,0,.13,0,.21a.18.18,0,0,0-.14,0l.17.22c-.1,0-.16-.12-.24,0,.08.11.22,0,.25.13s-.2,0-.14.13a.14.14,0,0,1-.11-.08c.05.1,0,.23.08.31-.15,0,0,.3-.25.24a.41.41,0,0,1,.11.27c-.21-.21-.09.29-.35.19.2.16,0,.41.08.63,0,0,0,0,0-.06s-.13.12-.19.17c.19.07.19.24.28.36-.22.09-.2-.13-.39-.14.16,0,.1.27.23.26-.13.07-.07.07-.24.08.23.08,0,.1.14.22-.16.12-.24,0-.21.16S40.21,7.05,40.21,7.05Zm-.58,3.89h0l0-.08Zm-.08.32a1,1,0,0,1,0-.14s.09,0,.08.06S39.6,11.22,39.55,11.26Zm1.11-.43c0,.06,0,.07,0,.07s0-.05,0-.09h0Z"/><path class="cls-1" d="M40.51,10.7v0l0,0,0,0Z"/><path class="cls-1" d="M22.32,28h0v0Z"/><polygon class="cls-1" points="38.24 15.68 38.27 15.69 38.25 15.65 38.24 15.68"/><path class="cls-1" d="M21.38,26.52s0,0,0,0S21.39,26.5,21.38,26.52Z"/><path class="cls-1" d="M21.31,25.86l.06-.1A.37.37,0,0,0,21.31,25.86Z"/><path class="cls-1" d="M21.46,25.33l-.06,0h0Z"/><path class="cls-1" d="M28.72,27.46h0C28.8,27.43,28.76,27.44,28.72,27.46Z"/><path class="cls-1" d="M25.85,27.71l.09-.08C25.89,27.63,25.85,27.63,25.85,27.71Z"/><polygon class="cls-1" points="31.63 26.9 31.63 26.9 31.65 26.89 31.63 26.9"/><path class="cls-1" d="M26.08,27.63a.14.14,0,0,0-.14,0A.22.22,0,0,0,26.08,27.63Z"/><path class="cls-1" d="M22.36,23l0,0,0,0Z"/><path class="cls-1" d="M22.36,23v0A0,0,0,0,0,22.36,23Z"/><path class="cls-1" d="M22.35,22.85v.08A.06.06,0,0,0,22.35,22.85Z"/><path class="cls-1" d="M22,23.67l.05,0Z"/><path class="cls-1" d="M21.91,23.89s.15-.09.15-.17l0,0C22.09,23.76,21.85,23.81,21.91,23.89Z"/><path class="cls-1" d="M21,24.64l.1-.18c-.07,0-.15,0-.14-.05C20.73,24.61,21.09,24.39,21,24.64Z"/><path class="cls-1" d="M20.76,25.26c0-.12-.08,0-.1,0S20.7,25.33,20.76,25.26Z"/><path class="cls-1" d="M23.77,28.41v.13C23.85,28.52,23.76,28.49,23.77,28.41Z"/><polygon class="cls-1" points="24.61 27.71 24.53 27.64 24.5 27.76 24.61 27.71"/><polygon class="cls-1" points="25.22 28.56 25.18 28.58 25.32 28.52 25.22 28.56"/><path class="cls-1" d="M32.87,27.77l-.09-.14C32.74,27.68,32.79,27.85,32.87,27.77Z"/><path class="cls-1" d="M35.69,25.83c.08,0,.19,0,.18-.09S35.71,25.79,35.69,25.83Z"/><polygon class="cls-1" points="39.41 16.67 39.46 16.73 39.43 16.61 39.41 16.67"/><path class="cls-1" d="M7.92,33.21s-.09.1,0,.11L8,33.21Z"/><path class="cls-1" d="M7.91,33.6a.62.62,0,0,0,.29-.24c-.14.09-.1,0-.26.15s0-.08,0-.13,0-.06-.1,0,0,.17.11.13S7.93,33.58,7.91,33.6Z"/><path class="cls-1" d="M11.14,35.05h0Z"/><path class="cls-1" d="M12.79,33.37a0,0,0,0,0,0,0S12.81,33.37,12.79,33.37Z"/><path class="cls-1" d="M13.08,33l0,0Z"/><path class="cls-1" d="M11.14,35.05l.07,0S11.17,35.05,11.14,35.05Z"/><path class="cls-1" d="M8.53,33.59l0,0h0Z"/><path class="cls-1" d="M10,35.23h0l0,.06Z"/><path class="cls-1" d="M9.24,35s.08-.11.11-.16a.43.43,0,0,1-.07.07A.19.19,0,0,0,9.24,35Z"/><path class="cls-1" d="M8.31,34.15h0Z"/><path class="cls-1" d="M10.67,35.3a.07.07,0,0,0,0,.05S10.67,35.32,10.67,35.3Z"/><path class="cls-1" d="M24.74,28v0Z"/><polygon class="cls-1" points="25.63 28.46 25.62 28.47 25.66 28.54 25.63 28.46"/><path class="cls-1" d="M13.37,32.29h0S13.38,32.3,13.37,32.29Z"/><path class="cls-1" d="M14.68,27.21c-.1-.1,0-.19-.1-.29C14.6,27,14.58,27.16,14.68,27.21Z"/><path class="cls-1" d="M8.53,33.62l0,0S8.54,33.62,8.53,33.62Z"/><polygon class="cls-1" points="14.58 26.92 14.58 26.92 14.56 26.91 14.58 26.92"/><path class="cls-1" d="M13.28,30.62l-.06,0Z"/><path class="cls-1" d="M13.11,31.83l0,0S13.12,31.83,13.11,31.83Z"/><path class="cls-1" d="M13.06,30s0,0,0,0h0S13.09,30,13.06,30Z"/><polygon class="cls-1" points="13.08 29.42 13.05 29.43 13.05 29.45 13.08 29.42"/><path class="cls-1" d="M23.18,27.71l0,.12C23.18,27.74,23.28,27.74,23.18,27.71Z"/><path class="cls-1" d="M8.48,33.66s0,0,0,0h0S8.48,33.64,8.48,33.66Z"/><path class="cls-1" d="M12,30l0-.11A.2.2,0,0,0,12,30Z"/><path class="cls-1" d="M18.82,26h0Z"/><path class="cls-1" d="M12,29.58l.1-.06h0Z"/><path class="cls-1" d="M23.15,27.83Z"/><path class="cls-1" d="M23.83,27.75c-.07,0-.09.15-.14.25s0-.15,0-.25-.19.17-.23.14,0,0,0-.07-.2-.07-.35.06,0,0,0-.05a1.1,1.1,0,0,1-.09.24s-.12.07-.09,0,.05,0,.08-.06L23,28c0-.18.08,0,.14-.15-.1,0-.26.1-.29,0s.16,0,.15-.16l.06.1c0-.27.05.05.1-.24-.09-.1-.16,0-.26-.09-.07.07-.05.13-.12.2-.25.07.06-.45-.17-.31-.08.08-.2.27-.23.12l.12-.15c-.11-.08-.2.21-.26,0s.12,0,.11,0-.1.07-.17,0l.07-.15c-.14,0-.33,0-.49-.06,0,0,.08-.07.07-.14a.87.87,0,0,1-.54-.39l-.13.11s0-.08,0-.09,0,.08-.09.12,0-.1,0-.13c-.18.06-.46.1-.54-.1l0,0c-.09-.09-.22.24-.28.08l0,0c-.21-.14-.5-.09-.62-.36-.09.2-.21-.15-.3.13-.1-.18-.05-.22-.22-.36s-.12.16-.19.18L19,26l-.12.13V26l-.07,0s0,.08,0,.12-.21-.15-.2-.23l-.24.09c0-.06.05-.07.09-.11-.15.14,0-.16-.13,0s0,.09,0,.12a.21.21,0,0,0-.26-.09l0-.1a3.29,3.29,0,0,0-.55,0c.06.06,0,.24,0,.25v-.16c0,.09.06.06,0,.18s0-.19,0-.24l-.09.05c0-.05,0-.07,0-.13,0,.1-.14-.18-.2,0v-.05a2.63,2.63,0,0,0-.43,0c0,.14-.07.11-.12.22s-.23-.16-.37-.14,0,.12-.07.2c0-.13-.15-.11-.08-.21a.93.93,0,0,0-.41.16c0,.05.05.07,0,.12s-.09-.05-.09-.11v0c-.2.21-.61-.29-.76,0h0l-.17.18c-.09,0,0-.11-.05-.17-.16.27-.36.08-.48.28-.29-.3-.47.23-.76.14l.06.07c0,.1-.08,0-.13,0s.1,0,.09.09c-.3.32-.81.51-1.14.91-.12.15.35.31.07.4l-.12-.13c0,.4-.27.67-.16,1,0,0-.09,0-.08-.07s0,.25.05.26-.09,0-.14,0,.13.18,0,.21,0,0,0,0,0,.2.11.17c-.08.11.05.22,0,.3.15.06-.08.19.14.21-.23,0-.19.19-.08.26-.07,0-.07.06-.17,0a.14.14,0,0,0,.17.14c-.27.15.22.27-.12.37a3.68,3.68,0,0,1,.29.61c-.23,0,0-.22-.27-.2.1.19.3.29.25.47s-.1,0-.14,0c.1.17,0,.34.1.49a.09.09,0,0,1-.06,0s0,.07.07.07l0,0c.15-.05.31.14.39.15-.29-.07-.09.15-.45,0a.18.18,0,0,0,.13,0s-.06,0-.14,0,.16.08.15.18-.07,0-.13,0c.1.06.19.12.13.2s-.07,0-.06,0c0,.14.21.29.09.43-.2-.09-.09,0-.27,0l0,.09h.09c0,.07.09.17,0,.21l0-.07v.14l.09-.05c.07.1.23.06.15.15s0,.07-.15.07h0s.09.11,0,.15a2.35,2.35,0,0,1-.22-.1c.13.1,0,.16.09.28a.66.66,0,0,0-.13-.08l.1.09c-.05,0-.07,0-.14,0s.22.09.07.14c0,0,0,0,0,0s-.06.24-.18.3c-.16-.1,0-.11-.12-.18-.06.13,0,.38-.19.44h0c.14.23-.17,0-.16.1,0,0,0-.14,0-.11s-.13.15-.26.28v-.07c-.08,0-.15,0-.22,0s-.05.06,0,.16c-.22-.34-.38.24-.56-.1,0,0,.06-.05,0-.05l-.16,0c0,.12,0,.07,0,.17s-.09.11-.13.1,0-.18,0-.25a.61.61,0,0,1,0,.11c0-.23-.06.22-.15,0l0,0c-.05,0-.11.08-.15,0s.06,0,.1-.15-.21.19-.22,0,.08,0,.12,0,0-.13-.07-.17h0l-.08-.11v.05c-.21.29-.18,0-.38.15.2-.14.07-.1.15-.24s0-.11,0-.14,0-.12-.18,0c0,0,0,0,0-.13-.08,0,0,.08-.07.13s-.1-.3-.35-.19-.28.12-.43.1c0-.08.13-.12.13-.12s-.06-.12-.14-.11a.27.27,0,0,0,.06-.12c-.05,0-.13.12-.14,0a1.11,1.11,0,0,1,.16-.12,2.28,2.28,0,0,1-.26,0c0-.07.11-.07.16-.1a.31.31,0,0,0-.29,0v.07s.06-.1.09-.11,0,.1,0,.14h0c-.15.25.17.08.23.15l-.16.14.18-.08c0,.06-.08.16-.13.15s.09,0,.07.11,0,0,0,0H8.4s-.07.12-.09.07c0,.17.25,0,.19.14h0c.17,0,.1-.12.3-.2l-.14.36.1-.12s0,0,0,.09,0-.06.11-.12c0,.16.23.05.12.27.09-.08,0-.11.09-.14-.1.24.11,0,.12.15s-.11,0-.1.15c.15-.18.11.12.2.11.07-.17.16,0,.28,0,0,0,.16.17.25.25v0c.07-.17.16-.1.25-.13a.31.31,0,0,1-.1.19H10a.16.16,0,0,1,.11-.09l0,.13c.11,0,.23-.13.36,0,0-.12-.08-.36,0-.44s0,.19,0,.22,0,0,.06,0l0,.12c.06,0,0-.1.07-.09s0,.07,0,.15,0,0-.06,0a.24.24,0,0,1,.16.14s0-.13,0-.15,0,.12.11.16.1,0,.08-.16,0,.07.06.1.25-.08.15-.21h0c.11-.18.36,0,.49-.18l0,0c.06-.1.18-.15.17-.28s.11,0,.14.07,0-.12.14-.14.07,0,0,.1c.1,0,.18,0,.15-.18a.09.09,0,0,0,.18,0h-.12a.24.24,0,0,1,.1-.12l.12.12c.31-.08-.08-.51.29-.49-.08-.1-.13.06-.23,0,.06-.07.33-.07.34-.1s-.18-.21-.07-.31c-.06,0-.22,0-.24-.15s.27,0,.3,0a0,0,0,0,1,0,0s0,.08.09.07l-.05,0c.07,0,.11-.16.19-.1s-.09-.06-.13,0c.12-.1.05-.19.14-.29s-.11,0-.1,0-.1-.1-.1-.22.21.06.16-.07.16,0,.2,0c-.09-.13.1-.2.13-.26l0,.06a.18.18,0,0,1,0-.1l-.12,0s0-.06.08,0-.2,0-.3-.08c.06,0,0-.14.11-.15-.07.14.16,0,.17.13a.08.08,0,0,1,0-.09l0,0c.15-.13-.17-.08-.16-.22.09,0,.17,0,.16,0s-.15,0-.22,0,0-.1,0-.15l0,.06c-.09,0-.08-.07-.1-.13s0,.06.08,0c-.16-.07.16-.16,0-.26.06,0,.17,0,.21,0-.12-.11.12-.13,0-.24s-.09,0-.21,0l.09.18-.17-.11c0,.05.07.11,0,.15s-.06-.05-.16,0c.17-.09-.11-.15,0-.24h.29c.13-.13-.16-.22-.09-.39l-.05.06c-.12,0,0-.1-.07-.15a.47.47,0,0,0,.19-.06c-.07,0,0-.12-.2-.13l.13-.08c0-.13-.29-.14-.26-.27.11,0,.18,0,.26.06s0-.08-.05-.07S13,30,13.06,30c-.05,0-.15,0-.14-.07H13c-.05,0-.07-.07-.18,0,.31-.12,0-.36.26-.46a1,1,0,0,1-.05-.28s.05,0,0,0-.28-.1-.16-.22S13,29,13,29c.33,0,0-.15.19-.2v0c.12,0-.09-.18,0-.27l.05,0a.49.49,0,0,1-.16-.37c.11.07,0,.06.18.09s-.2-.06-.2-.16a.61.61,0,0,1,.29,0l0,.07c.18,0,0-.09.08-.12l.07,0c0-.11-.14-.2-.06-.31l-.05,0c-.13-.18.12,0,.05-.14l.17.1a.64.64,0,0,1,0-.34,2.54,2.54,0,0,1,.1.36.19.19,0,0,0,0-.21s0,.08,0,.07-.08-.26,0-.32c.24.29.25-.1.48.11,0-.21.29-.11.44-.2-.18-.25.05,0-.08-.3,0,0,.06,0,.07,0l.19.13c.06.07,0,.07,0,.14s.08.11.16.16c0-.1,0-.16.05-.13l-.12-.11c.09-.2.19.21.27,0v.1c0-.07.24-.05.27-.3,0,0,0,.11,0,.13.17,0,.35-.31.51-.17V27s.05-.15.09-.08S16,27,16,27s.08-.13.13-.09l0,.08c.18.09.26-.21.42-.26a.34.34,0,0,0,.21.33v0c.2,0,.35-.17.55-.25.11.25.4.14.58.3a.19.19,0,0,1,.06-.19s.15-.13.11.07h0c0,.2.1.16.17.18l.05-.26c.13.41.53,0,.56.32.06-.06.11,0,.17-.1l0,.14a.64.64,0,0,0,.33.1l-.06.09c.08,0,.22-.36.3-.35l0,.21c.16,0,.24.27.45.13,0,0,0,.09-.06.09s.21.23.29-.05c-.07.17.14.07.25,0l-.06.13c.13-.14.15-.19.26-.2s0,.12,0,.07c.05.1.11-.1.17,0l-.07.07c.07,0,.08,0,.17-.09s.13.1.08.22c0-.07.13-.14.16-.09a.14.14,0,0,1-.06.08c.08.14.26-.06.28.1a.17.17,0,0,0,0,.08c-.1-.05-.17-.09-.16-.1s0,.18-.13.31c.11-.06.3-.2.35-.11V28h0s0,0,.06,0,0,.06,0,.07.06.1.1.12.11-.07.11-.2h-.06l-.1,0c.06-.05.12-.08.13,0l.16-.17c0,.2,0,.35,0,.46.16,0,.31.11.51-.08.05,0,0,.08,0,.13s-.05,0-.08,0,.22.09.32-.07c.06.12-.12.13,0,.16l0,0c.13.39.6-.23.73.23a.17.17,0,0,1,0-.07c.28.29.72.09,1,.39.1.07.12,0,.19-.13v.15l.12-.17c.14-.12.29.37.48.1l0-.1c.07,0,.2-.1.22,0s0-.11,0-.07l0,.08.12-.19c.15,0,.1.31.3.23s.09-.31,0-.34a.13.13,0,0,1-.13-.07l0-.07a1.14,1.14,0,0,0-.37-.52v.16L25.18,28l.05,0c-.08-.08-.05,0-.05.08a.31.31,0,0,0-.08-.1,1.69,1.69,0,0,1,0,.23c0-.09,0-.18-.09-.22s.1.19.06.27c-.07-.09-.08-.17-.1-.08a.17.17,0,0,1,0-.12c0,.07-.08,0-.08.17-.06-.12-.13.05-.15-.17,0,.05,0,.18-.09.19.06-.26-.14,0-.11-.3-.06.24-.18.09-.29.21s0-.06,0,0-.05-.1-.07-.15c-.05.19-.14.21-.21.32,0-.2.09-.22.11-.4,0,.16-.15.13-.16.26a.43.43,0,0,1,0-.23c-.08.23-.06,0-.14.16,0-.14.05-.22-.05-.18A.16.16,0,0,1,23.83,27.75Zm-2.12-.55h0l0,0Zm-.17-.08.07,0c0,.05,0,.09-.06.08S21.55,27.17,21.54,27.12Zm-.09,1.05s0,0,0-.05h.07Z"/><path class="cls-1" d="M21.59,28s0,0,0,0v0l0,0Z"/><path class="cls-1" d="M11.1,35h0l0,0Z"/><polygon class="cls-1" points="19.05 25.97 19.04 26 19.07 25.98 19.05 25.97"/><path class="cls-1" d="M10.07,34.59v0Z"/><path class="cls-1" d="M9.69,34.44l0-.07Z"/><path class="cls-1" d="M9.43,34.24l0,0h0Z"/><path class="cls-1" d="M12.17,31.83h0S12.15,31.81,12.17,31.83Z"/><path class="cls-1" d="M12.22,33.38l0-.07S12.15,33.35,12.22,33.38Z"/><polygon class="cls-1" points="11.95 30.02 11.95 30.02 11.95 30.01 11.95 30.02"/><path class="cls-1" d="M12.2,33.24s0,0,0,.07S12.21,33.27,12.2,33.24Z"/><polygon class="cls-1" points="8.31 33.4 8.3 33.38 8.28 33.4 8.31 33.4"/><path class="cls-1" d="M8.28,33.4h0Z"/><path class="cls-1" d="M8.21,33.4h0S8.24,33.38,8.21,33.4Z"/><path class="cls-1" d="M8.61,33.72l0,0Z"/><path class="cls-1" d="M8.73,33.79s0-.14-.06-.14l0,0C8.71,33.63,8.65,33.84,8.73,33.79Z"/><path class="cls-1" d="M8.86,34.63l-.08-.1c0,.06,0,.14-.08.12C8.75,34.87,8.73,34.53,8.86,34.63Z"/><path class="cls-1" d="M9.16,34.88c-.07,0,0,.07-.05.1S9.18,35,9.16,34.88Z"/><path class="cls-1" d="M12,34.69l.08.1S12,34.76,12,34.69Z"/><polygon class="cls-1" points="11.81 33.88 11.72 33.87 11.81 33.95 11.81 33.88"/><polygon class="cls-1" points="12.75 34.1 12.75 34.14 12.75 34.03 12.75 34.1"/><path class="cls-1" d="M13.19,29.53H13S13.24,29.59,13.19,29.53Z"/><path class="cls-1" d="M13.47,27.9c.07,0,.14,0,.09,0S13.46,27.87,13.47,27.9Z"/><polygon class="cls-1" points="18.31 27.11 18.27 27.16 18.34 27.13 18.31 27.11"/><path class="cls-1" d="M35.42,13.86s0-.13,0-.11l0,.16Z"/><path class="cls-1" d="M35.28,13.59c0,.08.06.21.11.35l-.07-.27s0,.05,0,.11,0,0,0-.07-.06-.12,0,0Z"/><path class="cls-1" d="M34.6,13.53v0A0,0,0,0,0,34.6,13.53Z"/><path class="cls-1" d="M34.22,13.53v0Z"/><path class="cls-1" d="M34.13,13.36h0Z"/><path class="cls-1" d="M34.6,13.53l0,0C34.59,13.54,34.59,13.52,34.6,13.53Z"/><path class="cls-1" d="M35.33,14v0Z"/><path class="cls-1" d="M34.72,13.36h0l0-.07Z"/><path class="cls-1" d="M34.84,13.3s0,.13,0,.18l0-.09Z"/><path class="cls-1" d="M35.11,13.47v0Z"/><path class="cls-1" d="M34.63,13.35l0,0Z"/><path class="cls-1" d="M31.51,12h0Z"/><polygon class="cls-1" points="32.22 12.06 32.23 12.06 32.3 12.1 32.22 12.06"/><path class="cls-1" d="M34,13.19Z"/><path class="cls-1" d="M33.2,13.22c0,.12-.08.14-.12.27A2.38,2.38,0,0,0,33.2,13.22Z"/><path class="cls-1" d="M35.32,14h0Z"/><path class="cls-1" d="M33.08,13.49h0Z"/><path class="cls-1" d="M33.79,13.29v0Z"/><path class="cls-1" d="M34,13.48v0Z"/><path class="cls-1" d="M33.7,13.49s0,0,0,0v0S33.7,13.47,33.7,13.49Z"/><polygon class="cls-1" points="33.6 13.49 33.6 13.52 33.61 13.51 33.6 13.49"/><path class="cls-1" d="M31.48,12.54h.13C31.51,12.53,31.47,12.51,31.48,12.54Z"/><path class="cls-1" d="M35.3,13.92l0,.06h0Z"/><path class="cls-1" d="M33.67,14.6l0,0A0,0,0,0,0,33.67,14.6Z"/><path class="cls-1" d="M31.92,13.63h0Z"/><path class="cls-1" d="M33.58,14.6s0-.08,0-.1v0Z"/><path class="cls-1" d="M31.61,12.53Z"/><path class="cls-1" d="M31.29,12.32s.17,0,.28,0-.14,0-.23,0,.21.05.21.07h-.08c.14,0,0,.06.19.08h.2s.12,0,0,0h0c-.17,0-.06,0-.19,0,.06,0,.2,0,.15.06s-.06,0-.21,0l.07,0c-.27,0,0,0-.27,0-.05,0,.09,0,0,.08h.24c.17,0-.42.09-.19.1s.32,0,.22,0l-.19,0s.27,0,.15,0-.07,0-.09,0,.11,0,.11,0l-.16,0s.16.05.2.08a.42.42,0,0,0-.15,0c.1,0,0,.11-.06.19l.14,0-.08,0s.08,0,.14-.05-.07.05-.12.06c.13,0,.29,0,.16.07h0c0,.05.28-.1.17,0h0c0,.08.12.06-.05.21.19-.11-.05.1.2-.06-.1.11-.15.13-.2.23a1.54,1.54,0,0,1,.19-.1l-.12.09.14-.08-.14.12h0a.29.29,0,0,1,.08-.08c.07,0-.05.11-.11.16l.13-.05a.46.46,0,0,1-.1.07c.14-.08-.12.11,0,0A.65.65,0,0,1,32,13.7c-.06.07,0,.09,0,.08l-.08.07c0,.05.1,0,.13.06a1,1,0,0,1,.17-.18l-.11.12c.08-.06,0,0,.14-.13a1.36,1.36,0,0,1-.17.18l.05,0L32,14c.07-.06-.09.15,0,0l0,0s.09,0,.12,0a1.2,1.2,0,0,1,.16-.16s0,.16,0,.17a.7.7,0,0,0,.13-.16c-.07.11,0,.12-.11.18s.06,0,.16-.05a.24.24,0,0,1,.06-.1.66.66,0,0,1,0,.1h0c.14-.14-.09.39.09.18h0l.11-.1s-.06.08-.08.15c.14-.16.06.07.15,0-.11.36.12,0,.08.25l0-.08c0-.08,0,.05,0,.08a.68.68,0,0,1,0-.13c.12-.07.14.18.22.28s.11-.45.11-.23l0,.16c.11-.18.14,0,.23-.13l0,.08c0,.12,0,0,.06-.08a.88.88,0,0,1,0,.14c0,.07,0-.15,0,0s0,0,0,0,0,0,0-.12c0,.07.05-.05.06,0,0-.16,0,.08,0-.14,0,.22,0,.18.05.07,0,.07,0,.08,0,.17s0,0,0-.16c0,.27,0-.22.07.13a1.23,1.23,0,0,1,.13-.26c0,.22,0,0,0,.26,0-.1,0-.29.09-.24a.65.65,0,0,1,0,.14c0-.1.08,0,.1-.12a.16.16,0,0,1,0,.07s0,0,0-.07v0a3,3,0,0,1,0-.39c0,.3,0,.07.07.45a1,1,0,0,0,0-.14.33.33,0,0,1,0,.14c0-.06,0-.17,0-.17v.13c0-.1,0-.2,0-.16s0,.07,0,.07,0-.26.06-.18a1.43,1.43,0,0,0,.06.26v-.06l0-.09s0-.14,0-.08v.08l0,0,0-.07c0-.09,0-.23,0-.18s0,0,0,.1h0s0-.12,0-.07l0,.24c0-.16,0-.05,0-.22l0,.16,0-.13a.62.62,0,0,1,0,.14s-.06-.23,0-.14v.05s0-.09.07,0,0,0,0,.2c0,0,0-.24.06-.2v0c-.06-.26,0,.12,0,0l0,.11s0-.07,0-.16l0,.06c0,.06,0,0,.06.05a.64.64,0,0,0,0-.15c.15.36,0-.22.15.08v0c0-.11,0-.07-.06-.15s0-.12,0-.12a.9.9,0,0,0,.08.23l0-.1c.08.19-.06-.22,0-.1l0,.06s0-.11,0-.1,0,.07.05.17-.05-.25,0-.13v.08C35,14,35,14,35,14h0l.05.06,0,0c-.09-.34,0-.07,0-.3a2.48,2.48,0,0,0,.08.27.61.61,0,0,1,.05.12c0-.12,0,.09,0-.09,0,0,0,0,0,.12a.6.6,0,0,0,0-.14c0-.16.11.18.07-.05s-.06-.25-.06-.34a1,1,0,0,1,.05.17c0,.07,0,.05,0,0a.69.69,0,0,0,.05.13s-.05-.17,0-.11l.06.19,0-.18a.83.83,0,0,1,.05.18.54.54,0,0,0,0-.22l0,0s0,.11,0,.13,0,0,0-.08v0c-.1-.27,0,0,0,0l-.06-.2,0,.17a1,1,0,0,1-.06-.19c0-.09,0,.07,0,0v0s0-.14,0-.11,0,.15,0,0v0c0,.08,0,.15.08.33L35,13.38l0,.15a.23.23,0,0,1,0-.07,1,1,0,0,0,.05.16c-.06-.13,0,.07-.1-.16,0,.11,0,.08,0,.16-.08-.24,0,.05,0-.06s0-.06-.05-.17c.06.21,0,0,0,0s0,.08,0,.14-.06-.08-.1-.14v0c0,.18,0,.15,0,.19,0-.11,0-.15,0-.2h0a.65.65,0,0,1,0,.11l0-.14s0,.17,0,.09a3.08,3.08,0,0,1,.12.42,1.43,1.43,0,0,1-.06-.21s0,.06,0,0l0-.11c0-.05,0,.09,0,.09l0-.15s0,0,0,0a.38.38,0,0,1-.06-.14.35.35,0,0,1,0,.15s0-.12-.06-.16,0,0,0,.14a.49.49,0,0,0,0-.1c0,.06,0,0,0,.17h0c0,.15-.08-.07-.09,0v-.05c0,.06,0,0,0,.15l0-.14s0,.09,0,0,0-.07,0-.06,0-.11,0,0c0-.12,0-.15,0-.11l0,.08s0,0,0,0l0-.16c-.07-.19,0,.35-.07,0,0,.12,0,.08.05.21a1.44,1.44,0,0,1-.08-.25c0-.08,0,.25,0,.19a2.19,2.19,0,0,1,0,.27,1.14,1.14,0,0,1-.06-.29s0,0,0,0a.31.31,0,0,0,0-.11v.06a.64.64,0,0,1-.05-.15.35.35,0,0,0,0,.13c0-.08,0,0-.06-.05a.84.84,0,0,1,0,.1c0-.07,0,.11,0,.14s0-.22,0-.14a.75.75,0,0,1,0-.2c0,.11,0-.07,0-.09v0s0,0,0,0l0,.11s0,0,0-.06,0,.19,0,.3c0-.06,0,.07,0-.09,0,.05,0-.16,0-.18s0,0,0,0v0c0-.13,0,.18,0,.18a.47.47,0,0,0,0-.15,1,1,0,0,1,0,.22c0-.07,0,.05,0,0l0,0a.63.63,0,0,1,0,.11c0-.07,0,0,0-.08,0,.16,0-.16,0,0l0-.21c0,.12,0-.12,0,0a.67.67,0,0,1,0,.2l0-.08v.17s0-.07,0-.05a.86.86,0,0,0,0,.16c0-.17,0,.11,0,0l0-.3c0-.13,0,.16,0,.08v.06c0,.11,0,0,0,.06v-.2c0,.08,0,0,0,.2v-.13c0-.06,0,.28,0,.24s0-.17,0-.25,0,0,0,.05,0,.13,0,0a.49.49,0,0,1,0,.14v-.05c0,.05,0,.06,0,.17,0-.3-.06,0-.07-.24a.13.13,0,0,1-.05.07s0-.05,0,0,0,.28-.05.17,0-.08,0-.14c0-.33,0,0,0-.15v0c0-.11,0,.12,0,.09v0a.62.62,0,0,1-.1.25,1.06,1.06,0,0,0,0-.19s0,.2,0,.23a1,1,0,0,1,0-.26h0c0-.17,0,0,0,0v-.07s-.06.21-.08.19v.06c-.06.19,0-.11,0,0l0-.19-.1.21.11-.29s0,0-.06.1l0,0c0,.15-.08.22-.1.21.11-.36,0-.1.07-.39-.07.13,0-.07,0,0-.1.27,0,0-.12.28,0,0,0,0,0,0l.05-.18c0-.08,0-.06.07-.12s0-.12.07-.2c0,.1-.07.14-.05.1l-.06.13c-.08.14.1-.23,0-.1l0-.08s0,0-.15.2a.4.4,0,0,1,.07-.13s-.18.2-.12.06l0-.06s-.09.11,0,.05l0-.07s-.08.11-.06.07l.05-.07c0-.09-.14.15-.19.17a2.11,2.11,0,0,0,.18-.27l0,0s-.15.11-.23.15c.16-.18,0-.1.12-.21l-.15.13s-.12.08,0-.05h0c.14-.13.1-.1.09-.11l-.2.17c.28-.26-.15,0,.11-.19l-.11.07.11-.09s0,0,0,0l.09-.05s-.35.21-.37.2l.18-.11s.14-.12,0,0l.09,0s.12-.09-.14,0c.17-.08,0,0-.07,0l.13-.05-.27.09.07,0c.07,0-.12,0-.06,0l.09,0-.14,0s0,0,.14-.08c-.07,0-.17,0-.14,0l.09,0c.09-.05-.16,0,0,0l.08,0s0,0,0,0a2.28,2.28,0,0,1,.31-.1c-.09,0-.3.07-.24,0h0l0,0c.1,0,.05,0,.06,0a1.09,1.09,0,0,0-.23.06h0c-.07,0-.13,0-.06,0l-.22,0a2.88,2.88,0,0,1,.41-.11,1.44,1.44,0,0,0-.32,0l.11,0h.06a.77.77,0,0,0-.21,0c.08,0,.17,0,.14,0h.05c.3,0-.47-.05-.09-.09h-.06c.16,0-.15-.12.12-.11,0,0-.06,0-.14-.06l.14,0-.16-.06c-.11-.06.36.09.14,0l-.1,0s0-.05.06,0-.09-.05,0,0l.07,0-.11-.08c.06,0,.28.14.3.14l-.24-.16a.45.45,0,0,1-.12-.05l0,0a2.71,2.71,0,0,0-.57-.28l.12.09-.11,0v0c-.1,0,0,0,0,0l-.12,0,.19.12a1.09,1.09,0,0,0-.21-.09,1.33,1.33,0,0,1,.24.12c-.1,0-.18-.07-.1,0l-.11,0c.06,0,0,0,.12.1-.13,0,0,0-.19,0l.16.09c-.24-.1,0,0-.3,0,.22.08.08.1.2.16l0,0h-.14c.19,0,.23.08.35.11a2.57,2.57,0,0,1-.4-.08c.15,0,.15.07.28.08a.88.88,0,0,1-.22,0c.24,0,0,0,.18.06-.12,0-.23,0-.16,0A.36.36,0,0,1,31.29,12.32Zm.47.58Zm0,0s0,0,0,0l.09,0Zm.92-.32h0Z"/><path class="cls-1" d="M32.51,12.65h0Z"/><path class="cls-1" d="M34.61,13.55h0v0Z"/><polygon class="cls-1" points="31.83 13.63 31.86 13.61 31.83 13.62 31.83 13.63"/><path class="cls-1" d="M34.93,14v0Z"/><path class="cls-1" d="M35,14l0,0Z"/><path class="cls-1" d="M35.1,14l0-.06h0Z"/><path class="cls-1" d="M34.07,14.42Z"/><path class="cls-1" d="M34.35,14v.07S34.36,14.12,34.35,14Z"/><polygon class="cls-1" points="33.67 14.6 33.67 14.6 33.67 14.6 33.67 14.6"/><path class="cls-1" d="M34.34,14.11s0,0,0,0S34.34,14.09,34.34,14.11Z"/><path class="cls-1" d="M35.39,14h0v0Z"/><path class="cls-1" d="M35.38,14v0Z"/><path class="cls-1" d="M35.38,13.92v0S35.39,14,35.38,13.92Z"/><path class="cls-1" d="M35.28,14l0,.05Z"/><path class="cls-1" d="M35.26,14s.05.09.05.06v0C35.32,14.08,35.24,13.89,35.26,14Z"/><path class="cls-1" d="M35,13.41l0,0a.79.79,0,0,1,0-.13C34.88,13.17,35,13.42,35,13.41Z"/><path class="cls-1" d="M34.88,13.36s0-.08,0-.11A.23.23,0,0,0,34.88,13.36Z"/><path class="cls-1" d="M34.45,13.48l0-.13A.87.87,0,0,0,34.45,13.48Z"/><polygon class="cls-1" points="34.51 14.14 34.53 14.22 34.51 14.1 34.51 14.14"/><polygon class="cls-1" points="34.27 13.26 34.27 13.24 34.27 13.29 34.27 13.26"/><path class="cls-1" d="M33.63,13.36v.16S33.64,13.32,33.63,13.36Z"/><path class="cls-1" d="M33.34,13.49c0-.08,0-.13,0-.06S33.33,13.51,33.34,13.49Z"/><polygon class="cls-1" points="32.88 12.92 32.92 12.89 32.88 12.91 32.88 12.92"/><path class="cls-1" d="M22.07,25s.13-.06.11-.06L22,25Z"/><path class="cls-1" d="M22.34,24.85A2.28,2.28,0,0,0,22,25l.26-.09s0,0-.1.06,0,0,.07,0,.12-.07,0,0Z"/><path class="cls-1" d="M22.41,24.14h0Z"/><path class="cls-1" d="M22.47,23.75h0Z"/><path class="cls-1" d="M22.65,23.69h0Z"/><path class="cls-1" d="M22.41,24.14h.05C22.4,24.13,22.42,24.14,22.41,24.14Z"/><path class="cls-1" d="M21.93,24.9h0Z"/><path class="cls-1" d="M22.57,24.29Z"/><path class="cls-1" d="M22.62,24.4l-.19.05.1,0Z"/><path class="cls-1" d="M22.45,24.67h0Z"/><path class="cls-1" d="M22.58,24.19h0Z"/><path class="cls-1" d="M23.71,20.39v0A0,0,0,0,0,23.71,20.39Z"/><polygon class="cls-1" points="24.13 20.97 24.13 20.98 24.16 21.05 24.13 20.97"/><path class="cls-1" d="M22.83,23.59Z"/><path class="cls-1" d="M23,22.65c-.12,0-.14-.09-.27-.14C22.76,22.53,22.9,22.62,23,22.65Z"/><path class="cls-1" d="M21.94,24.89h0Z"/><path class="cls-1" d="M22.71,22.51Z"/><path class="cls-1" d="M22.77,23.34h0Z"/><path class="cls-1" d="M22.55,23.51h0Z"/><path class="cls-1" d="M22.59,23.21s0,0,0,0h0S22.62,23.21,22.59,23.21Z"/><polygon class="cls-1" points="22.62 23.11 22.59 23.1 22.6 23.11 22.62 23.11"/><path class="cls-1" d="M23.34,20.65l.06.1C23.35,20.67,23.35,20.63,23.34,20.65Z"/><path class="cls-1" d="M22,24.87l-.06,0h0Z"/><path class="cls-1" d="M21.51,23l0,0A0,0,0,0,0,21.51,23Z"/><path class="cls-1" d="M22.52,21.32v0Z"/><path class="cls-1" d="M21.53,22.89h0Z"/><path class="cls-1" d="M23.4,20.76h0Z"/><path class="cls-1" d="M23.38,20.39s.08.16.12.26-.07-.12-.12-.19.07.2.06.2a.12.12,0,0,1,0-.07c.05.14,0,0,0,.2l0,0,.13.21s0,.11,0,0,0,0,0-.08l0,.06c-.1-.15,0-.06-.08-.17,0,.05.06.19,0,.15s0-.06-.09-.18l0,0c-.15-.22,0,0-.13-.23-.06,0,0,.09-.05.07l.12.2c.06.17-.25-.34-.16-.13s.17.28.09.19l-.1-.16s.13.24,0,.15,0-.07,0-.08,0,.1,0,.1l-.1-.14c0,.05,0,.17,0,.21a.54.54,0,0,0-.09-.12c0,.09-.09,0-.19,0l.08.13-.06-.07c-.05,0,.06.07.08.12s-.06-.06-.08-.09.1.25,0,.16l0,0c-.05,0,.18.24.07.16v0c-.08,0,0,.13-.21,0,.14.16-.11,0,.1.19a1.25,1.25,0,0,0-.26-.17s.12.14.13.17l-.11-.1.1.12-.14-.12,0,0,.09.07c0,.06-.11,0-.17-.09l.06.12-.08-.09c.1.13-.12-.1,0,0l.09.08c-.08,0-.1,0-.08,0l-.08-.07s0,.1,0,.13a.87.87,0,0,1,.2.16l-.13-.1c.07.07.05,0,.14.11a.7.7,0,0,1-.19-.14l0,.05-.1-.09c.07.07-.15-.08,0,0l0,0s0,.09,0,.12.08.07.17.15-.16,0-.16,0a.53.53,0,0,0,.16.13c-.11-.07-.12,0-.19-.1s0,.05.06.14l.11.06s-.06,0-.11-.05h0c.14.15-.38-.09-.17.08h0l.1.1S22,22,21.94,22c.17.14-.06.05,0,.15-.35-.15,0,.1-.26,0l.09,0c.07.05-.06,0-.08,0s.08,0,.12.05-.19.11-.3.17.43.18.21.14l-.15-.06c.17.12-.05.13.1.24,0,0-.09,0-.09,0s0,.05.08.08l-.14,0c-.07,0,.14.07,0,.05l0,0c.05,0,0,0,.11.06-.07,0,.05.06,0,.06.14.05-.09,0,.13.08-.22-.05-.19,0-.09,0l-.16,0s0,0,.15.06c-.27,0,.2.1-.14.06a1,1,0,0,1,.23.18c-.22,0,0-.06-.25-.09.09.06.28.11.22.14a.36.36,0,0,1-.14,0c.09.05,0,.08.09.13h-.06s0,0,.07,0h0a2.49,2.49,0,0,1,.39.06c-.29,0-.08,0-.44,0a.27.27,0,0,0,.13,0,.23.23,0,0,1-.14,0c.06,0,.17,0,.16.05h-.12c.09,0,.19,0,.15.05s-.07,0-.07,0,.25.07.16.1a2,2,0,0,0-.26,0l.06,0h.09s.13,0,.07,0h-.08l0,0h.07c.1,0,.24,0,.18,0s0,0-.11,0h0c.06,0,.12,0,.08,0h-.25c.16,0,0,0,.21.05h0l-.13,0s.23,0,.13,0h-.05c-.05,0,.09,0,0,.07s-.05,0-.21,0c0,0,.23.06.19.1h0c.27,0-.12,0,0,0H21.8s.08,0,.16.07h-.07c-.05,0,0,.05-.05.07l.15,0c-.37.12.22.05-.08.15h-.06l.07,0,.15,0h.12a.84.84,0,0,0-.24.06l.11,0c-.2.06.23-.05.1,0H22.1s.11,0,.09,0-.06,0-.17,0,.26,0,.13,0h-.08l-.13.06h0l-.06.05,0,0c.34-.07.07,0,.3,0a1.68,1.68,0,0,0-.27.07l-.12.05c.12,0-.09,0,.09,0-.05,0,0,0-.12.05a.6.6,0,0,0,.14-.05c.16,0-.18.12,0,.08s.26-.05.34-.05l-.17.05c-.06,0,0,0,0,0l-.12.05s.17-.06.11,0l-.19.06.18,0a.88.88,0,0,1-.17.06.42.42,0,0,0,.21,0l0,0-.13.05c-.1,0,0,0,.08-.06h0c.27-.11-.05,0,0,0l.19-.07-.16.05a.56.56,0,0,1,.19-.07c.09,0-.08,0,0,0h0s.14-.05.11,0-.16,0,0,0h0c-.08,0-.14,0-.32.08l.35-.14-.15.05s0,0,.08,0l-.16,0c.12-.05-.08,0,.15-.09-.11,0-.08,0-.16,0,.25-.07-.05,0,.06,0s.07,0,.18-.05c-.22.06,0,0,0,0s-.08,0-.14,0,.08-.06.14-.09h0c-.18,0-.15,0-.19,0l.2,0h-.11l.13,0s-.16,0-.08,0c-.12,0-.34.08-.43.08l.21,0s-.06,0,0,0h.12c.05,0-.1,0-.09,0l.15,0s0,0,0,0l.14,0a.45.45,0,0,1-.14,0s.11,0,.16,0,0,0-.14,0l.1,0c-.06,0,0,0-.18,0h0c-.15,0,.07-.07,0-.09h.05c-.06,0,0,0-.15,0l.15,0s-.1,0,0,0,.08,0,.07,0,.12,0,0,0c.13,0,.16,0,.12,0l-.09,0s0,0,0,0h.17c.2,0-.35,0,0-.07-.12,0-.08,0-.22,0a1.47,1.47,0,0,1,.26-.05c.09,0-.24,0-.18,0a1.2,1.2,0,0,1-.27,0,1.36,1.36,0,0,1,.29,0h0c.06,0,.06,0,.15,0h-.12c.08,0,0,0,.06,0h-.11c.08,0-.11,0-.13,0s.21,0,.14,0a.66.66,0,0,1,.2,0c-.11,0,.08,0,.1,0h0c-.07,0-.19,0-.3,0,.06,0-.06,0,.09,0-.05,0,.16,0,.19,0s0,0,0,0h0c.14,0-.18,0-.17,0h.15a.65.65,0,0,1-.22,0c.07,0-.05,0,0,0h0c-.09,0-.08,0-.1,0l.07,0c-.15,0,.17,0,.06,0h.21c-.11,0,.12,0,0,0a.64.64,0,0,1-.2,0l.08,0-.17,0s.07,0,.05,0l-.17,0c.18,0-.1,0,0,0l.3,0c.13,0-.15-.06-.07-.07h-.05c-.12,0,0,0-.06,0a.72.72,0,0,0,.19,0c-.07,0,0,0-.18,0h.13c.05,0-.27-.07-.24-.09a2.33,2.33,0,0,1,.25.06s0,0-.05,0-.12,0,0,0-.14,0-.13,0h0l-.17,0c.31,0,0-.07.26,0,0,0-.06-.05-.06-.07l0,0c.09,0-.27-.09-.17-.08s.08,0,.14,0c.32.08,0,0,.15,0h0c.11,0-.11-.06-.08-.08l.05,0a.55.55,0,0,1-.24-.14l.19.07a1.36,1.36,0,0,1-.23-.09,1,1,0,0,1,.26.07h0c.17.05,0,0,0,0l.08,0s-.2-.09-.18-.11l-.06,0c-.18-.09.11,0,0,0l.18.07-.19-.13a2.67,2.67,0,0,1,.27.15s0,0-.09-.08.06,0,0,0-.2-.11-.19-.13c.35.15.1,0,.38.1-.11-.08.08,0,.08-.06-.28-.13,0,0-.28-.15,0,0,0,0,0,0l.17.06a1,1,0,0,1,.12.07,1.6,1.6,0,0,1,.2.08c-.1,0-.14-.08-.1-.07l-.13,0c-.13-.1.24.1.11,0l.08.05c-.05,0,0,0-.19-.17a.27.27,0,0,1,.12.07c.05,0-.18-.19,0-.13l.06,0s-.11-.09-.05,0l.07,0s-.1-.08-.06-.06l.07.05c.09,0-.15-.15-.17-.21a1,1,0,0,0,.28.16l0,0s-.12-.15-.16-.23c.2.13.12,0,.24.07a.89.89,0,0,1-.14-.13s-.1-.12.05,0h0c.16.12.13.08.14.07L23.2,22c.31.24,0-.15.22.07L23.34,22l.1.1s.06,0,.06,0l.06.07s-.27-.31-.26-.32l.15.15s.16.1.05-.06a.33.33,0,0,1,.06.08s.13.08-.06-.14c.12.14,0,0,0-.08l.08.11a1.26,1.26,0,0,1-.15-.23s.08.08,0,.06-.08-.11,0-.06l.06.07s0,0-.08-.12.05,0,.13.11c0-.07-.1-.15-.08-.13l.06.08c.07.06-.07-.15,0-.05l.06.06s0,0,0,0,.1.12.19.27c-.05-.09-.15-.27-.11-.23l0,0h0s0,0,0,0l0,0c.06.09,0,0,.05,0a2,2,0,0,0-.13-.19,0,0,0,0,1,0,0h0v0c0-.06-.07-.11,0-.06l-.12-.19c.12.16.2.23.27.33a.86.86,0,0,0-.12-.3s.05.06.07.09a.17.17,0,0,0,0,.06.7.7,0,0,0-.08-.2c.06.06.08.15.09.11l0,.05c.19.24-.17-.44.06-.14l0-.05c.12.12,0-.2.2,0,0,.05,0-.06,0-.15l.06.14L24,21.19c0-.13.18.33.11.09l0-.09s0-.07.06,0l0-.05,0,.07,0-.13s.11.29.14.3a1.64,1.64,0,0,0-.07-.28s0,0-.05-.12v0a3.52,3.52,0,0,0-.22-.59l0,.14,0-.1v0c0-.09,0,0,0,.06a.91.91,0,0,0-.06-.11l.06.21a.69.69,0,0,0-.09-.21,1.35,1.35,0,0,1,.09.26c0-.1-.07-.18,0-.09a.27.27,0,0,1,0-.12c0,.07,0,0,0,.16-.06-.12,0,0-.11-.16a.54.54,0,0,1,0,.18c-.08-.25,0,0-.15-.26.09.22,0,.12,0,.25l0,0-.08-.12a2.44,2.44,0,0,1,.12.35c-.09-.16-.09-.21-.17-.38.07.15,0,.16.1.28l-.11-.19c.11.22,0,0,.06.18-.07-.1-.1-.2-.09-.12A1.19,1.19,0,0,1,23.38,20.39Zm-.22.63Zm0,0h0l.06.08A.46.46,0,0,0,23.13,21.05Zm.62.74s0,0,0,0v0h0Z"/><polygon class="cls-1" points="23.66 21.64 23.65 21.63 23.63 21.6 23.66 21.64 23.66 21.64"/><path class="cls-1" d="M22.38,24.15h0Z"/><polygon class="cls-1" points="22.51 21.23 22.53 21.26 22.51 21.23 22.51 21.23"/><path class="cls-1" d="M22,24.44h0Z"/><path class="cls-1" d="M21.94,24.54l0,0Z"/><path class="cls-1" d="M21.89,24.63h0Z"/><path class="cls-1" d="M21.61,23.44h0S21.59,23.43,21.61,23.44Z"/><path class="cls-1" d="M21.93,23.8h-.06S21.85,23.8,21.93,23.8Z"/><polygon class="cls-1" points="21.51 22.99 21.51 22.99 21.51 22.99 21.51 22.99"/><path class="cls-1" d="M21.87,23.77s0,0,0,0S21.89,23.78,21.87,23.77Z"/><path class="cls-1" d="M21.94,25Z"/><path class="cls-1" d="M22,25h0Z"/><path class="cls-1" d="M22,25h0Z"/><path class="cls-1" d="M22,24.85l0,0Z"/><path class="cls-1" d="M21.94,24.83s-.1.05-.06.05h0C21.84,24.89,22,24.81,21.94,24.83Z"/><path class="cls-1" d="M22.5,24.52l0,0,.13,0C22.75,24.44,22.49,24.55,22.5,24.52Z"/><path class="cls-1" d="M22.56,24.44l.11,0Z"/><path class="cls-1" d="M22.48,24l.12,0Z"/><polygon class="cls-1" points="21.81 23.96 21.73 23.97 21.85 23.97 21.81 23.96"/><polygon class="cls-1" points="22.72 23.85 22.73 23.85 22.69 23.84 22.72 23.85"/><path class="cls-1" d="M22.73,23.15l-.15,0S22.78,23.17,22.73,23.15Z"/><path class="cls-1" d="M22.67,22.81c.07,0,.12,0,0,0Z"/><polygon class="cls-1" points="23.36 22.17 23.39 22.21 23.37 22.17 23.36 22.17"/></g></g></svg>