<svg xmlns="http://www.w3.org/2000/svg" viewBox="0 0 189.8 249.12"><defs><style>.cls-1{fill:#565656;}.cls-1,.cls-2,.cls-3,.cls-4{stroke:#000;stroke-miterlimit:10;}.cls-3{fill:#333;}.cls-4{fill:none;}</style></defs><title>ironthrone</title><g id="Layer_2" data-name="Layer 2"><g id="Layer_2-2" data-name="Layer 2"><polygon class="cls-1" points="0.9 248.62 36.9 190.62 10.9 126.62 13.9 126.62 7.9 114.62 10.9 114.62 16.9 121.62 12.9 97.62 17.9 103.62 13.9 83.62 21.9 100.62 14.9 76.62 18.9 79.62 16.9 72.62 24.9 82.62 22.9 67.62 28.9 78.62 24.9 58.62 32.9 65.62 26.9 49.62 38.9 63.62 30.9 40.62 45.9 58.62 36.9 32.62 52.9 55.62 46.9 19.62 59.9 48.62 56.9 14.62 68.9 44.62 66.9 7.62 80.9 48.62 79.9 3.62 86.9 46.62 92.9 3.62 98.9 46.62 108.9 4.62 109.9 51.62 121.9 5.62 116.9 52.62 132.9 7.62 126.9 51.62 141.9 14.62 134.9 52.62 150.9 20.62 141.9 57.62 160.9 33.62 150.9 60.62 164.9 43.62 156.9 64.62 168.9 51.62 161.9 67.62 168.9 62.62 161.9 76.62 172.9 72.62 167.9 86.62 174.9 78.62 168.9 98.62 178.9 84.62 172.9 103.62 179.9 96.62 173.9 110.62 178.9 108.62 174.9 117.62 180.9 113.62 151.9 187.62 154.9 194.62 188.9 248.62 0.9 248.62"/><polyline class="cls-2" points="50.9 248.62 48.9 160.62 56.9 161.62 57.9 237.62 93.9 216.62 133.9 239.62 133.9 155.62 139.9 153.62 139.9 248.62"/><polyline class="cls-3" points="57.24 187.79 64.9 193.62 125.9 193.62 133.9 178.62 78.95 178.62 57.24 178.62"/><line class="cls-4" x1="90.4" y1="248.62" x2="90.4" y2="218.66"/><line class="cls-4" x1="96.4" y1="248.62" x2="96.4" y2="218.06"/><path class="cls-4" d="M139.9,153.62l35-36Z"/><polyline class="cls-4" points="133.9 155.62 171.9 104.62 173.13 102.88"/><line class="cls-4" x1="48.9" y1="160.62" x2="16.9" y2="121.62"/><line class="cls-4" x1="56.9" y1="161.62" x2="17.9" y2="103.62"/></g></g></svg>